<?xml version="1.0" encoding="utf-8"?>
<!-- Generator: Adobe Illustrator 24.1.0, SVG Export Plug-In . SVG Version: 6.00 Build 0)  -->
<svg version="1.1" id="RUSSIAN" xmlns="http://www.w3.org/2000/svg" xmlns:xlink="http://www.w3.org/1999/xlink" x="0px" y="0px"
	 viewBox="0 0 718.97 177.96" style="enable-background:new 0 0 718.97 177.96;" xml:space="preserve">
<style type="text/css">
	.st0{fill:#0093D5;}
</style>
<g>
	<g>
		<path class="st0" d="M164.01,32.58c3.86,4.6,10.6,7.31,14.56,11.92c-2.83-13.63-13.35-24.76-25.79-27.42
			C158.84,21.65,160.15,27.98,164.01,32.58z M14.48,67.13c8.56-18.65,21.36-14.7,26.77-32.47c-3.06,5.45-17.03,7.75-23.51,21.72
			c3.31-8.3,1.65-21,7.25-27.85C8.25,40.88,15.38,60.86,14.48,67.13z M30,111.86c1.54,7.27-2.98,17.74,4.2,27.76
			c-7.44-8.34-23.18-10.46-29.62-23.13c8.03,30.98,28.95,24.6,38.39,31.33C35.21,136.66,41.56,129.25,30,111.86z M27.59,131.31
			c-4.63-17.32,3.6-23.29-2.65-39.91c-0.65,9.36-6.89,13.92-2.68,31.04C14.82,107.94,3.33,102.54,0,92.6
			C0.23,119.78,22.07,123.81,27.59,131.31z M61.13,160.34c-6.43-8.9-2.04-13.93-20.1-30.09c3.83,5.9-0.12,13.32,12.06,24.86
			c-11.92-7.03-28.36-4.02-36.29-13.42C30.42,167.74,54.35,157.1,61.13,160.34z M148.55,155.11c12.18-11.54,8.24-18.96,12.07-24.86
			c-18.06,16.16-13.68,21.19-20.1,30.09c6.78-3.24,30.72,7.4,44.33-18.64C176.91,151.09,160.47,148.08,148.55,155.11z
			 M167.44,139.62c7.18-10.02,2.66-20.49,4.2-27.76c-11.55,17.39-5.2,24.8-12.97,35.96c9.45-6.73,30.36-0.35,38.39-31.33
			C190.62,129.16,174.88,131.28,167.44,139.62z M138.58,161.57c-7.06-1.89-14.34-2.82-19.75-2.96c-6.75-0.17-12.79,1.11-18.01,3.06
			c-5.23-1.95-11.26-3.22-18.01-3.06c-5.42,0.13-12.69,1.07-19.75,2.96c-10.86,2.89-20.26,5.13-28.44,0.99
			c7.84,6.96,17,9.45,30.23,8.02c11.02-1.19,19.9-6.69,30.29-6.62c0.14,0,0.27,0.01,0.41,0.01c-10.94,5.52-17.12,13.31-17.12,13.31
			l5.01,0.68c0,0,5.27-10.6,17.39-13.35c12.12,2.75,17.39,13.35,17.39,13.35l5.01-0.68c0,0-6.18-7.79-17.12-13.31
			c0.14,0,0.27-0.01,0.4-0.01c10.39-0.07,19.27,5.43,30.29,6.62c13.23,1.42,22.39-1.06,30.23-8.02
			C158.84,166.7,149.45,164.46,138.58,161.57z M25.67,72.63c-4.48,8.6-11.44,10.56-10.7,28.32C11.22,85.18,2.24,79.32,2.35,69.23
			c-6.25,26.29,10.43,29.42,14.72,40.44C16.44,93.88,26.52,90.69,25.67,72.63z M31.93,52.33c-1.56,2.18-2.66,3.11-6.82,6.54
			c-5.67,4.67-10.2,10.82-12.11,19.77c0.43-9.64-5.52-23.49-1.56-33.59c-15.34,21.65,0.87,34.62,1.45,42.46
			C16.86,72.42,25.99,72.3,31.93,52.33z M188.63,78.64c-1.91-8.96-6.44-15.1-12.11-19.77c-4.16-3.42-5.26-4.35-6.82-6.54
			c5.94,19.97,15.08,20.09,19.04,35.18c0.58-7.84,16.79-20.81,1.45-42.46C194.15,55.15,188.2,69,188.63,78.64z M201.64,92.6
			c-3.33,9.95-14.82,15.34-22.25,29.84c4.21-17.11-2.03-21.68-2.68-31.04c-6.25,16.62,1.98,22.59-2.65,39.91
			C179.57,123.81,201.41,119.78,201.64,92.6z M175.96,72.63c-0.85,18.06,9.23,21.24,8.6,37.04c4.29-11.02,20.97-14.14,14.72-40.44
			c0.12,10.08-8.86,15.95-12.62,31.71C187.41,83.2,180.45,81.23,175.96,72.63z M37.62,32.58c3.86-4.6,5.17-10.93,11.23-15.5
			C36.42,19.74,25.9,30.87,23.07,44.5C27.02,39.89,33.76,37.18,37.62,32.58z M160.39,34.66c5.41,17.77,18.21,13.82,26.77,32.47
			c-0.9-6.27,6.23-26.25-10.51-38.6c5.6,6.85,3.94,19.55,7.25,27.85C177.41,42.41,163.44,40.11,160.39,34.66z M116.96,44.75
			c-3.22-1.33-6.63-2.28-10.19-2.78c-0.02,0.75-0.03,1.52-0.05,2.28c3.28,0.48,6.43,1.36,9.4,2.59
			C116.52,46.22,116.8,45.53,116.96,44.75z M114.37,22.76l0.69-0.61l-1.3-0.55l-3.42-0.07l-0.89,0.62l-2.02-0.17l-0.02,0.49
			c1.28,0.08,2.54,0.2,3.52,0.37l1.67-0.15L114.37,22.76z M107.78,96.5c0-0.58-0.77-1.15-1.91-1.69l-0.2,0
			c-0.01,0.47-0.05,2.79-0.08,3.92C107,98.1,107.78,97.42,107.78,96.5z M68.16,53.04c0.08-0.47,0.17-0.84,0.29-1.26
			c-0.43,0.11-0.92,0.15-1.4,0.14L68.16,53.04z M100.89,153.64c38.47,0,69.76-31.3,69.76-69.77c0-36.08-27.53-65.85-62.69-69.41
			c-0.03,0.13-0.06,0.27-0.08,0.4c-0.14,0.68-0.27,1.29-0.37,1.83c15.75,1.54,29.92,8.51,40.62,19.01l-7.7,7.7l0.29-1.35l-1.01-0.45
			l-1.39-0.08l0.3-0.89l-0.93-3.15l-1.91-2.1l-6.02-3.17l-0.51,0.55l-1.09,0.32c2.07,3.04,3.18,6.56,3.18,10.12
			c0,0.46-0.01,0.92-0.04,1.36l2.98,3.75l-1.4,0.33l0.92,1.39l-2.63,2.63l-1.06-2.01c-0.5,1.41-1.17,2.71-1.99,3.93
			c0.2,0.18,0.4,0.36,0.59,0.54l-8.1,8.1c-0.49-0.47-1.01-0.92-1.53-1.35c-0.78,0.36-1.57,0.7-2.37,1.01
			c0.23,0.18,0.46,0.35,0.69,0.54L117,63.83l-0.95,0.53l-0.35,0.95l-0.59-0.59l-1.71,0.57l0.47,0.75l1.18-0.32l0.77,0.06l0.06-0.41
			l0.59-0.3l0.18-0.35l1.06-0.3l0.83-0.04c0.16,0.15,0.33,0.29,0.48,0.44l-3.21,3.22l-0.24-0.35l-3.36,0.56L111.46,69l-0.74,0.09
			l2.09-2l-0.75-0.37l-1.94,2.61l0.57-0.06l-0.03,0.96l0.71,0.27l0.14,1.03l-1.17-0.23l-1.23,0.23L106.17,70
			c0,0-0.16,7.92-0.25,11.9c6.96,2.34,14.35,5.72,14.35,14.6c0,3.9-1.69,7.05-5.01,9.38l0.03,0.01c-0.05,0.03-0.1,0.07-0.15,0.1
			l-0.02-0.01c-0.07,0.05-0.15,0.1-0.22,0.16c-2.82,1.86-6.44,2.85-9.57,3.83c-0.02,0.01-0.09,6.22-0.09,6.22
			c4.99,2.48,11.05,6.09,10.49,16.42c-0.07,2.54-1.06,3.24-1.91,3.47v0c-2.92,0.72-5.94,1.2-9.02,1.43
			c-0.02,0.8-0.03,1.57-0.04,2.28c13.44-0.92,25.59-6.6,34.78-15.36l8.1,8.1c-12.14,11.67-28.62,18.86-46.75,18.86
			c-18.03,0-34.44-7.11-46.56-18.67l8.11-8.11c9.1,8.59,21.06,14.18,34.28,15.16c-0.01-0.7-0.03-1.46-0.04-2.27
			c-12.59-0.98-23.97-6.31-32.64-14.48l2.17-2.16l2.97,0.34l1.58-1.7l4.14,0.14l0.61-1.44l-0.15-0.61c6,4.56,13.24,7.55,21.12,8.37
			c-0.02-0.88-0.03-1.66-0.04-2.28c-8.7-0.97-16.57-4.73-22.68-10.37l8.11-8.11c1.97,1.76,4.18,3.25,6.57,4.41
			c0.18-0.77,0.45-1.49,0.82-2.13c-2.1-1.04-4.05-2.35-5.79-3.88l8.13-8.13c1.29,1.04,2.76,1.85,4.34,2.42
			c-0.02-0.81-0.03-1.65-0.05-2.45c-0.96-0.42-1.86-0.95-2.68-1.58l2.29-2.29c-0.81-0.24-1.62-0.5-2.43-0.78l-1.53,1.53
			c-0.78-0.86-1.43-1.83-1.95-2.88c-1.4-0.62-2.75-1.32-4.01-2.15c-5-3.28-7.53-7.92-7.53-13.77c0-4.47,1.25-7.86,3.28-10.48
			l-8.08-8.08c5.82-5.56,13.31-9.4,21.64-10.66c-0.02-0.79-0.03-1.55-0.04-2.28c-8.93,1.29-16.97,5.37-23.2,11.34l-1.37-1.37
			c-0.31,0.54-0.67,1.24-1.09,2.11l0.86,0.86C63.1,62.36,58.78,72.27,58.6,83.17H47.13c0.18-14.06,5.79-26.85,14.82-36.34l3.65,3.64
			c0.17,0,0.34,0,0.52-0.01c0.64-0.05,1.37-0.25,2.07-0.6l-4.63-4.63c2.45-2.37,5.12-4.5,7.98-6.37c0.23-0.77,0.44-1.44,0.57-1.69
			c0.14-0.28,0.87-1.24,1.75-2.35c-4.35,2.41-8.35,5.38-11.9,8.81l-8.1-8.1c10.63-10.34,24.64-17.22,40.19-18.8
			c-0.05-0.28-0.09-0.49-0.09-0.49c-0.11-0.54-0.22-1.13-0.34-1.74c-35.06,3.66-62.48,33.38-62.48,69.38
			C31.13,122.35,62.42,153.64,100.89,153.64z M115.95,105.45l-0.01-0.06l0.02,0.05C115.96,105.44,115.96,105.44,115.95,105.45z
			 M149.73,37.33c11.41,11.96,18.47,28.09,18.66,45.85h-11.46c-0.11-8.79-2.25-17.1-5.98-24.48l0.1-0.21l0.79,0.42l0.19-0.61
			l-2.05-3.59l-2.42-3.36l-2.85-2.38c-0.98-1.22-2-2.4-3.07-3.54L149.73,37.33z M135.13,52.02l2.76,0.12l0.65,0.79l-0.33,1.17
			l3.82,2.38l0.75-0.09l4.9,5.6l2-0.7c3.1,6.67,4.88,14.08,4.98,21.89h-11.47c-0.05-2.99-0.42-5.91-1.06-8.72l0.52-0.71l0.71-3.59
			l-0.53-3.86l-1.38-4.44l-3.2-4.68l0.77,0.41l0.39-0.39l-2.56-1.74l-0.17,0.57l2.57,3.67l1.46,3.01l1.03,2.98l0.33,2.01l0.53,3.37
			l-0.96,0.07c0,0-1.11-2.06-1.45-2.92l0.51-0.76l-0.98-1.4v-1.4l-0.7-0.89l-0.87,0.11c-0.31-0.58-0.64-1.15-0.98-1.71l0.61,0.32
			l0.17-0.17l-0.33-0.72l0.75-0.42l-0.34-0.42l-1.11,0.42l0.4-1.74l-0.65-0.37l-0.59,1.39c-1.25-1.87-2.64-3.65-4.17-5.3
			L135.13,52.02z M132.83,78.89l2.05-1.12l2.1-0.33l0.46-1.02l1.17-0.7l0.45-0.98l0.36-1.69c0.17,0.6,0.32,1.2,0.46,1.81l-1.11,3.32
			l-0.05,1.12l1.62-2.15c0.33,1.97,0.53,3.98,0.57,6.03h-10.05l-0.23-0.87l1.17-0.93l0.23-0.56l0.51-0.37l1.35-0.14l0.14-0.61
			L132.83,78.89z M119.07,71.01l1.03-0.24l-0.05-0.25l-1.02-0.68l0.35-2.16l1.22-1.22c0.77,0.87,1.48,1.8,2.14,2.76l-0.43,1.33
			l-1.12-0.8l-0.85,0.23l0.42,0.79h0.42l-0.47,1.17l-0.33-0.46L119.07,71.01z M123.46,109.08l-2.48-0.71l-0.75,0.28l-1.4-1.07
			l-1.32-0.47c0.65-0.47,1.28-0.96,1.89-1.48l2.04,1.44l1.56,0.82l0.77,0.77L123.46,109.08z M122.2,64.85l8.11-8.11
			c1.9,2.06,3.58,4.32,5.02,6.74l-1.01,0.28l0.05,1.81l3.04,1.92c0.74,1.65,1.38,3.36,1.9,5.12l-0.53,0.78l-1.1,0.7l-0.28,1.68
			l-0.75,0.42l-0.62,0.74l-0.64-0.23l-1.12-0.05l0.65-0.88l0.46-2.29l0.75-0.47l-2.19-2.1l-1.63,0.56l-0.37,1.54l-1.03,1.12
			l-1.07-0.89l-0.38-0.94l0.61-0.38l0.34,0.62l0.5-0.18l-0.22-1.03l-0.72-0.04l-0.05,0.42l-0.47,0.1l-2.52-2.94l-0.85-0.66
			l0.32-0.35l0.77-0.27l-0.71-0.28c0,0-0.89,0.2-0.99,0.2l0.51,0.64l-1.28-0.02C123.96,66.97,123.12,65.88,122.2,64.85z
			 M126.33,108.01l-1.1-1.1l0.84-1.1l1.06-2.15l-0.41-0.61l0.71-1.59l-0.08-1.44l-0.42-1.49l-1-0.36l-0.37,0.84l-0.6-0.16
			c0.86-1.38,1.77-2.67,2.4-4.19l1.03-0.44l0.58-0.78l0.28,0.33l0.7-0.84l-0.56-0.7l0.51-0.14l0.93,0.37l1.77,0.05l1.07-0.56
			l2.8-0.75l-0.53-0.93l-0.18-1.13l1.5,0.66l0.56-0.33l-0.28-1.17l-1.84,0.69l-2.03-0.41l-1.54-3.16h8.77
			c-0.39,10.09-4.53,19.24-11.07,26.08l-1.21-1.21l0.52-1.61l-0.93-3.54L126.33,108.01z M127.88,130.38l1.08-2.31l-0.42-1.03
			l1.59-1.4v-0.84l-1.35-0.84l1.12-2.24l1.68-2.19l-1.68-1.82h-1.26l-0.78-1.26c0.68-0.56,1.34-1.13,1.98-1.73l8.11,8.11
			C134.9,125.71,131.53,128.25,127.88,130.38z M137.98,119.67l0.89-1l-0.84-4.43l-0.59-0.23l0.36-0.75l-1.91-0.61l-0.37,1.59
			l-0.19,2.01l-0.4,0.37l-3.49-3.49c6.95-7.25,11.34-16.96,11.73-27.68h11.48c-0.4,13.88-6.08,26.46-15.1,35.79L137.98,119.67z
			 M141.14,122.82c9.43-9.74,15.37-22.89,15.76-37.39h11.46c-0.4,17.66-7.62,33.67-19.13,45.49L141.14,122.82z M72.14,111.71
			c-0.83-0.86-1.62-1.75-2.38-2.68l0.35-2.9l-1.21-2.78l-0.29-4.35l-1.36-2.64l0.29-1.64l-1.64-3.14l-1.43-0.71l0.58-1.67l-0.6-1.32
			l0.59-1.51h1.57l0.55-0.92h2.68l0.42,0.79l-0.5,2.72l-0.33,0.47l1.01,2.19l-0.66,0.36l-0.46-0.58l-0.19,0.22l0.46,1.3l0.79,1.52
			l0.37-0.04l0.22-1.36l-0.38-0.5l-0.04-0.92l-0.11-1.9l0.56-3.36l-0.54-0.91h1.92c0.38,7.03,3.31,13.39,7.89,18.17L72.14,111.71z
			 M64.56,89.3L63.48,91h-1.86l-0.14-0.11c-0.32-1.78-0.52-3.6-0.59-5.45h3.46l-0.83,2.77L64.56,89.3z M68.33,81.43l0.21-2.28
			l1.36-0.79l2.43,0.43l0.37,0.44c-0.21,1.29-0.34,2.6-0.37,3.94h-2.75L68.33,81.43z M79.97,90l0.57-0.29l1.51,1.13l-0.65,0.53
			l1.68,1.12l-0.1-1.2l0.9-1.49l0.94,1l0.96,1.38l-1.74,0.39l0.79,1.57l1.21-0.64l-0.16-0.5l0.9-0.61l0.53-2.49
			c0.66,1.48,1.55,2.84,2.63,4.02l-8.1,8.1c-3.87-4.06-6.45-9.35-7.1-15.21l1.66,1.77l1.56-0.03L79.97,90z M71.66,56.54l8.1,8.1
			c-1.69,1.86-3.14,3.94-4.3,6.2l-0.57-0.04l-1.14,0.36l-0.39-0.04l-1.22,1.13l1.54-0.25l1.38-0.35c-0.08,0.18-0.16,0.35-0.24,0.53
			l-1.21,0.75h-0.57l-1.79,1.36l-1.71-0.14l-2.5,4.64l0.5,0.93l-1.36,1.5l-0.21,1.95h-5.12C61.04,72.89,65.11,63.55,71.66,56.54z
			 M61.19,117.69l2.57,1.5l0.53,0.36l-1.86,1.86c-0.88-0.9-1.71-1.83-2.52-2.79L61.19,117.69z M58.62,85.44
			c0.04,1.12,0.14,2.22,0.26,3.31l-1.4,0.32l-0.29,1.43l-2.93,3.71l0.07,5.11l-3,1l-1.64,0.01c-1.52-4.72-2.41-9.72-2.56-14.9H58.62
			z M47.3,100.26l-0.68-0.13l-0.64-0.71l-3.21-0.28l1,1.36l-2.98-0.57l0.78-0.72l-0.73-0.72l-2.15,0.93l-0.77,1.43l0.3,3.26
			l2.47,5.92l1.2,1.86l0.68,0.25l-1.88-3.55l-0.41-1.81l0.42-0.45l-0.26-1l1.12,0.15l1.73,2.62l0.43,0.18l-0.05-1.91l0.7,0.41
			l0.15,1.04l1.82,0.48l0.76-0.55l0.26,0.18l-0.03,1.39l0.8,0.99l0.97,0.22l2.13,3.6l1.29,0.36l0.4-1.68c2.24,3.7,4.9,7.12,7.9,10.2
			l-8.1,8.1c-11.61-11.84-18.91-27.93-19.32-45.69h11.47C45.02,90.58,45.86,95.55,47.3,100.26z M52.25,37.13l8.1,8.1
			c-9.44,9.9-15.3,23.25-15.49,37.94H33.4C33.59,65.32,40.73,49.11,52.25,37.13z M135.23,32.95l-0.7-1.12l-1.49-0.75l-1.17,0.89
			l1.49,0.79l1.68,1.21L135.23,32.95z M128.29,65.3l0.05,0.89l1.99-0.6l0.61-1.21l-1.37-1.8l0.73-1.1l1.86,1.32l0.34-0.27
			l-0.37-0.26l-0.42-0.79l0.76-0.44l-0.75-0.98l-1.73,0.88l-0.61,1.05l-0.35,0.95l0.77,1.29l-0.28,0.61L128.29,65.3z M45.39,116.72
			l0.14-0.52l-1.03-2.24l-1.22-0.46L45.39,116.72z M92.27,73.64c0,1.93,1.17,3.28,3.31,4.45c0,0-0.01-0.33-0.02-0.86l-1.34-1.34
			l0.71-1.29l0.58-0.16c-0.04-2.24-0.09-4.75-0.1-5.11l-0.1,0.01C93.34,70.43,92.27,71.75,92.27,73.64z"/>
		<g>
			<path class="st0" d="M105.07,123.32c3.59,1.82,6.92,4.33,8.3,9.1c0.61-7.89-3.82-11.32-8.21-13.63
				C105.17,118.81,105.07,123.33,105.07,123.32z"/>
			<path class="st0" d="M128.98,43.21c0-7.18-5.21-15.13-17.95-17.94c-0.94-0.21-2.38-0.35-3.89-0.45
				c-0.03,1.08-0.08,3.56-0.08,3.56c-0.02,0.78-0.08,3.65-0.09,4.27c1.18,0.1,2.04,0.25,2.45,0.34c7.41,1.77,10.06,6.02,10.06,10.22
				c0,6.81-5.83,9.37-12.98,11.31c-0.78,0.21-1.57,0.41-2.37,0.62c-2.17,0.54-4.41,1.06-6.61,1.66c-0.79,0.21-1.58,0.44-2.35,0.67
				l0,0c-7.93,2.42-14.75,6.24-14.75,16.04c0,9.71,7.78,13.33,15.37,15.67c-0.05-2.79-0.11-5.6-0.16-8.41
				c-3.35-1.57-5.72-3.64-5.72-7.12c0-3.4,2.15-5.45,5.44-6.94c0.73-0.33,1.51-0.63,2.34-0.91c1.89-0.65,4.02-1.19,6.24-1.73
				c0.78-0.19,1.57-0.38,2.37-0.57l0,0C117,60.89,128.98,57.54,128.98,43.21z"/>
			<path class="st0" d="M90.56,111.67c0.02,3.92,2.9,6.06,5.79,7.67c-0.01-0.66-0.12-6.73-0.13-6.83c0.06-1.21,1.24-1.94,2.18-2.38
				c1.39-0.66,2.8-1.13,4.59-1.75c0.85-0.3,1.59-0.59,2.41-0.83l0,0c5.8-1.75,12.51-3.98,12.51-11.03c0-7.07-5.75-9.96-12.04-12.13
				c-0.04,2.25-0.11,5.53-0.16,7.8c2.66,1.04,4.42,2.31,4.42,4.33c0,2.52-2.7,3.98-4.61,4.72c-0.79,0.31-2.01,0.71-2.34,0.82
				c-1.54,0.48-3.2,1.03-4.75,1.6c-0.82,0.3-1.61,0.64-2.35,1.02C93.36,106.06,90.55,108.09,90.56,111.67z"/>
			<path class="st0" d="M94.49,25.93c-3.86,1.1-6.13,2.56-6.99,2.85c-2.5,0.83-6.03,0.97-9.67,4.94c-0.65,0.71-2.23,2.69-3.35,4.32
				c-1.1,1.58-1.14,4.13-1.95,5.49c-1.17,1.98-0.89,3.11-0.89,3.11l0.03,0.06c-0.04,0.25-0.27,1.3-1.34,2.48
				c-1.22,1.35-2.82,2.1-4.73,1.79c1.66,0.83,3.95-0.33,3.95-0.33s-0.44,1.25-0.88,3.3c1.86-4.22,3.57-5.75,4.1-6.18
				c0.8,0.18,2.46,0.11,5.54-1.66c3.48-2,8.71-5.26,10.19-7.32c1.6-2.22,3.79-3.69,6.16-4.65C94.61,31.03,94.55,28.26,94.49,25.93z
				 M79.81,39.08l-1.79,0.39l2.15-3.51l2.52,0.08L79.81,39.08z"/>
		</g>
		<g>
			<path class="st0" d="M101.68,111.18c-0.33,0.12-1.21,0.49-1.76,0.68c-0.58,0.21-1.32,0.51-1.32,0.71
				c0,0.05,0.56,30.41,0.56,31.07c0,6.25,3.19,6.29,3.19,0c0-0.45,0.64-32.9,0.64-32.9S102.22,110.98,101.68,111.18z"/>
			<path class="st0" d="M98.38,101.16c0.99-0.35,1.98-0.65,2.9-0.93c0.69-0.21,1.33-0.41,1.93-0.61c0.04-1.91,0.58-28.33,0.68-33.13
				c-2.37,0.59-4.44,1.15-6.14,1.77C97.81,71.87,98.33,98.28,98.38,101.16z"/>
			<path class="st0" d="M101.03,0c-8.94,0-5.14,13.26-4.43,17.58c0.03,0.2,0.72,29.96,0.86,36.79c1.36-0.36,2.71-0.69,4.01-1.01
				c0.94-0.23,1.84-0.45,2.7-0.67c0.14-6.57,0.8-34.97,0.82-35.16C105.53,12.91,110.21,0,101.03,0z"/>
		</g>
	</g>
	<g>
		<g>
			<g>
				<path class="st0" d="M230.75,35.14c7.25,0,8.56,6.45,8.56,11.26c0,5.13-1.9,7.85-4.55,9.24v0.06c2.14,0.7,5.9,3.16,5.91,11.32
					c0,10.69-5.66,12.4-10.62,12.4l-13.19,0l-0.01-44.28L230.75,35.14z M223.38,52.6l6.02,0c2.62,0,3.25-2.85,3.25-4.56
					c0-1.83-0.63-4.3-3.53-4.3l-5.74,0L223.38,52.6z M223.39,70.82l6.77,0c1.15,0,3.6-0.95,3.6-5c0-4.18-2.06-5.06-4.44-5.06
					l-5.94,0L223.39,70.82z"/>
				<path class="st0" d="M264.83,67.27c-0.24,5-2.25,13.35-9.94,13.35c-6.58,0-10.74-6.07-10.74-17.2c0-7.66,2.13-17.34,11.09-17.34
					c6.89,0,9.04,6.77,9.39,12.65l-5.78,0c-0.44-5.19-2.06-6.2-3.85-6.2c-1.31,0-4.6,0.57-4.59,10.19c0,10.69,3.29,11.45,4.52,11.45
					c3.21,0,3.92-4.68,3.96-6.9H264.83z"/>
				<path class="st0" d="M289,70.1c-1.58,9.11-6.73,10.5-10.46,10.5c-2.66,0-10.82-0.95-10.82-17.33c0-11.13,4.71-17.21,11.28-17.21
					c9.79,0,10.31,13.91,10.39,17.83l0.04,1.77l-15.45,0c0.04,3.1,0.91,8.48,4.84,8.48c1.74,0,3.56-1.2,4.08-4.05H289z M283.17,60.3
					c-0.08-6.9-2.78-7.78-4.24-7.78c-0.79,0-4.36-0.12-4.95,7.78L283.17,60.3z"/>
				<path class="st0" d="M299.42,57.26h-0.12l0.12,1.65l0.01,20.5l-6.02,0l-0.01-32.14l8,0l5.48,22.58h0.04l5.46-22.59h8l0.01,32.14
					l-6.02,0l-0.01-20.5l0.12-1.64h-0.12l-5.46,22.14l-4,0L299.42,57.26z"/>
				<path class="st0" d="M339.63,47.25h6.38l0.01,32.14l-6.02,0l-0.01-20.87l-8.19,20.88l-6.42,0l-0.01-32.14l6.02,0l0.01,20.88
					L339.63,47.25z"/>
				<path class="st0" d="M356.67,47.24l-0.04,3.86h0.12c2.3-4.62,5.07-5.06,6.49-5.06c5.67,0,9.16,6.7,9.16,17.33
					c0.01,10.19-3.52,17.21-9.27,17.21c-0.79,0-4.08-0.32-6.1-4.49l0,14.99l-6.02,0L351,47.24L356.67,47.24z M361.47,74.13
					c3.45,0,4.67-5.32,4.67-10.88c0-8.98-2.89-10.75-4.68-10.75c-1.82,0-4.71,1.77-4.71,10.75
					C356.75,68.82,357.94,74.13,361.47,74.13z"/>
				<path class="st0" d="M382.39,79.37l-6.02,0l-0.01-32.14l6.02,0l0,12.08l7.25,0l0-12.08l6.02,0l0.01,32.14l-6.02,0l0-13.6
					l-7.25,0L382.39,79.37z"/>
				<path class="st0" d="M401.05,57.6c0.27-11.2,7.28-11.58,9.46-11.58c9.07-0.01,9.27,8.28,9.24,12.02l-0.11,14.68
					c-0.04,3.48,0.04,5.63,1.19,6.07v0.57l-6.34,0l-0.52-3.16h-0.12c-1.59,3.16-4.28,4.36-6.74,4.37c-6.42,0-7.01-6.64-7.02-9.3
					c0-7.34,3.84-9.11,7.49-10.06c4.44-1.08,6.02-0.44,6.14-3.61c0-0.32,0-0.57,0-0.89c-0.08-4.17-2.58-4.24-3.25-4.24
					c-1.07,0-3.68,0.38-3.68,5.13L401.05,57.6z M413.77,64.05c-1.82,1.27-1.63,1.08-3.96,1.71c-1.27,0.32-3.53,1.01-3.53,4.62
					c0,3.04,1.99,3.73,3.1,3.73c1.47,0,4.4-1.58,4.39-8.03V64.05z"/>
				<path class="st0" d="M430.89,79.36l-6.82,0l5.11-11.58c-4.44-1.14-5.43-6.07-5.43-10c0-10.63,6.22-10.56,7.45-10.57l11.77,0
					l0.01,32.14h-6.02l0-11.13h-2.06L430.89,79.36z M433.77,53.67c-1.39,0-3.76,0.38-3.76,4.05c0,3.04,1.51,4.05,3.65,4.05l3.29,0
					l0-8.1L433.77,53.67z"/>
			</g>
		</g>
		<path class="st0" d="M462.69,63.55c-0.03-12.65,5.34-17.22,10.97-17.24c6.3-0.02,11.03,5.48,11.06,17.18
			c0.03,11.83-4.71,17.35-10.97,17.36C467.49,80.87,462.72,75.38,462.69,63.55z M478.46,63.5c-0.03-10.25-3.28-10.75-4.78-10.74
			c-1.35,0-4.75,0.52-4.73,10.77c0.01,4.11,0.5,10.88,4.78,10.87C478.1,74.39,478.47,67.55,478.46,63.5z"/>
		<path class="st0" d="M493.95,47.29l-0.03,4.02h0.12c2.29-4.62,5.06-5.08,6.49-5.08c5.67-0.02,9.17,6.68,9.2,17.31
			c0.03,10.19-3.48,17.22-9.23,17.23c-0.79,0-4.08-0.3-6.11-4.47l0.04,14.99l-6.02,0.02l-0.12-44L493.95,47.29z M498.82,74.33
			c3.45-0.01,4.66-5.33,4.64-10.89c-0.02-8.98-2.92-10.75-4.7-10.74c-1.82,0.01-4.71,1.78-4.69,10.77
			C494.09,69.03,495.29,74.34,498.82,74.33z"/>
		<path class="st0" d="M519.39,79.52l-6.02,0.02l-0.08-32.16h15.33l0.02,6.43l-9.31,0.03L519.39,79.52z"/>
		<path class="st0" d="M531.66,57.73c0.25-11.2,7.26-11.6,9.44-11.6c9.07-0.02,9.29,8.26,9.26,12l-0.08,14.68
			c-0.03,3.48,0.06,5.63,1.2,6.07l0,0.57l-6.34,0.02l-0.52-3.16l-0.12,0c-1.58,3.17-4.27,4.37-6.72,4.38
			c-6.42,0.02-7.03-6.62-7.04-9.28c-0.02-7.34,3.82-9.12,7.46-10.08c4.44-1.09,6.02-0.46,6.13-3.62c0-0.31,0-0.57,0-0.88
			c-0.09-4.18-2.59-4.23-3.26-4.23c-1.07,0-3.69,0.39-3.67,5.13L531.66,57.73z M544.39,64.15c-1.82,1.27-1.62,1.08-3.96,1.72
			c-1.27,0.32-3.52,1.02-3.51,4.63c0.01,3.04,1.99,3.73,3.1,3.72c1.47,0,4.39-1.59,4.38-8.04L544.39,64.15z"/>
		<path class="st0" d="M561.04,79.41l-6.02,0.02l-0.08-32.14l6.02-0.02l0.03,12.08l7.25-0.02l-0.03-12.08l6.02-0.02l0.08,32.14
			l-6.02,0.02l-0.04-13.6L561,65.81L561.04,79.41z"/>
		<path class="st0" d="M593.13,47.33h6.38l0.08,31.97l-6.02,0.02l-0.05-20.88l-8.15,20.9l-6.42,0.02l-0.08-32.08h6.07l0.01,20.81
			L593.13,47.33z"/>
		<path class="st0" d="M608.35,68.53c0.12,2.21,0.81,5.5,4.21,5.49c1.94-0.01,4.16-0.96,4.15-4.12c0-1.96-0.53-4.18-3.62-4.17
			l-2.34,0.01l-0.02-6.01l2.5,0c1.66,0,3.05-0.96,3.04-3.42c-0.01-3.03-1.95-3.92-3.89-3.91c-1.03,0-3.52,0.45-3.59,5.07l-5.55,0.02
			c-0.11-10.5,6.19-11.53,9.6-11.54c3.29-0.01,9.59,0.54,9.62,9.27c0.01,3.8-1.29,5.95-3.86,7.03v0.19c3.29,1,4.29,4.23,4.3,7.89
			c0.02,7.72-4.09,10.14-10.08,10.15c-5.62,0.01-9.91-3.01-10.17-11.93L608.35,68.53z"/>
		<path class="st0" d="M626.75,57.47c0.25-11.2,7.26-11.6,9.44-11.6c9.07-0.02,9.29,8.26,9.26,11.99l-0.08,14.68
			c-0.03,3.48,0.05,5.63,1.2,6.07v0.57l-6.34,0.02l-0.52-3.16l-0.12,0c-1.58,3.17-4.27,4.38-6.72,4.38
			c-6.42,0.02-7.03-6.62-7.04-9.28c-0.02-7.34,3.82-9.12,7.46-10.08c4.43-1.09,6.02-0.46,6.13-3.62c0-0.32,0-0.57,0-0.89
			c-0.09-4.17-2.59-4.23-3.26-4.23c-1.07,0-3.68,0.39-3.67,5.13L626.75,57.47z M639.49,63.89c-1.82,1.27-1.62,1.08-3.96,1.72
			c-1.27,0.32-3.52,1.02-3.51,4.63c0.01,3.04,1.99,3.73,3.1,3.72c1.47,0,4.39-1.59,4.38-8.05L639.49,63.89z"/>
		<path class="st0" d="M663.64,72.68l-0.07-25.36l6.02-0.02l0.07,25.36l3.29-0.01l-0.32,14.8l-5.11,0.01l-0.02-8.35l-17.39,0.05
			l-0.08-31.92l6.02-0.02l0.07,25.47L663.64,72.68z"/>
		<path class="st0" d="M689.6,47.35h6.38l0.09,31.7l-6.02,0.02l-0.06-20.88l-8.15,20.9l-6.42,0.02l-0.08-31.82h6.02l0.06,20.55
			L689.6,47.35z"/>
		<path class="st0" d="M706.88,79.02l-6.82,0.02l5.08-11.59c-4.44-1.13-5.46-6.06-5.46-9.98c0-9.32,6.29-10.18,7.52-10.18
			l11.67,0.11l0.08,31.6L712.95,79l-0.03-11.13l-2.06,0.01L706.88,79.02z M709.71,53.33c-1.39,0-3.76,0.39-3.75,4.06
			c0.01,3.04,1.52,4.04,3.65,4.04l3.29-0.01l-0.02-8.1L709.71,53.33z"/>
	</g>
	<g>
		<path class="st0" d="M220.67,127.66c0.13,2.21,0.81,5.5,4.21,5.49c1.94,0,4.16-0.96,4.15-4.12c-0.01-1.96-0.53-4.17-3.62-4.17
			l-2.34,0.01l-0.01-6.01l2.5-0.01c1.66,0,3.04-0.96,3.04-3.42c-0.01-3.04-1.95-3.92-3.89-3.91c-1.03,0-3.52,0.45-3.59,5.07
			l-5.55,0.01c-0.1-10.5,6.2-11.53,9.61-11.54c3.29-0.01,9.59,0.54,9.61,9.28c0.01,3.79-1.29,5.95-3.86,7.03v0.19
			c3.29,1,4.29,4.23,4.3,7.9c0.02,7.72-4.1,10.13-10.08,10.15c-5.63,0.02-9.91-3.01-10.17-11.93L220.67,127.66z"/>
		<path class="st0" d="M238.95,131.91c2.09-5.07,3.1-11.21,3.08-19.75l-0.02-5.95l17.24-0.05l0.07,25.69l3.33-0.01l-0.28,14.81
			l-5.15,0.01l-0.02-8.35l-15.41,0.04l0.02,8.35l-5.15,0.01l-0.36-14.8L238.95,131.91z M247.58,112.65l0.01,3.35
			c0.02,7.59-1.27,12.66-2.37,15.89l8.08-0.02l-0.05-19.23L247.58,112.65z"/>
		<path class="st0" d="M292.08,116.53c0.25-11.2,7.26-11.6,9.44-11.6c9.07-0.03,9.29,8.26,9.26,12l-0.09,14.67
			c-0.03,3.48,0.06,5.63,1.21,6.07l0,0.57l-6.34,0.02l-0.52-3.16l-0.12,0c-1.58,3.16-4.27,4.38-6.72,4.38
			c-6.42,0.02-7.03-6.62-7.04-9.28c-0.02-7.34,3.82-9.12,7.46-10.08c4.44-1.09,6.02-0.46,6.13-3.62c0-0.32,0-0.57,0-0.88
			c-0.09-4.18-2.59-4.23-3.26-4.23c-1.07,0-3.68,0.39-3.67,5.13L292.08,116.53z M304.81,122.94c-1.82,1.27-1.62,1.08-3.95,1.72
			c-1.27,0.32-3.52,1.02-3.52,4.63c0.01,3.04,1.99,3.73,3.1,3.72c1.47,0,4.4-1.59,4.38-8.04L304.81,122.94z"/>
		<path class="st0" d="M327.36,106.05c1.86,0,6.62-0.01,6.64,7.76c0.01,4.37-1.88,6.96-4.06,7.54v0.19c3.33,1.13,4.8,3.34,4.81,8.4
			c0.02,6.58-2.99,8.23-7.35,8.24l-11.96,0.03l-0.09-32.14L327.36,106.05z M321.41,118.66l3.13-0.01c0.99,0,3.29-0.07,3.28-2.98
			c-0.01-2.66-1.48-3.16-3.18-3.16l-3.25,0.01L321.41,118.66z M321.44,131.76l3.76-0.01c2.97-0.01,3.37-1.91,3.36-3.3
			c-0.01-2.15-0.61-3.79-3.46-3.79l-3.69,0.01L321.44,131.76z"/>
		<path class="st0" d="M337.26,122.03c-0.03-12.65,5.34-17.22,10.97-17.24c6.3-0.02,11.03,5.47,11.06,17.18
			c0.04,11.83-4.71,17.35-10.97,17.36C342.07,139.36,337.29,133.86,337.26,122.03z M353.03,121.99
			c-0.03-10.25-3.27-10.75-4.78-10.74c-1.35,0.01-4.75,0.52-4.73,10.77c0.01,4.11,0.5,10.88,4.78,10.87
			C352.67,132.88,353.04,126.04,353.03,121.99z"/>
		<path class="st0" d="M361.95,121.97c-0.03-12.65,5.35-17.22,10.97-17.24c6.3-0.02,11.03,5.48,11.06,17.18
			c0.03,11.83-4.71,17.35-10.96,17.36C366.75,139.29,361.98,133.8,361.95,121.97z M377.72,121.93c-0.02-10.25-3.27-10.74-4.78-10.74
			c-1.35,0-4.75,0.52-4.73,10.77c0.01,4.11,0.5,10.88,4.78,10.87C377.35,132.81,377.73,125.97,377.72,121.93z"/>
		<path class="st0" d="M399.86,105.86l6.93-0.02l-7.09,15.52l7.54,16.62l-6.93,0.02l-4.11-10.49l-4.05,10.51l-6.93,0.02l7.49-16.66
			l-7.21-15.48l6.97-0.02l3.71,9.99L399.86,105.86z"/>
		<path class="st0" d="M414.88,105.82l-0.03,3.86h0.12c2.29-4.62,5.06-5.08,6.49-5.08c5.66-0.02,9.17,6.68,9.19,17.31
			c0.03,10.19-3.47,17.22-9.22,17.24c-0.79,0-4.08-0.31-6.11-4.48l0.04,14.99l-6.03,0.02l-0.11-43.84L414.88,105.82z M419.74,132.69
			c3.45-0.01,4.66-5.33,4.65-10.89c-0.03-8.98-2.92-10.75-4.71-10.74c-1.82,0.01-4.71,1.78-4.68,10.77
			C415.01,127.39,416.22,132.7,419.74,132.69z"/>
		<path class="st0" d="M272.66,105.82l-0.03,3.86h0.12c2.29-4.62,5.06-5.08,6.48-5.08c5.67-0.02,9.17,6.68,9.2,17.31
			c0.03,10.19-3.48,17.22-9.22,17.24c-0.79,0-4.08-0.31-6.11-4.48l0.04,14.99l-6.02,0.02L267,105.84L272.66,105.82z M277.53,132.69
			c3.45-0.01,4.67-5.33,4.65-10.89c-0.03-8.98-2.92-10.75-4.7-10.74c-1.82,0.01-4.71,1.78-4.69,10.77
			C272.8,127.39,274,132.7,277.53,132.69z"/>
		<path class="st0" d="M434.64,116.14c0.25-11.2,7.26-11.6,9.44-11.6c9.07-0.03,9.29,8.26,9.26,11.99l-0.08,14.68
			c-0.03,3.48,0.05,5.63,1.2,6.07l0,0.57l-6.34,0.01l-0.52-3.16h-0.12c-1.57,3.17-4.26,4.38-6.72,4.38
			c-6.42,0.02-7.03-6.62-7.04-9.28c-0.02-7.34,3.82-9.12,7.46-10.08c4.43-1.09,6.02-0.46,6.13-3.62c0-0.32,0-0.57,0-0.89
			c-0.09-4.18-2.59-4.23-3.26-4.23c-1.07,0-3.68,0.39-3.67,5.13L434.64,116.14z M447.37,122.56c-1.82,1.27-1.62,1.08-3.96,1.72
			c-1.27,0.32-3.52,1.02-3.51,4.63c0.01,3.04,1.99,3.73,3.1,3.73c1.47-0.01,4.39-1.6,4.38-8.05L447.37,122.56z"/>
		<path class="st0" d="M464.02,137.82l-6.02,0.02l-0.09-32.14l6.02-0.02l0.03,12.08l7.25-0.02l-0.03-12.08l6.02-0.01l0.09,32.14
			l-6.02,0.02l-0.04-13.6l-7.25,0.02L464.02,137.82z"/>
		<path class="st0" d="M502.23,128.42c-1.57,9.11-6.71,10.52-10.44,10.53c-2.65,0.01-10.82-0.92-10.86-17.3
			c-0.03-11.13,4.67-17.22,11.25-17.24c9.79-0.03,10.34,13.89,10.43,17.81l0.04,1.77l-15.45,0.04c0.05,3.1,0.93,8.47,4.86,8.47
			c1.74-0.01,3.56-1.21,4.07-4.06L502.23,128.42z M496.38,118.63c-0.1-6.89-2.8-7.77-4.26-7.77c-0.79,0-4.36-0.11-4.93,7.8
			L496.38,118.63z"/>
		<path class="st0" d="M512.31,137.69l-6.02,0.01l-0.09-32.14l6.02-0.02l0.03,12.08l7.25-0.02l-0.03-12.08l6.02-0.02l0.08,32.14
			l-6.02,0.01l-0.04-13.6l-7.25,0.02L512.31,137.69z"/>
		<path class="st0" d="M544.4,105.47l6.37-0.02l0.09,32.14l-6.03,0.01l-0.05-20.88l-8.15,20.9l-6.42,0.02l-0.08-32.14l6.02-0.01
			l0.06,20.87L544.4,105.47z"/>
		<path class="st0" d="M561.68,137.56l-6.82,0.02l5.08-11.59c-4.44-1.13-5.45-6.06-5.46-9.98c-0.03-10.63,6.19-10.58,7.42-10.58
			l11.77-0.03l0.08,32.14l-6.02,0.02l-0.03-11.13l-2.06,0.01L561.68,137.56z M564.51,111.87c-1.39,0-3.76,0.39-3.75,4.06
			c0.01,3.04,1.51,4.04,3.65,4.04l3.29-0.01l-0.02-8.1L564.51,111.87z"/>
	</g>
</g>
</svg>
