<?xml version="1.0" encoding="utf-8"?>
<!-- Generator: Adobe Illustrator 24.1.0, SVG Export Plug-In . SVG Version: 6.00 Build 0)  -->
<svg version="1.1" id="Layer_1" xmlns="http://www.w3.org/2000/svg" xmlns:xlink="http://www.w3.org/1999/xlink" x="0px" y="0px"
	 viewBox="0 0 489 142.7" style="enable-background:new 0 0 489 142.7;" xml:space="preserve">
<style type="text/css">
	.st0{fill:#0093D5;}
</style>
<g id="Layer_1_1_">
</g>
<g id="Layer_2_1_">
	<g>
		<g>
			<path class="st0" d="M197.4,52.6c-0.2,0.2-0.4,0.4-0.5,0.5l-1,1l-1.1,1.1c-0.8,0.7-1.5,1.1-2.2,1.1c-0.8,0-2-0.2-3.6-0.5
				s-2.5-0.6-2.9-0.9c-0.7-0.4-1-1.1-1-2c0-2.1,1.1-4.3,3.3-6.8c2.2-2.4,4.6-4.1,7.3-5l-0.5-2.9l3.3-4.4l2.4,15.5l0.1,0.9
				c0.2,1.3,0.6,2.1,1.1,2.5s1.8,0.5,3.6,0.5c1,0,1.5,0.3,1.5,1v5.6c0,0.6-0.9,1-2.6,1c-1.9,0-3.3-0.4-4.2-1.1s-1.7-2-2.2-3.8
				l-0.5-2.1C197.7,53.6,197.6,53.2,197.4,52.6z M192.7,30.6c-2.1-1.8-3.9-3.1-5.6-4.1c1.4-1.9,2.7-3.7,3.8-5.7
				c1.6,1.5,2.9,2.6,3.9,3.2c0.8-1,1.8-2.3,2.8-4c1.4,1.3,3.2,2.7,5.4,4c-0.9,1.1-1.7,2.5-2.6,4.2c-0.2,0.4-0.5,1-0.9,1.7l-0.9-0.8
				c-1.3-1.1-2.4-2-3.3-2.6C194.3,27.9,193.4,29.2,192.7,30.6z M190.2,48.7c0,0.1,0.2,0.2,0.4,0.3l2.2,0.4c1.1,0.2,2.1,0.3,3,0.3
				c0.5,0,0.8-0.1,0.9-0.4c0.1-0.3,0.2-0.9,0.2-1.7c0-1.9-0.3-2.9-0.9-2.9c-0.5,0-1.3,0.3-2.3,0.8c-1,0.5-1.8,1.1-2.3,1.7l-1,1
				C190.2,48.5,190.1,48.6,190.2,48.7z"/>
			<path class="st0" d="M203.2,59.8v-5.4c0-0.7,0.6-1.1,1.9-1.1h1.1c2.1,0,3.7-0.3,4.8-0.8c1.1-0.5,2.1-1.5,3-2.8
				c2.7-4.1,4.8-6.1,6.2-6.1c0.9,0,2.1,0.7,3.5,2.2c2.9,3.1,5,5.1,6.4,6.1c1.3,1,2.7,1.4,4.1,1.4h2.8c1,0,1.5,0.3,1.5,1v5.6
				c0,0.7-0.9,1-2.6,1c-2.3,0-4.4-0.7-6.2-2c-0.9-0.6-1.5-1-1.7-1c-0.3,0-0.6,0.7-0.8,2.1c-0.3,1.9-1.1,2.9-2.3,2.9
				c-1,0-3.1-1.2-6.3-3.6l-2.6-2c-1.2-0.9-2.1-1.4-2.5-1.4c-0.3,0-0.6,0.2-0.9,0.6l-1,1.1c-1.1,1.3-2,2.1-2.9,2.5
				c-0.8,0.4-1.9,0.6-3.2,0.6C203.9,60.9,203.2,60.5,203.2,59.8z M222.7,54.7c0.6,0,0.9-0.4,0.9-1.3c0-1.4-0.3-2.6-1-3.8
				s-1.4-1.8-2.1-1.8c-0.5,0-1.1,0.4-2,1.2c-0.8,0.8-1.2,1.5-1.2,1.9c0,0.4,0.8,1.2,2.3,2.2C221,54.1,222.1,54.7,222.7,54.7z"/>
			<path class="st0" d="M266.1,53.3h6c1,0,1.5,0.3,1.5,1v5.6c0,0.7-1.1,1-3.2,1c-2.5,0-6.5-0.2-11.9-0.5c-3-0.2-5-0.3-6.1-0.3
				c-1.5,0-2.6,0-3.5,0.1l-4.7,0.5c-1.8,0.2-4,0.3-6.5,0.3c-2.1,0-3.2-0.4-3.2-1.1v-5.4c0-0.7,0.5-1.1,1.4-1.1l2.1-0.1
				c1.9,0,3.5-0.5,4.7-1.6c1.2-1.1,1.9-3.4,1.9-7v-0.8c0-6-1.1-13.5-3.4-22.5c1.9-1,3.3-2.7,4.3-5c0.9,2.1,2.2,4,3.9,5.8
				c-1.6,1.4-2.5,3.1-2.5,5c0,0.5,0.1,1,0.2,1.7l0.5,3c0.5,2.5,0.7,5.5,0.7,8.9c0,0.2,0,1.4-0.1,3.5c0,1-0.1,1.6-0.1,1.8l0.7-0.6
				c5.9-4.8,10.4-7.1,13.3-7.1c1.9,0,3.5,0.7,4.8,2.1c1.3,1.4,2,3,2,5C269,47.8,268,50.5,266.1,53.3z M265,47.9
				c-1.7-1.9-3.7-2.8-6-2.8c-3.6,0-7.3,2-11.1,5.9c-1.1,1.2-1.7,1.9-1.7,2.3c0,0.2,0.2,0.4,0.6,0.4c2.8,0,5.9-0.6,9.6-1.7
				C259.9,50.8,262.8,49.4,265,47.9z M262.9,27.2c-1.5,1.7-2.8,3.6-3.9,5.6c-1.9-1.8-3.8-3.1-5.7-4c1.2-1.4,2.5-3.2,4-5.5
				C258.8,24.6,260.7,25.9,262.9,27.2z"/>
			<path class="st0" d="M269.5,59.8v-5.4c0-0.7,0.5-1.1,1.4-1.1h3.5c2.1,0,4-1.2,5.9-3.7c0.5-0.6,0.8-1,1.1-1c0.3,0,0.5,0.2,0.6,0.7
				l0.5,1.7c0.2,0.9,0.5,1.5,0.9,1.8s0.9,0.5,1.7,0.5h2.7c1,0,1.5,0.3,1.5,1v5.6c0,0.2-0.2,0.5-0.7,0.7c-0.5,0.2-1,0.3-1.6,0.3
				c-3,0-4.9-1.1-5.9-3.3c-0.3-0.7-0.6-1-0.8-1c-0.3,0-0.6,0.3-1,0.8c-1,1.3-2,2.2-3,2.8c-1,0.5-2.4,0.8-4,0.8c-0.2,0-0.4,0-0.5,0
				C270.2,60.8,269.5,60.4,269.5,59.8z M283.1,35.7c-1.5,1.7-2.8,3.6-3.9,5.6c-1.9-1.7-3.8-3.1-5.6-4c1.2-1.4,2.5-3.3,4-5.5
				C279.1,33.1,280.9,34.4,283.1,35.7z"/>
			<path class="st0" d="M308.7,54.5c-0.2,0.2-0.4,0.4-0.5,0.5l-1.1,1.1c-1.5,1.4-2.6,2.1-3.4,2.1c-0.7,0-2.2-0.7-4.7-2
				c-1.4-0.8-2.5-1.2-3-1.2c-0.6,0-1.3,0.6-2,1.7c-1.1,1.8-2.1,2.9-3,3.4s-2.3,0.8-4.2,0.8c-1.2,0-1.9-0.4-1.9-1.1v-5.4
				c0-0.7,0.5-1.1,1.4-1.1c0.2,0,0.6,0,1.1,0c2.5,0,4.2-0.3,5.1-0.9c1-0.6,2-2.1,3.2-4.4c1.5-3,2.7-5,3.8-6c1-1,2.2-1.6,3.5-1.6
				c1.8,0,3,1,3.7,2.9C307.8,45.2,308.4,48.9,308.7,54.5z M305,50.8c0-1.1-0.4-2.2-1.3-3.4c-0.9-1.1-1.7-1.7-2.6-1.7
				c-0.5,0-1,0.3-1.6,1c-0.6,0.7-0.8,1.3-0.8,2c0,0.7,0.6,1.3,1.7,2s2.2,1,3.4,1C304.5,51.7,305,51.4,305,50.8z"/>
			<path class="st0" d="M12.3,107.3c-0.2,0.2-0.4,0.4-0.5,0.5l-1,1l-1.1,1.1c-0.8,0.7-1.5,1.1-2.2,1.1c-0.8,0-2-0.2-3.6-0.5
				s-2.5-0.6-2.9-0.9c-0.7-0.4-1-1.1-1-2c0-2.1,1.1-4.3,3.3-6.8c2.2-2.4,4.6-4.1,7.3-5l-0.5-2.9l3.3-4.4l2.4,15.5l0.1,0.9
				c0.2,1.3,0.6,2.1,1.1,2.5s1.8,0.5,3.6,0.5c1,0,1.5,0.3,1.5,1v5.6c0,0.6-0.9,1-2.6,1c-1.8,0-3.3-0.4-4.2-1.1s-1.7-2-2.2-3.8
				l-0.6-2.1C12.6,108.2,12.5,107.8,12.3,107.3z M7.6,85.3c-2.1-1.8-4-3.1-5.6-4.1c1.4-1.9,2.7-3.7,3.8-5.7c1.6,1.5,2.9,2.6,3.9,3.2
				c0.8-1,1.8-2.3,2.8-4c1.4,1.3,3.2,2.7,5.3,4c-0.8,1.1-1.7,2.5-2.6,4.2c-0.2,0.4-0.5,1-0.9,1.7l-0.9-0.8c-1.3-1.1-2.4-2-3.3-2.6
				C9.2,82.5,8.3,83.9,7.6,85.3z M5.1,103.4c0,0.1,0.2,0.2,0.4,0.3l2.2,0.4c1.1,0.2,2.1,0.3,3,0.3c0.5,0,0.8-0.1,0.9-0.4
				s0.2-0.9,0.2-1.7c0-1.9-0.3-2.9-0.9-2.9c-0.5,0-1.3,0.3-2.3,0.8c-1,0.5-1.8,1.1-2.3,1.7l-1,1C5.1,103.1,5,103.3,5.1,103.4z"/>
			<path class="st0" d="M18.1,114.4V109c0-0.7,0.5-1.1,1.4-1.1h3.5c2.1,0,4.1-1.2,5.9-3.7c0.5-0.6,0.8-1,1.1-1
				c0.3,0,0.5,0.2,0.6,0.7l0.4,1.7c0.2,0.9,0.5,1.5,0.9,1.8s0.9,0.5,1.7,0.5h2.7c1,0,1.5,0.3,1.5,1v5.6c0,0.2-0.2,0.5-0.7,0.7
				c-0.5,0.2-1,0.3-1.6,0.3c-2.9,0-4.9-1.1-5.9-3.3c-0.3-0.7-0.6-1-0.8-1c-0.3,0-0.6,0.3-1,0.8c-1,1.3-2,2.2-3,2.8
				c-1,0.5-2.4,0.8-4.1,0.8c-0.2,0-0.3,0-0.5,0C18.8,115.4,18.1,115.1,18.1,114.4z M25.6,130.2c-1.8-1.5-3.4-2.8-5-3.8
				c1.1-1.3,2.3-3,3.5-5c1,1.2,2.2,2.1,3.5,2.9c1-1.2,1.8-2.4,2.5-3.6c1.7,1.6,3.3,2.8,4.8,3.7c-1.1,1.4-2.1,3.1-3.2,5.2
				c-1.3-1.3-2.6-2.2-3.7-3C27.1,127.6,26.4,128.8,25.6,130.2z"/>
			<path class="st0" d="M33.7,114.4V109c0-0.7,0.6-1.1,1.9-1.1h1.1c2.1,0,3.7-0.3,4.8-0.8c1.1-0.5,2.1-1.5,3-2.8
				c2.7-4.1,4.8-6.1,6.2-6.1c0.9,0,2.1,0.7,3.5,2.2c2.9,3.1,5,5.1,6.3,6.1c1.3,1,2.7,1.4,4.1,1.4h2.8c1,0,1.5,0.3,1.5,1v5.6
				c0,0.7-0.9,1-2.6,1c-2.3,0-4.4-0.7-6.2-2c-0.9-0.6-1.5-1-1.7-1c-0.3,0-0.6,0.7-0.8,2.1c-0.3,1.9-1.1,2.9-2.3,2.9
				c-1,0-3.1-1.2-6.3-3.6l-2.6-2c-1.2-0.9-2.1-1.4-2.5-1.4c-0.3,0-0.6,0.2-0.9,0.6l-1,1.1c-1.1,1.3-2,2.1-2.9,2.5
				c-0.8,0.4-1.9,0.6-3.2,0.6C34.4,115.5,33.7,115.1,33.7,114.4z M53.2,109.3c0.6,0,0.9-0.4,0.9-1.3c0-1.4-0.3-2.6-1-3.8
				c-0.7-1.2-1.4-1.8-2.1-1.8c-0.5,0-1.1,0.4-2,1.2c-0.8,0.8-1.2,1.5-1.2,1.9c0,0.4,0.8,1.2,2.3,2.2
				C51.5,108.8,52.6,109.3,53.2,109.3z"/>
			<path class="st0" d="M71.8,75.3c0.4-0.5,0.7-0.9,0.9-1.1c1.1-1.3,2-2.4,2.6-3.3c1.3,2.8,2.8,4.9,4.4,6.4
				c-1.4,1.3-2.1,2.8-2.1,4.5c0,0.8,0.1,1.7,0.3,2.7l0.6,3.1c1.2,6.7,1.9,11.8,1.9,15.3c0,3.5-1,7-3,10.5c-2.1,1.4-5.6,2.1-10.5,2.1
				c-1.3,0-2-0.4-2-1.1V109c0-0.7,0.5-1.1,1.4-1.1h4.4c3.5,0,5.2-1.5,5.2-4.5c0-0.7-0.1-1.6-0.3-2.6l-0.7-4.5
				c-0.7-4.6-1.2-8.2-1.4-10.7l-0.3-3.8C72.9,79,72.4,76.9,71.8,75.3z"/>
			<path class="st0" d="M85.7,78.4l4.7-5.4l2.1,28.8c0.2,2.3,0.8,3.9,1.8,4.8s2.8,1.3,5.3,1.3h0.4c0.7,0,1.1,0.3,1.1,1v5.6
				c0,0.2-0.2,0.4-0.7,0.6c-0.4,0.2-0.9,0.3-1.3,0.3c-0.9,0.1-2.1,0.1-3.7-0.2c-1.6-0.3-2.7-0.6-3.4-1.1c-1.1-0.6-1.9-1.6-2.4-2.9
				s-0.9-3.5-1.1-6.5l-0.8-8.8C87.4,91.9,86.7,86,85.7,78.4z"/>
			<path class="st0" d="M109,106c-1-0.8-2.6-1.5-4.8-2c0.5-2.5,1.6-4.5,3.3-5.9c1.7-1.5,3.8-2.2,6.3-2.2c2.1,0,3.8,0.5,5.3,1.5
				c1.4,1,2.1,2.2,2.1,3.6c0,1.7-1.3,3.1-3.9,4.3c0.7,1,1.8,1.7,3.2,2.1c1.4,0.4,3.5,0.6,6.4,0.6h0.4c0.7,0,1.1,0.3,1.1,1v5.6
				c0,0.2-0.2,0.4-0.7,0.6c-0.4,0.2-0.9,0.3-1.3,0.3c-1.8,0.3-3.4,0.1-4.9-0.5c-1.5-0.6-3.3-1.9-5.5-3.9c-1.2-1-2-1.6-2.5-1.6
				c-0.5,0-1.2,0.3-2.1,0.8c-3.4,2.3-5.9,3.8-7.6,4.5s-3.3,0.9-4.9,0.7c-1.4,0-2-0.4-2-1.1V109c0-0.7,0.5-1.1,1.4-1.1
				c0.3-0.1,1.6-0.1,3.7-0.1C105.5,107.8,107.8,107.2,109,106z"/>
			<path class="st0" d="M131.2,75.3c0.4-0.5,0.7-0.9,0.9-1.1c1.1-1.3,2-2.4,2.6-3.3c1.3,2.8,2.8,4.9,4.4,6.4
				c-1.4,1.3-2.1,2.8-2.1,4.5c0,0.8,0.1,1.7,0.3,2.7l0.6,3.1c1.2,6.7,1.9,11.8,1.9,15.3c0,3.5-1,7-3,10.5c-2.1,1.4-5.6,2.1-10.5,2.1
				c-1.3,0-2-0.4-2-1.1V109c0-0.7,0.5-1.1,1.4-1.1h4.4c3.5,0,5.2-1.5,5.2-4.5c0-0.7-0.1-1.6-0.3-2.6l-0.7-4.5
				c-0.7-4.6-1.2-8.2-1.4-10.7l-0.3-3.8C132.3,79,131.9,76.9,131.2,75.3z"/>
			<path class="st0" d="M145.1,80.1l5.1-6l0,2.1c0,3.9,0.1,7.5,0.3,10.7l0.4,4.6l0.3,4.4l0.4,4.9c0.1,1.2,0.1,2.2,0.1,3.1
				c0,3.2-0.5,6.1-1.5,8.8c-0.9,2.2-1.7,3.3-2.5,3.3c-0.2,0-0.4-0.3-0.4-0.9c0-0.2,0-0.5,0-0.8c0.2-1.2,0.2-2.7,0.2-4.3
				c0-1.4-0.1-3.1-0.3-5.2c-0.2-1.9-0.3-3.5-0.5-4.7l-0.3-3.4l-0.6-5.5C145.4,86.3,145.1,82.6,145.1,80.1z"/>
			<path class="st0" d="M181.2,107.3c-0.2,0.2-0.4,0.4-0.5,0.5l-1,1l-1.1,1.1c-0.8,0.7-1.5,1.1-2.2,1.1c-0.8,0-2-0.2-3.6-0.5
				s-2.5-0.6-2.9-0.9c-0.7-0.4-1-1.1-1-2c0-2.1,1.1-4.3,3.3-6.8c2.2-2.4,4.6-4.1,7.3-5l-0.5-2.9l3.3-4.4l2.4,15.5l0.1,0.9
				c0.2,1.3,0.6,2.1,1.1,2.5s1.8,0.5,3.6,0.5c1,0,1.5,0.3,1.5,1v5.6c0,0.6-0.9,1-2.6,1c-1.9,0-3.3-0.4-4.2-1.1c-1-0.8-1.7-2-2.2-3.8
				l-0.5-2.1C181.4,108.2,181.3,107.8,181.2,107.3z M176.4,85.3c-2.1-1.8-4-3.1-5.6-4.1c1.4-1.9,2.7-3.7,3.8-5.7
				c1.6,1.5,2.9,2.6,3.9,3.2c0.8-1,1.8-2.3,2.8-4c1.4,1.3,3.2,2.7,5.4,4c-0.9,1.1-1.7,2.5-2.6,4.2c-0.2,0.4-0.5,1-0.9,1.7l-0.9-0.8
				c-1.3-1.1-2.4-2-3.3-2.6C178.1,82.5,177.2,83.9,176.4,85.3z M173.9,103.4c0,0.1,0.2,0.2,0.4,0.3l2.2,0.4c1.1,0.2,2.1,0.3,3,0.3
				c0.5,0,0.8-0.1,0.9-0.4c0.2-0.3,0.2-0.9,0.2-1.7c0-1.9-0.3-2.9-0.9-2.9c-0.5,0-1.3,0.3-2.3,0.8c-1,0.5-1.8,1.1-2.3,1.7l-1,1
				C174,103.1,173.9,103.3,173.9,103.4z"/>
			<path class="st0" d="M192.2,107.9c1.8-0.1,3.8-0.5,6-1.3l3-1l3-1.1c0.9-0.3,2.1-0.7,3.6-1.2c-3.6-1.8-6.9-2.8-9.8-2.8
				c-1.7,0-3.2,0.2-4.5,0.7l-1.1,0.4c-0.2,0.1-0.4,0.1-0.6,0.1c-0.4,0-0.5-0.2-0.5-0.5c0-0.5,0.5-1.6,1.6-3.4
				c1.7-2.8,3.8-4.1,6.2-4.1c1.3,0,3,0.4,5.1,1.3l3.4,1.4c4.7,2,9.6,3,14.8,3c1.4,0,3.1-0.1,5.1-0.2l1.1-0.1l-2.4,6.9h-6
				c0,1.3,0.7,2,2,2h10c1,0,1.5,0.3,1.5,1v5.6c0,0.2-0.2,0.4-0.7,0.6c-0.5,0.2-0.9,0.3-1.3,0.3h-9.8c-1.9,0-3.4-0.5-4.5-1.4
				c-1.1-0.9-1.7-2.1-1.7-3.6c0-1.4,0.4-2.7,1.2-4l0.3-0.5l-0.8,0.1c-5.1,0.6-10.1,2.3-14.9,5l-2.5,1.4c-2,1.1-3.7,1.9-5.1,2.3
				c-1.5,0.4-3.2,0.6-5.1,0.6c-1.4,0-2.1-0.4-2.1-1.1V109c0-0.7,0.5-1.1,1.4-1.1L192.2,107.9L192.2,107.9z"/>
			<path class="st0" d="M249.5,115.5c-3.1,0-5.4-0.9-6.9-2.7l-1.3-1.5c-0.2-0.2-0.4-0.4-0.6-0.4c-0.2,0-0.7,0.5-1.4,1.5
				c-1.6,2-4,3-7.2,3c-1.4,0-2.1-0.4-2.1-1.1V109c0-0.7,0.5-1.1,1.4-1.1l2,0c3.8,0,6.5-1.3,8-3.8c0.3-0.5,0.6-0.8,0.8-0.8
				c0.3,0,0.5,0.2,0.6,0.7l0.5,1.5c0.5,1.6,1.9,2.4,4.3,2.4h5.1c3.8-4.8,7.4-8.5,11-11.2c3.5-2.7,6.6-4,9.1-4c2,0,3.7,0.7,5.1,2.1
				c1.4,1.4,2.1,3.1,2.1,5.1c0,1.2-0.3,2.7-1,4.4c-0.7,1.7-1.4,3-2.2,3.7c-0.1,0.1-0.2,0.2-0.2,0.2l0,0.1c0,0,0.1,0,0.1,0
				c0.2,0,0.4,0,0.8-0.1c0.1,0,0.4-0.1,0.8-0.1l0.8-0.1l0.9-0.1l0.8-0.1c0.3,0,0.8,0,1.5,0h1c1,0,1.5,0.3,1.5,1v5.6
				c0,0.7-1.2,1-3.6,1c-3.6,0-8.4-0.2-14.4-0.8c-0.9-0.1-1.6-0.1-1.9-0.1c-0.2,0-1.1,0-2.5,0.1l-3.1,0.1l-4.6,0.5
				c-0.3,0-1,0.1-2.1,0.1l-0.1,0.2l-0.9,2l-0.7,1.4c-0.4,0.9-0.9,1.4-1.3,1.4c-0.7,0-1-0.5-1-1.3
				C248.5,118.1,248.9,116.9,249.5,115.5z M256.7,108.2c3.6,0,7.3-0.6,11-1.7c2-0.6,3.8-1.4,5.6-2.2c1.8-0.9,2.7-1.5,2.7-1.9
				c0-0.5-0.7-1.1-2.1-1.8c-1.4-0.6-2.8-1-4-1c-2.2,0-4.5,0.8-6.9,2.4C260.6,103.6,258.5,105.7,256.7,108.2z"/>
			<path class="st0" d="M287.5,75.3c0.4-0.5,0.7-0.9,0.9-1.1c1.1-1.3,2-2.4,2.6-3.3c1.3,2.8,2.8,4.9,4.4,6.4
				c-1.4,1.3-2.1,2.8-2.1,4.5c0,0.8,0.1,1.7,0.3,2.7l0.6,3.1c1.2,6.7,1.9,11.8,1.9,15.3c0,3.5-1,7-3,10.5c-2.1,1.4-5.6,2.1-10.5,2.1
				c-1.3,0-2-0.4-2-1.1V109c0-0.7,0.5-1.1,1.4-1.1h4.4c3.5,0,5.2-1.5,5.2-4.5c0-0.7-0.1-1.6-0.3-2.6l-0.7-4.5
				c-0.7-4.6-1.2-8.2-1.4-10.7l-0.3-3.8C288.6,79,288.2,76.9,287.5,75.3z"/>
			<path class="st0" d="M301.4,80.1l5.1-6l0,2.1c0,3.9,0.1,7.5,0.3,10.7l0.4,4.6l0.3,4.4l0.4,4.9c0.1,1.2,0.1,2.2,0.1,3.1
				c0,3.2-0.5,6.1-1.5,8.8c-0.9,2.2-1.7,3.3-2.5,3.3c-0.2,0-0.4-0.3-0.4-0.9c0-0.2,0-0.5,0-0.8c0.2-1.2,0.2-2.7,0.2-4.3
				c0-1.4-0.1-3.1-0.3-5.2c-0.2-1.9-0.3-3.5-0.5-4.7l-0.3-3.4l-0.6-5.5C301.7,86.3,301.4,82.6,301.4,80.1z"/>
		</g>
		<g>
			<path class="st0" d="M458.8,26.1c3.1,3.7,8.5,5.9,11.7,9.6c-2.3-10.9-10.7-19.9-20.7-22C454.7,17.4,455.7,22.4,458.8,26.1z
				 M338.9,53.8c6.9-15,17.1-11.8,21.5-26c-2.5,4.4-13.6,6.2-18.9,17.4c2.6-6.7,1.3-16.8,5.8-22.3C333.9,32.8,339.6,48.8,338.9,53.8
				z M351.3,89.7c1.2,5.8-2.4,14.2,3.4,22.3c-6-6.7-18.6-8.4-23.8-18.5c6.4,24.8,23.2,19.7,30.8,25.1
				C355.5,109.6,360.6,103.6,351.3,89.7z M349.4,105.3c-3.7-13.9,2.9-18.7-2.1-32c-0.5,7.5-5.5,11.2-2.1,24.9
				c-6-11.6-15.2-16-17.8-23.9C327.5,96.1,345,99.3,349.4,105.3z M376.3,128.6c-5.1-7.1-1.6-11.2-16.1-24.1
				c3.1,4.7-0.1,10.7,9.7,19.9c-9.6-5.6-22.8-3.2-29.1-10.8C351.7,134.5,370.9,126,376.3,128.6z M446.4,124.4
				c9.8-9.2,6.6-15.2,9.7-19.9c-14.5,13-11,17-16.1,24.1c5.4-2.6,24.6,5.9,35.6-15C469.2,121.2,456,118.8,446.4,124.4z M461.6,112
				c5.8-8,2.1-16.4,3.4-22.3c-9.3,14-4.2,19.9-10.4,28.8c7.6-5.4,24.4-0.3,30.8-25.1C480.2,103.6,467.5,105.3,461.6,112z
				 M438.4,129.6c-5.7-1.5-11.5-2.3-15.8-2.4c-5.4-0.1-10.3,0.9-14.5,2.5c-4.2-1.6-9-2.6-14.5-2.5c-4.3,0.1-10.2,0.9-15.8,2.4
				c-8.7,2.3-16.2,4.1-22.8,0.8c6.3,5.6,13.6,7.6,24.2,6.4c8.8-1,16-5.4,24.3-5.3c0.1,0,0.2,0,0.3,0c-8.8,4.4-13.7,10.7-13.7,10.7
				l4,0.5c0,0,4.2-8.5,14-10.7c9.7,2.2,14,10.7,14,10.7l4-0.5c0,0-5-6.2-13.7-10.7c0.1,0,0.2,0,0.3,0c8.3-0.1,15.5,4.4,24.3,5.3
				c10.6,1.1,18-0.9,24.2-6.4C454.7,133.7,447.1,131.9,438.4,129.6z M347.9,58.2c-3.6,6.9-9.2,8.5-8.6,22.7
				c-3-12.6-10.2-17.4-10.1-25.4c-5,21.1,8.4,23.6,11.8,32.4C340.5,75.3,348.6,72.7,347.9,58.2z M352.9,42c-1.2,1.8-2.1,2.5-5.5,5.2
				c-4.5,3.8-8.2,8.7-9.7,15.9c0.4-7.7-4.4-18.8-1.2-26.9c-12.3,17.4,0.7,27.8,1.2,34C340.8,58.1,348.1,58,352.9,42z M478.6,63.1
				c-1.5-7.2-5.2-12.1-9.7-15.9c-3.3-2.8-4.2-3.5-5.5-5.2c4.8,16,12.1,16.1,15.3,28.2c0.5-6.3,13.5-16.7,1.2-34
				C483,44.2,478.2,55.3,478.6,63.1z M489,74.3c-2.7,8-11.9,12.3-17.8,23.9c3.4-13.7-1.6-17.4-2.2-24.9c-5,13.3,1.6,18.1-2.1,32
				C471.3,99.3,488.8,96.1,489,74.3z M468.4,58.2c-0.7,14.5,7.4,17,6.9,29.7c3.4-8.8,16.8-11.3,11.8-32.4
				c0.1,8.1-7.1,12.8-10.1,25.4C477.6,66.7,472,65.1,468.4,58.2z M357.5,26.1c3.1-3.7,4.1-8.8,9-12.4c-10,2.1-18.4,11.1-20.7,22
				C349,32,354.4,29.8,357.5,26.1z M455.9,27.8c4.3,14.2,14.6,11.1,21.5,26c-0.7-5,5-21-8.4-31c4.5,5.5,3.2,15.7,5.8,22.3
				C469.6,34,458.4,32.2,455.9,27.8z M421.1,35.9c-2.6-1.1-5.3-1.8-8.2-2.2c0,0.6,0,1.2,0,1.8c2.6,0.4,5.2,1.1,7.5,2.1
				C420.7,37.1,421,36.5,421.1,35.9z M419,18.2l0.5-0.5l-1-0.4l-2.8,0l-0.7,0.5l-1.6-0.1l0,0.4c1,0.1,2,0.2,2.8,0.3l1.3-0.1
				L419,18.2z M413.7,77.4c0-0.5-0.6-0.9-1.5-1.4H412c0,0.4,0,2.2-0.1,3.1C413.1,78.7,413.7,78.1,413.7,77.4z M381.9,42.5
				c0.1-0.4,0.1-0.7,0.2-1c-0.3,0.1-0.7,0.1-1.1,0.1L381.9,42.5z M408.2,123.2c30.9,0,56-25.1,56-56c0-28.9-22.1-52.8-50.3-55.7
				c0,0.1,0,0.2-0.1,0.3c-0.1,0.5-0.2,1-0.3,1.5c12.6,1.2,24,6.8,32.6,15.2l-6.2,6.2l0.2-1.1l-0.8-0.4l-1.1-0.1l0.2-0.7l-0.8-2.5
				l-1.5-1.7l-4.8-2.5l-0.4,0.4l-0.9,0.2c1.7,2.4,2.5,5.3,2.5,8.1c0,0.4,0,0.7,0,1.1l2.4,3l-1.1,0.3l0.7,1.1l-2.1,2.1l-0.9-1.6
				c-0.4,1.1-0.9,2.2-1.6,3.1c0.2,0.1,0.3,0.3,0.5,0.4l-6.5,6.5c-0.4-0.4-0.8-0.7-1.2-1.1c-0.6,0.3-1.3,0.6-1.9,0.8
				c0.2,0.1,0.4,0.3,0.5,0.4l-0.3,0.3l-0.8,0.4l-0.3,0.8l-0.5-0.5l-1.4,0.5l0.4,0.6l1-0.2l0.6,0l0-0.3l0.5-0.2l0.1-0.3l0.9-0.2
				l0.7,0c0.1,0.1,0.3,0.2,0.4,0.4l-2.6,2.6l-0.2-0.3l-2.7,0.5l-0.6,0.6l-0.6,0.1l1.7-1.6l-0.6-0.3l-1.6,2.1l0.5,0l0,0.8l0.6,0.2
				l0.1,0.8l-0.9-0.2l-1,0.2l-2.4-1.2c0,0-0.1,6.4-0.2,9.5c5.6,1.9,11.5,4.6,11.5,11.7c0,3.1-1.4,5.7-4,7.5l0,0c0,0-0.1,0-0.1,0.1
				l0,0c-0.1,0-0.1,0.1-0.2,0.1c-2.3,1.5-5.2,2.3-7.7,3.1c0,0-0.1,5-0.1,5c4,2,8.9,4.9,8.4,13.2c-0.1,2-0.9,2.6-1.5,2.8l0,0
				c-2.3,0.6-4.8,1-7.2,1.1c0,0.6,0,1.3,0,1.8c10.8-0.7,20.5-5.3,27.9-12.3l6.5,6.5c-9.7,9.4-23,15.1-37.5,15.1
				c-14.5,0-27.6-5.7-37.3-15l6.5-6.5c7.3,6.9,16.9,11.4,27.5,12.2c0-0.6,0-1.2,0-1.8c-10.1-0.8-19.2-5.1-26.2-11.6l1.7-1.7l2.4,0.3
				l1.3-1.4l3.3,0.1l0.5-1.1l-0.1-0.5c4.8,3.6,10.6,6,16.9,6.7c0-0.7,0-1.3,0-1.8c-7-0.8-13.3-3.8-18.2-8.3l6.5-6.5
				c1.6,1.4,3.4,2.6,5.3,3.5c0.1-0.6,0.4-1.2,0.6-1.7c-1.7-0.8-3.2-1.9-4.6-3.1l6.5-6.5c1,0.8,2.2,1.5,3.5,1.9c0-0.6,0-1.3,0-2
				c-0.8-0.3-1.5-0.8-2.1-1.3l1.8-1.8c-0.6-0.2-1.3-0.4-2-0.6l-1.2,1.2c-0.6-0.7-1.1-1.5-1.6-2.3c-1.1-0.5-2.2-1.1-3.2-1.7
				c-4-2.6-6-6.4-6-11c0-3.6,1-6.3,2.6-8.4l-6.5-6.5c4.7-4.5,10.7-7.5,17.4-8.5c0-0.6,0-1.2,0-1.8c-7.2,1-13.6,4.3-18.6,9.1
				l-1.1-1.1c-0.2,0.4-0.5,1-0.9,1.7l0.7,0.7c-5.6,5.9-9,13.9-9.2,22.6h-9.2c0.1-11.3,4.6-21.5,11.9-29.1l2.9,2.9c0.1,0,0.3,0,0.4,0
				c0.5,0,1.1-0.2,1.7-0.5l-3.7-3.7c2-1.9,4.1-3.6,6.4-5.1c0.2-0.6,0.4-1.2,0.5-1.4c0.1-0.2,0.7-1,1.4-1.9c-3.5,1.9-6.7,4.3-9.5,7.1
				l-6.5-6.5c8.5-8.3,19.8-13.8,32.2-15.1c0-0.2-0.1-0.4-0.1-0.4c-0.1-0.4-0.2-0.9-0.3-1.4c-28.1,2.9-50.1,26.8-50.1,55.6
				C352.3,98.1,377.4,123.2,408.2,123.2z M420.3,84.6L420.3,84.6L420.3,84.6C420.3,84.6,420.3,84.6,420.3,84.6z M447.4,29.9
				c9.1,9.6,14.8,22.5,15,36.8h-9.2c-0.1-7-1.8-13.7-4.8-19.6l0.1-0.2l0.6,0.3l0.1-0.5l-1.6-2.9l-1.9-2.7l-2.3-1.9
				c-0.8-1-1.6-1.9-2.5-2.8L447.4,29.9z M435.7,41.7l2.2,0.1l0.5,0.6l-0.3,0.9l3.1,1.9l0.6-0.1l3.9,4.5l1.6-0.6
				c2.5,5.4,3.9,11.3,4,17.5h-9.2c0-2.4-0.3-4.7-0.9-7l0.4-0.6l0.6-2.9l-0.4-3.1l-1.1-3.6l-2.6-3.8l0.6,0.3l0.3-0.3l-2.1-1.4
				l-0.1,0.5l2.1,2.9l1.2,2.4l0.8,2.4l0.3,1.6l0.4,2.7l-0.8,0.1c0,0-0.9-1.6-1.2-2.3l0.4-0.6l-0.8-1.1v-1.1l-0.6-0.7l-0.7,0.1
				c-0.2-0.5-0.5-0.9-0.8-1.4l0.5,0.2l0.1-0.1l-0.3-0.6l0.6-0.3l-0.3-0.3l-0.9,0.3l0.3-1.4l-0.5-0.3l-0.5,1.1
				c-1-1.5-2.1-2.9-3.3-4.2L435.7,41.7z M433.8,63.3l1.6-0.9l1.7-0.3l0.4-0.8l0.9-0.6l0.4-0.8l0.3-1.4c0.1,0.5,0.3,1,0.4,1.5
				l-0.9,2.7l0,0.9l1.3-1.7c0.3,1.6,0.4,3.2,0.5,4.8h-8.1l-0.2-0.7l0.9-0.8l0.2-0.5l0.4-0.3l1.1-0.1l0.1-0.5L433.8,63.3z
				 M422.8,56.9l0.8-0.2l0-0.2l-0.8-0.5l0.3-1.7l1-1c0.6,0.7,1.2,1.4,1.7,2.2l-0.4,1.1l-0.9-0.6l-0.7,0.2l0.3,0.6h0.3l-0.4,0.9
				l-0.3-0.4L422.8,56.9z M426.3,87.5l-2-0.6l-0.6,0.2l-1.1-0.9l-1.1-0.4c0.5-0.4,1-0.8,1.5-1.2l1.6,1.1l1.2,0.7l0.6,0.6L426.3,87.5
				z M425.3,52l6.5-6.5c1.5,1.6,2.9,3.5,4,5.4l-0.8,0.2l0,1.5l2.4,1.5c0.6,1.3,1.1,2.7,1.5,4.1l-0.4,0.6l-0.9,0.6l-0.2,1.4l-0.6,0.3
				l-0.5,0.6l-0.5-0.2l-0.9,0l0.5-0.7l0.4-1.8l0.6-0.4l-1.8-1.7l-1.3,0.5l-0.3,1.2l-0.8,0.9l-0.9-0.7l-0.3-0.8l0.5-0.3l0.3,0.5
				l0.4-0.1l-0.2-0.8l-0.6,0l0,0.3l-0.4,0.1l-2-2.4l-0.7-0.5l0.3-0.3l0.6-0.2l-0.6-0.2c0,0-0.7,0.2-0.8,0.2l0.4,0.5l-1,0
				C426.7,53.7,426,52.8,425.3,52z M428.6,86.6l-0.9-0.9l0.7-0.9l0.9-1.7l-0.3-0.5l0.6-1.3l-0.1-1.2l-0.3-1.2l-0.8-0.3l-0.3,0.7
				l-0.5-0.1c0.7-1.1,1.4-2.1,1.9-3.4l0.8-0.4l0.5-0.6l0.2,0.3l0.6-0.7L431,74l0.4-0.1l0.8,0.3l1.4,0l0.9-0.5l2.2-0.6l-0.4-0.8
				l-0.1-0.9l1.2,0.5l0.5-0.3l-0.2-0.9l-1.5,0.5l-1.6-0.3l-1.2-2.5h7c-0.3,8.1-3.6,15.4-8.9,20.9l-1-1l0.4-1.3l-0.8-2.8L428.6,86.6z
				 M429.8,104.6l0.9-1.9l-0.3-0.8l1.3-1.1v-0.7l-1.1-0.7l0.9-1.8l1.4-1.8l-1.4-1.5h-1l-0.6-1c0.5-0.5,1.1-0.9,1.6-1.4l6.5,6.5
				C435.5,100.8,432.8,102.9,429.8,104.6z M437.9,96l0.7-0.8l-0.7-3.5l-0.5-0.2l0.3-0.6l-1.5-0.5l-0.3,1.3l-0.1,1.6l-0.3,0.3
				l-2.8-2.8c5.6-5.8,9.1-13.6,9.4-22.2h9.2c-0.3,11.1-4.9,21.2-12.1,28.7L437.9,96z M440.5,98.5c7.6-7.8,12.3-18.4,12.6-30h9.2
				c-0.3,14.2-6.1,27-15.3,36.5L440.5,98.5z M385.1,89.6c-0.7-0.7-1.3-1.4-1.9-2.1l0.3-2.3l-1-2.2l-0.2-3.5l-1.1-2.1l0.2-1.3
				l-1.3-2.5l-1.1-0.6l0.5-1.3l-0.5-1.1l0.5-1.2h1.3l0.4-0.7h2.1l0.3,0.6l-0.4,2.2l-0.3,0.4l0.8,1.8l-0.5,0.3l-0.4-0.5l-0.1,0.2
				l0.4,1l0.6,1.2l0.3,0l0.2-1.1l-0.3-0.4l0-0.7l-0.1-1.5l0.5-2.7l-0.4-0.7h1.5c0.3,5.6,2.7,10.7,6.3,14.6L385.1,89.6z M379.1,71.6
				l-0.9,1.4h-1.5l-0.1-0.1c-0.2-1.4-0.4-2.9-0.5-4.4h2.8l-0.7,2.2L379.1,71.6z M382.1,65.3l0.2-1.8l1.1-0.6l2,0.3l0.3,0.4
				c-0.2,1-0.3,2.1-0.3,3.2h-2.2L382.1,65.3z M391.4,72.2l0.5-0.2l1.2,0.9l-0.5,0.4l1.4,0.9l-0.1-1l0.7-1.2l0.8,0.8l0.8,1.1
				l-1.4,0.3l0.6,1.3l1-0.5l-0.1-0.4l0.7-0.5l0.4-2c0.5,1.2,1.2,2.3,2.1,3.2l-6.5,6.5c-3.1-3.3-5.2-7.5-5.7-12.2l1.3,1.4l1.2,0
				L391.4,72.2z M384.8,45.4l6.5,6.5c-1.4,1.5-2.5,3.2-3.5,5l-0.5,0l-0.9,0.3l-0.3,0l-1,0.9l1.2-0.2l1.1-0.3
				c-0.1,0.1-0.1,0.3-0.2,0.4l-1,0.6h-0.5l-1.4,1.1l-1.4-0.1l-2,3.7l0.4,0.8l-1.1,1.2l-0.2,1.6h-4.1C376.2,58.4,379.5,51,384.8,45.4
				z M376.4,94.4l2.1,1.2l0.4,0.3l-1.5,1.5c-0.7-0.7-1.4-1.5-2-2.2L376.4,94.4z M374.3,68.5c0,0.9,0.1,1.8,0.2,2.7l-1.1,0.3
				l-0.2,1.1l-2.4,3l0.1,4.1l-2.4,0.8l-1.3,0c-1.2-3.8-1.9-7.8-2-12L374.3,68.5L374.3,68.5z M365.2,80.4l-0.5-0.1l-0.5-0.6l-2.6-0.2
				l0.8,1.1l-2.4-0.5l0.6-0.6l-0.6-0.6l-1.7,0.8l-0.6,1.1l0.2,2.6l2,4.8l1,1.5l0.5,0.2l-1.5-2.9l-0.3-1.5l0.3-0.4l-0.2-0.8l0.9,0.1
				l1.4,2.1l0.4,0.1l0-1.5l0.6,0.3l0.1,0.8l1.5,0.4l0.6-0.4l0.2,0.1l0,1.1l0.6,0.8l0.8,0.2l1.7,2.9l1,0.3l0.3-1.4
				c1.8,3,3.9,5.7,6.3,8.2l-6.5,6.5c-9.3-9.5-15.2-22.4-15.5-36.6h9.2C363.4,72.6,364.1,76.6,365.2,80.4z M369.2,29.8l6.5,6.5
				c-7.6,7.9-12.3,18.6-12.4,30.4h-9.2C354.2,52.4,360,39.4,369.2,29.8z M435.8,26.4l-0.6-0.9l-1.2-0.6l-0.9,0.7l1.2,0.6l1.4,1
				L435.8,26.4z M430.2,52.4l0,0.7l1.6-0.5l0.5-1l-1.1-1.4l0.6-0.9l1.5,1.1l0.3-0.2l-0.3-0.2l-0.3-0.6l0.6-0.4l-0.6-0.8l-1.4,0.7
				l-0.5,0.8l-0.3,0.8l0.6,1l-0.2,0.5L430.2,52.4z M363.7,93.6l0.1-0.4l-0.8-1.8l-1-0.4L363.7,93.6z M401.3,59
				c0,1.5,0.9,2.6,2.6,3.6c0,0,0-0.3,0-0.7l-1.1-1.1l0.6-1l0.5-0.1c0-1.8-0.1-3.8-0.1-4.1l-0.1,0C402.1,56.5,401.3,57.5,401.3,59z"
				/>
			<g>
				<path class="st0" d="M411.6,98.9c2.9,1.5,5.5,3.5,6.7,7.3c0.5-6.3-3.1-9.1-6.6-10.9C411.6,95.3,411.6,98.9,411.6,98.9z"/>
				<path class="st0" d="M430.7,34.6c0-5.8-4.2-12.1-14.4-14.4c-0.8-0.2-1.9-0.3-3.1-0.4c0,0.9-0.1,2.9-0.1,2.9
					c0,0.6-0.1,2.9-0.1,3.4c0.9,0.1,1.6,0.2,2,0.3c5.9,1.4,8.1,4.8,8.1,8.2c0,5.5-4.7,7.5-10.4,9.1c-0.6,0.2-1.3,0.3-1.9,0.5
					c-1.7,0.4-3.5,0.9-5.3,1.3c-0.6,0.2-1.3,0.4-1.9,0.5l0,0c-6.4,1.9-11.8,5-11.8,12.9c0,7.8,6.2,10.7,12.3,12.6
					c0-2.2-0.1-4.5-0.1-6.8c-2.7-1.3-4.6-2.9-4.6-5.7c0-2.7,1.7-4.4,4.4-5.6c0.6-0.3,1.2-0.5,1.9-0.7c1.5-0.5,3.2-1,5-1.4
					c0.6-0.1,1.3-0.3,1.9-0.5l0,0C421.1,48.8,430.7,46.1,430.7,34.6z"/>
				<path class="st0" d="M399.9,89.5c0,3.1,2.3,4.9,4.6,6.1c0-0.5-0.1-5.4-0.1-5.5c0-1,1-1.5,1.8-1.9c1.1-0.5,2.2-0.9,3.7-1.4
					c0.7-0.2,1.3-0.5,1.9-0.7l0,0c4.6-1.4,10-3.2,10-8.9c0-5.7-4.6-8-9.7-9.7c0,1.8-0.1,4.4-0.1,6.3c2.1,0.8,3.5,1.9,3.5,3.5
					c0,2-2.2,3.2-3.7,3.8c-0.6,0.2-1.6,0.6-1.9,0.7c-1.2,0.4-2.6,0.8-3.8,1.3c-0.6,0.2-1.3,0.5-1.9,0.8
					C402.2,85,399.9,86.7,399.9,89.5z"/>
				<path class="st0" d="M403.1,20.8c-3.1,0.9-4.9,2-5.6,2.3c-2,0.7-4.8,0.8-7.8,4c-0.5,0.6-1.8,2.2-2.7,3.5
					c-0.9,1.3-0.9,3.3-1.6,4.4c-0.9,1.6-0.7,2.5-0.7,2.5l0,0c0,0.2-0.2,1-1.1,2c-1,1.1-2.3,1.7-3.8,1.4c1.3,0.7,3.2-0.3,3.2-0.3
					s-0.4,1-0.7,2.6c1.5-3.4,2.9-4.6,3.3-5c0.6,0.1,2,0.1,4.4-1.3c2.8-1.6,7-4.2,8.2-5.9c1.3-1.8,3-3,4.9-3.7
					C403.2,24.9,403.1,22.7,403.1,20.8z M390.9,31.8l-1.4,0.3l2.1-3.3l2,0.1L390.9,31.8z"/>
			</g>
			<g>
				<path class="st0" d="M408.8,89.2c-0.3,0.1-1,0.4-1.4,0.5c-0.5,0.2-1.1,0.4-1.1,0.6c0,0,0.5,24.4,0.5,24.9c0,5,2.6,5,2.6,0
					c0-0.4,0.5-26.4,0.5-26.4S409.3,89,408.8,89.2z"/>
				<path class="st0" d="M406.2,81.1c0.8-0.3,1.6-0.5,2.3-0.8c0.5-0.2,1.1-0.3,1.5-0.5c0-1.5,0.5-22.7,0.5-26.6
					c-1.9,0.5-3.6,0.9-4.9,1.4C405.7,57.6,406.1,78.8,406.2,81.1z"/>
				<path class="st0" d="M408.3,0c-7.2,0-4.1,10.6-3.6,14.1c0,0.2,0.6,24,0.7,29.5c1.1-0.3,2.2-0.5,3.2-0.8c0.8-0.2,1.5-0.4,2.2-0.5
					c0.1-5.3,0.6-28,0.6-28.2C411.9,10.4,415.7,0,408.3,0z"/>
			</g>
		</g>
	</g>
</g>
</svg>
