<?xml version="1.0" encoding="utf-8"?>
<!-- Generator: Adobe Illustrator 24.1.0, SVG Export Plug-In . SVG Version: 6.00 Build 0)  -->
<svg version="1.1" id="FRENCH" xmlns="http://www.w3.org/2000/svg" xmlns:xlink="http://www.w3.org/1999/xlink" x="0px" y="0px"
	 viewBox="0 0 440 269.03" style="enable-background:new 0 0 440 269.03;" xml:space="preserve">
<style type="text/css">
	.st0{fill:#0093D5;}
</style>
<g>
	<g>
		<path class="st0" d="M275.38,28.55c3.38,4.03,9.29,6.41,12.76,10.44c-2.48-11.94-11.7-21.7-22.6-24.02
			C270.84,18.97,271.99,24.52,275.38,28.55z M144.35,58.83c7.5-16.34,18.71-12.88,23.46-28.45c-2.68,4.78-14.92,6.79-20.6,19.03
			c2.9-7.28,1.45-18.4,6.35-24.41C138.89,35.82,145.14,53.33,144.35,58.83z M157.95,98.02c1.35,6.37-2.61,15.55,3.68,24.32
			c-6.52-7.31-20.31-9.16-25.96-20.27c7.04,27.15,25.37,21.56,33.64,27.46C162.51,119.75,168.07,113.26,157.95,98.02z
			 M155.83,115.06c-4.06-15.18,3.15-20.41-2.33-34.97c-0.57,8.2-6.04,12.2-2.35,27.2c-6.51-12.71-16.58-17.43-19.5-26.15
			C131.86,104.96,151,108.49,155.83,115.06z M185.22,140.5c-5.63-7.8-1.79-12.21-17.62-26.37c3.35,5.17-0.1,11.68,10.57,21.79
			c-10.44-6.16-24.85-3.53-31.8-11.76C158.31,146.99,179.28,137.66,185.22,140.5z M261.83,135.92
			c10.67-10.11,7.22-16.61,10.57-21.79c-15.83,14.16-11.98,18.57-17.62,26.37c5.94-2.84,26.91,6.49,38.84-16.34
			C286.68,132.39,272.27,129.76,261.83,135.92z M278.38,122.34c6.29-8.78,2.33-17.96,3.68-24.32
			c-10.13,15.24-4.56,21.74-11.37,31.51c8.28-5.9,26.6-0.31,33.64-27.46C298.69,113.18,284.9,115.04,278.38,122.34z M253.09,141.58
			c-6.19-1.65-12.56-2.47-17.31-2.59c-5.92-0.15-11.2,0.97-15.79,2.68c-4.58-1.71-9.87-2.83-15.78-2.68
			c-4.75,0.12-11.12,0.94-17.31,2.59c-9.52,2.54-17.75,4.5-24.92,0.87c6.87,6.1,14.9,8.28,26.49,7.03
			c9.65-1.04,17.44-5.86,26.54-5.8c0.12,0,0.24,0.01,0.36,0.01c-9.59,4.84-15,11.66-15,11.66l4.39,0.59c0,0,4.62-9.29,15.24-11.7
			c10.62,2.41,15.24,11.7,15.24,11.7l4.39-0.59c0,0-5.41-6.82-15-11.66c0.12,0,0.24-0.01,0.36-0.01c9.1-0.06,16.89,4.76,26.54,5.8
			c11.59,1.25,19.62-0.93,26.49-7.03C270.84,146.08,262.61,144.12,253.09,141.58z M154.15,63.65c-3.93,7.53-10.03,9.26-9.38,24.81
			c-3.29-13.82-11.16-18.96-11.05-27.79c-5.48,23.04,9.14,25.78,12.9,35.43C146.06,82.26,154.9,79.47,154.15,63.65z M159.64,45.85
			c-1.37,1.91-2.33,2.73-5.97,5.73c-4.97,4.1-8.94,9.48-10.61,17.33c0.38-8.45-4.84-20.59-1.37-29.44
			c-13.44,18.97,0.76,30.34,1.27,37.21C146.43,63.46,154.43,63.35,159.64,45.85z M296.95,68.91c-1.67-7.85-5.64-13.23-10.61-17.33
			c-3.64-3-4.61-3.81-5.97-5.73c5.2,17.5,13.21,17.6,16.69,30.83c0.5-6.87,14.71-18.23,1.27-37.21
			C301.79,48.32,296.57,60.46,296.95,68.91z M308.35,81.14c-2.92,8.71-12.99,13.44-19.5,26.15c3.69-15-1.78-19-2.35-27.2
			c-5.48,14.57,1.73,19.8-2.32,34.97C289.01,108.49,308.14,104.96,308.35,81.14z M285.85,63.65c-0.75,15.83,8.09,18.61,7.54,32.45
			c3.75-9.66,18.37-12.39,12.9-35.43c0.1,8.83-7.76,13.97-11.05,27.79C295.88,72.9,289.78,71.18,285.85,63.65z M164.62,28.55
			c3.38-4.03,4.53-9.58,9.85-13.58c-10.9,2.32-20.12,12.08-22.6,24.02C155.33,34.96,161.24,32.58,164.62,28.55z M272.2,30.37
			c4.74,15.57,15.95,12.11,23.46,28.45c-0.79-5.49,5.46-23.01-9.21-33.83c4.91,6.01,3.45,17.13,6.35,24.41
			C287.12,37.16,274.88,35.15,272.2,30.37z M234.15,39.22c-2.82-1.17-5.81-2-8.93-2.43c-0.01,0.66-0.03,1.33-0.04,2
			c2.88,0.42,5.64,1.19,8.24,2.27C233.76,40.5,234.01,39.9,234.15,39.22z M231.87,19.95l0.6-0.54l-1.14-0.48l-3-0.06l-0.78,0.54
			l-1.77-0.15l-0.02,0.43c1.12,0.07,2.22,0.18,3.09,0.33l1.46-0.13L231.87,19.95z M226.1,84.56c0-0.51-0.67-1.01-1.67-1.48l-0.18,0
			c-0.01,0.41-0.05,2.44-0.07,3.43C225.41,85.96,226.1,85.37,226.1,84.56z M191.38,46.48c0.07-0.41,0.15-0.74,0.25-1.1
			c-0.37,0.09-0.8,0.14-1.23,0.13L191.38,46.48z M220.07,134.64c33.71,0,61.13-27.43,61.13-61.14c0-31.62-24.13-57.71-54.94-60.82
			c-0.02,0.12-0.05,0.24-0.07,0.35c-0.12,0.59-0.23,1.13-0.32,1.6c13.8,1.35,26.22,7.46,35.6,16.66l-6.75,6.75l0.26-1.19l-0.88-0.39
			l-1.22-0.07l0.26-0.78l-0.82-2.76l-1.68-1.84l-5.27-2.78l-0.45,0.48L243.96,29c1.81,2.67,2.79,5.75,2.79,8.86
			c0,0.41-0.01,0.8-0.03,1.2l2.61,3.28l-1.22,0.29l0.81,1.22l-2.3,2.3l-0.93-1.76c-0.44,1.23-1.03,2.38-1.75,3.44
			c0.17,0.16,0.35,0.32,0.52,0.48l-7.1,7.1c-0.43-0.41-0.88-0.8-1.34-1.18c-0.68,0.32-1.37,0.61-2.08,0.88
			c0.21,0.15,0.41,0.31,0.61,0.47l-0.36,0.36l-0.83,0.47l-0.31,0.83l-0.52-0.52l-1.5,0.5l0.41,0.66l1.04-0.28l0.67,0.05l0.05-0.36
			l0.52-0.26l0.16-0.31l0.93-0.26l0.73-0.03c0.14,0.13,0.29,0.25,0.42,0.39l-2.82,2.82l-0.21-0.3l-2.94,0.49l-0.66,0.66l-0.65,0.08
			l1.83-1.75l-0.66-0.33l-1.71,2.28l0.5-0.05l-0.03,0.84l0.62,0.24l0.12,0.9l-1.02-0.2l-1.07,0.2l-2.58-1.33
			c0,0-0.14,6.94-0.21,10.43c6.1,2.05,12.57,5.01,12.57,12.8c0,3.42-1.48,6.18-4.39,8.22l0.03,0.01c-0.05,0.03-0.09,0.06-0.13,0.09
			l-0.01-0.01c-0.06,0.05-0.13,0.09-0.19,0.14c-2.47,1.63-5.64,2.5-8.39,3.36c-0.02,0.01-0.08,5.45-0.08,5.45
			c4.38,2.18,9.68,5.34,9.19,14.39c-0.06,2.23-0.93,2.84-1.67,3.04v0c-2.56,0.63-5.2,1.05-7.9,1.25c-0.01,0.7-0.03,1.37-0.04,1.99
			c11.78-0.81,22.43-5.78,30.48-13.46l7.1,7.1c-10.64,10.23-25.08,16.53-40.97,16.53c-15.8,0-30.17-6.23-40.79-16.36l7.1-7.1
			c7.97,7.53,18.45,12.43,30.04,13.28c-0.01-0.61-0.02-1.28-0.04-1.99c-11.03-0.86-21-5.53-28.61-12.69l1.9-1.9l2.6,0.3l1.38-1.49
			l3.63,0.13l0.54-1.26l-0.13-0.53c5.25,3.99,11.6,6.61,18.51,7.33c-0.01-0.77-0.03-1.45-0.04-2c-7.63-0.85-14.52-4.15-19.88-9.09
			l7.11-7.11c1.72,1.54,3.66,2.84,5.76,3.87c0.16-0.68,0.4-1.3,0.71-1.87c-1.84-0.91-3.55-2.06-5.07-3.4l7.12-7.12
			c1.13,0.91,2.41,1.62,3.81,2.12c-0.01-0.71-0.03-1.45-0.04-2.14c-0.84-0.37-1.63-0.83-2.35-1.39l2.01-2.01
			c-0.71-0.21-1.42-0.44-2.13-0.68l-1.34,1.34c-0.68-0.75-1.26-1.6-1.71-2.53c-1.23-0.54-2.41-1.16-3.52-1.88
			c-4.38-2.88-6.59-6.94-6.59-12.07c0-3.92,1.1-6.88,2.88-9.18l-7.08-7.08c5.1-4.88,11.67-8.24,18.96-9.34
			c-0.01-0.69-0.03-1.36-0.04-2c-7.83,1.13-14.87,4.71-20.33,9.93l-1.2-1.2c-0.27,0.48-0.59,1.08-0.96,1.85l0.75,0.75
			c-6.1,6.5-9.89,15.18-10.04,24.73h-10.05c0.16-12.33,5.07-23.52,12.99-31.84l3.19,3.19c0.15,0,0.3,0,0.45-0.01
			c0.57-0.04,1.2-0.22,1.81-0.53l-4.06-4.06c2.15-2.07,4.49-3.94,6.99-5.58c0.2-0.68,0.39-1.26,0.5-1.48
			c0.12-0.25,0.76-1.09,1.54-2.06c-3.81,2.11-7.32,4.71-10.43,7.72l-7.1-7.1c9.31-9.06,21.59-15.09,35.22-16.47
			c-0.04-0.24-0.08-0.43-0.08-0.43c-0.09-0.47-0.19-0.99-0.3-1.52c-30.72,3.2-54.75,29.25-54.75,60.8
			C158.93,107.21,186.36,134.64,220.07,134.64z M233.26,92.4l-0.01-0.05l0.02,0.04C233.27,92.39,233.27,92.4,233.26,92.4z
			 M262.86,32.71c10,10.48,16.19,24.62,16.35,40.17h-10.04c-0.1-7.7-1.98-14.98-5.24-21.45l0.09-0.18l0.69,0.37l0.16-0.53l-1.8-3.15
			l-2.12-2.94l-2.49-2.08c-0.86-1.07-1.75-2.11-2.69-3.1L262.86,32.71z M250.07,45.58l2.41,0.11l0.57,0.7l-0.29,1.02l3.35,2.08
			l0.66-0.08l4.29,4.91l1.75-0.61c2.72,5.85,4.27,12.34,4.36,19.18h-10.05c-0.04-2.62-0.37-5.18-0.93-7.64l0.46-0.62l0.62-3.15
			l-0.47-3.38l-1.21-3.89l-2.8-4.1l0.68,0.36l0.34-0.34l-2.25-1.52l-0.15,0.5l2.25,3.21l1.28,2.64l0.91,2.61l0.29,1.76l0.47,2.96
			l-0.84,0.06c0,0-0.97-1.81-1.27-2.56l0.45-0.67l-0.86-1.23v-1.22l-0.61-0.78l-0.76,0.1c-0.27-0.51-0.56-1.01-0.85-1.5l0.54,0.28
			l0.15-0.15l-0.29-0.63l0.65-0.37l-0.29-0.37l-0.97,0.37l0.35-1.53l-0.57-0.33l-0.52,1.22c-1.1-1.64-2.32-3.2-3.66-4.64
			L250.07,45.58z M248.05,69.13l1.8-0.98l1.84-0.29l0.41-0.9l1.02-0.61l0.39-0.86l0.32-1.49c0.15,0.52,0.28,1.05,0.4,1.59
			l-0.97,2.91l-0.04,0.98l1.42-1.89c0.29,1.72,0.47,3.49,0.5,5.29h-8.8l-0.2-0.77l1.02-0.82l0.2-0.49l0.45-0.33l1.19-0.12l0.12-0.53
			L248.05,69.13z M235.99,62.22l0.9-0.21l-0.04-0.21l-0.9-0.6l0.31-1.9l1.07-1.07c0.68,0.76,1.3,1.57,1.87,2.42l-0.38,1.16
			l-0.98-0.7l-0.75,0.2l0.37,0.69h0.37l-0.41,1.02l-0.29-0.41L235.99,62.22z M239.84,95.59l-2.17-0.62l-0.65,0.24l-1.23-0.94
			l-1.15-0.42c0.57-0.41,1.12-0.84,1.66-1.29l1.79,1.26l1.36,0.72l0.68,0.68L239.84,95.59z M238.74,56.83l7.11-7.11
			c1.66,1.8,3.14,3.78,4.39,5.9l-0.89,0.24l0.05,1.59l2.67,1.68c0.65,1.45,1.21,2.95,1.66,4.49l-0.47,0.68l-0.96,0.61l-0.24,1.48
			l-0.65,0.37l-0.55,0.65l-0.56-0.2l-0.98-0.04l0.57-0.77l0.41-2l0.65-0.41l-1.92-1.84l-1.43,0.49l-0.32,1.35l-0.9,0.98l-0.94-0.78
			l-0.33-0.82l0.53-0.33l0.3,0.54l0.44-0.16l-0.19-0.9l-0.63-0.04l-0.04,0.37l-0.41,0.08l-2.2-2.57l-0.75-0.58l0.28-0.31l0.67-0.23
			l-0.62-0.24c0,0-0.78,0.18-0.87,0.18l0.44,0.56l-1.12-0.02C240.28,58.69,239.54,57.73,238.74,56.83z M242.36,94.65l-0.96-0.96
			l0.74-0.96l0.93-1.89l-0.36-0.53l0.62-1.4l-0.07-1.26l-0.37-1.3L242,86.03l-0.32,0.74l-0.52-0.14c0.76-1.21,1.55-2.34,2.1-3.67
			l0.9-0.39l0.51-0.68l0.25,0.29l0.61-0.74l-0.49-0.61l0.45-0.12l0.82,0.33l1.55,0.04l0.94-0.49l2.45-0.65l-0.46-0.81l-0.16-0.99
			l1.32,0.58l0.49-0.29l-0.25-1.02l-1.62,0.61l-1.78-0.36l-1.35-2.77h7.69c-0.34,8.84-3.97,16.86-9.7,22.85l-1.06-1.06l0.45-1.41
			l-0.82-3.11L242.36,94.65z M243.72,114.25l0.95-2.03l-0.37-0.9l1.39-1.23v-0.73l-1.19-0.74l0.98-1.96l1.47-1.92l-1.47-1.59h-1.11
			l-0.69-1.11c0.59-0.49,1.17-0.99,1.73-1.52l7.11,7.11C249.87,110.16,246.91,112.38,243.72,114.25z M252.57,104.86l0.78-0.88
			l-0.74-3.88l-0.52-0.2l0.31-0.66l-1.68-0.53l-0.33,1.39l-0.16,1.76l-0.35,0.32l-3.06-3.06c6.09-6.36,9.94-14.86,10.28-24.25h10.06
			c-0.35,12.16-5.33,23.18-13.23,31.36L252.57,104.86z M255.34,107.63c8.26-8.54,13.46-20.05,13.81-32.76h10.05
			c-0.35,15.48-6.68,29.5-16.76,39.86L255.34,107.63z M194.87,97.89c-0.73-0.75-1.42-1.54-2.08-2.35l0.31-2.54l-1.06-2.44
			l-0.25-3.82l-1.19-2.31l0.25-1.44l-1.44-2.75l-1.25-0.62l0.51-1.46l-0.53-1.16l0.52-1.32h1.38l0.49-0.8h2.34l0.37,0.69l-0.44,2.39
			l-0.29,0.41l0.88,1.92l-0.58,0.32l-0.4-0.51l-0.17,0.19l0.4,1.14l0.69,1.33l0.32-0.03l0.19-1.19l-0.34-0.44l-0.04-0.81l-0.1-1.67
			l0.49-2.95l-0.48-0.8h1.69c0.33,6.16,2.9,11.73,6.91,15.93L194.87,97.89z M188.23,78.25l-0.95,1.49h-1.63l-0.13-0.1
			c-0.28-1.56-0.45-3.15-0.52-4.78h3.03l-0.73,2.42L188.23,78.25z M191.53,71.36l0.19-2l1.19-0.69l2.13,0.37l0.32,0.39
			c-0.19,1.13-0.29,2.28-0.32,3.45h-2.41L191.53,71.36z M201.73,78.86l0.5-0.25l1.32,0.99l-0.57,0.47l1.48,0.98l-0.09-1.06l0.79-1.3
			l0.82,0.87l0.84,1.21l-1.52,0.34l0.69,1.38l1.06-0.56l-0.14-0.44l0.79-0.54l0.47-2.19c0.58,1.3,1.36,2.49,2.31,3.53l-7.1,7.1
			c-3.39-3.56-5.65-8.19-6.22-13.33l1.45,1.55l1.37-0.03L201.73,78.86z M194.45,49.55l7.1,7.1c-1.48,1.63-2.75,3.45-3.77,5.43
			l-0.5-0.03l-1,0.31l-0.34-0.03l-1.07,0.99l1.35-0.21l1.21-0.3c-0.07,0.15-0.14,0.31-0.21,0.46l-1.06,0.65h-0.5l-1.57,1.19
			l-1.5-0.12l-2.19,4.07l0.44,0.81l-1.19,1.31l-0.18,1.71h-4.49C185.15,63.87,188.71,55.68,194.45,49.55z M185.28,103.13l2.25,1.32
			l0.47,0.31l-1.63,1.63c-0.77-0.79-1.5-1.61-2.21-2.44L185.28,103.13z M183.02,74.87c0.04,0.98,0.12,1.95,0.23,2.9l-1.23,0.28
			l-0.25,1.25l-2.56,3.25l0.06,4.48l-2.63,0.88l-1.44,0.01c-1.33-4.13-2.11-8.51-2.24-13.05H183.02z M173.11,87.86l-0.59-0.11
			l-0.56-0.62l-2.82-0.25l0.88,1.19l-2.62-0.5l0.69-0.63l-0.64-0.63l-1.88,0.82l-0.67,1.25l0.26,2.86l2.16,5.19l1.05,1.63l0.6,0.22
			l-1.65-3.11l-0.36-1.58l0.37-0.39l-0.23-0.87l0.98,0.13l1.52,2.29l0.38,0.15l-0.04-1.67l0.61,0.36l0.13,0.91l1.6,0.42l0.66-0.48
			l0.23,0.16l-0.03,1.22l0.71,0.87l0.85,0.19l1.86,3.15l1.13,0.31l0.35-1.47c1.96,3.24,4.29,6.24,6.93,8.94l-7.1,7.1
			c-10.18-10.37-16.57-24.47-16.93-40.03h10.05C171.11,79.37,171.84,83.73,173.11,87.86z M177.44,32.54l7.1,7.1
			c-8.27,8.68-13.41,20.37-13.57,33.25h-10.04C161.09,57.24,167.35,43.04,177.44,32.54z M250.16,28.87l-0.61-0.98l-1.31-0.66
			l-1.02,0.78l1.31,0.7l1.47,1.06L250.16,28.87z M244.07,57.22l0.04,0.78l1.74-0.52l0.53-1.06l-1.2-1.57l0.64-0.96l1.63,1.16
			l0.3-0.24l-0.32-0.23l-0.37-0.7l0.67-0.38l-0.66-0.86l-1.52,0.77l-0.53,0.92l-0.3,0.84l0.67,1.13l-0.25,0.53L244.07,57.22z
			 M171.43,102.28l0.12-0.45l-0.91-1.96l-1.07-0.4L171.43,102.28z M212.51,64.53c0,1.69,1.03,2.87,2.9,3.9c0,0-0.01-0.29-0.02-0.75
			l-1.17-1.17l0.62-1.13l0.51-0.14c-0.04-1.97-0.08-4.16-0.09-4.48l-0.09,0.01C213.45,61.71,212.51,62.87,212.51,64.53z"/>
		<g>
			<path class="st0" d="M223.73,108.07c3.15,1.59,6.06,3.79,7.28,7.97c0.53-6.92-3.34-9.92-7.19-11.94
				C223.82,104.11,223.73,108.07,223.73,108.07z"/>
			<path class="st0" d="M244.68,37.86c0-6.29-4.56-13.26-15.73-15.72c-0.82-0.18-2.09-0.31-3.41-0.39
				c-0.02,0.95-0.07,3.12-0.07,3.12c-0.02,0.68-0.07,3.2-0.08,3.74c1.03,0.09,1.79,0.22,2.14,0.3c6.49,1.55,8.82,5.27,8.82,8.96
				c0,5.96-5.1,8.21-11.37,9.91c-0.68,0.18-1.38,0.36-2.08,0.54c-1.9,0.47-3.86,0.93-5.79,1.45c-0.69,0.19-1.38,0.38-2.06,0.59l0,0
				c-6.95,2.12-12.93,5.47-12.93,14.05c0,8.51,6.81,11.68,13.47,13.73c-0.05-2.44-0.09-4.91-0.14-7.37
				c-2.94-1.37-5.01-3.19-5.01-6.24c0-2.98,1.89-4.78,4.77-6.09c0.64-0.29,1.33-0.55,2.05-0.8c1.66-0.57,3.52-1.04,5.47-1.51
				c0.68-0.17,1.38-0.33,2.08-0.5l0,0C234.18,53.36,244.68,50.43,244.68,37.86z"/>
			<path class="st0" d="M211.02,97.85c0.02,3.44,2.54,5.31,5.07,6.72c-0.01-0.58-0.11-5.89-0.11-5.99c0.06-1.06,1.08-1.7,1.91-2.09
				c1.22-0.57,2.45-0.99,4.03-1.54c0.75-0.26,1.39-0.51,2.11-0.73l0,0c5.08-1.53,10.96-3.48,10.96-9.67
				c0-6.19-5.04-8.73-10.55-10.63c-0.04,1.97-0.1,4.85-0.14,6.84c2.33,0.92,3.87,2.03,3.87,3.79c0,2.21-2.37,3.49-4.04,4.13
				c-0.7,0.27-1.76,0.63-2.06,0.72c-1.35,0.42-2.81,0.91-4.16,1.41c-0.72,0.27-1.41,0.56-2.06,0.89
				C213.47,92.93,211,94.72,211.02,97.85z"/>
			<path class="st0" d="M214.46,22.72c-3.38,0.97-5.37,2.24-6.13,2.5c-2.19,0.73-5.28,0.85-8.47,4.33
				c-0.57,0.62-1.95,2.36-2.93,3.78c-0.96,1.39-1,3.62-1.71,4.81c-1.02,1.74-0.78,2.73-0.78,2.73l0.03,0.05
				c-0.04,0.22-0.24,1.14-1.17,2.18c-1.07,1.18-2.47,1.84-4.14,1.57c1.45,0.73,3.46-0.29,3.46-0.29s-0.38,1.1-0.77,2.89
				c1.63-3.7,3.13-5.04,3.6-5.42c0.7,0.16,2.15,0.09,4.85-1.45c3.05-1.75,7.63-4.61,8.93-6.41c1.4-1.95,3.32-3.24,5.4-4.07
				C214.56,27.19,214.51,24.77,214.46,22.72z M201.59,34.25l-1.57,0.34l1.88-3.08l2.21,0.07L201.59,34.25z"/>
		</g>
		<g>
			<path class="st0" d="M220.75,97.42c-0.29,0.1-1.06,0.43-1.54,0.6c-0.51,0.18-1.16,0.44-1.16,0.62c0,0.05,0.49,26.65,0.49,27.23
				c0,5.48,2.79,5.51,2.79,0c0-0.39,0.56-28.83,0.56-28.83S221.23,97.25,220.75,97.42z"/>
			<path class="st0" d="M217.87,88.65c0.87-0.3,1.73-0.57,2.54-0.82c0.6-0.19,1.17-0.36,1.69-0.53c0.04-1.67,0.51-24.82,0.6-29.03
				c-2.08,0.52-3.89,1-5.38,1.55C217.37,62.98,217.82,86.12,217.87,88.65z"/>
			<path class="st0" d="M220.19,0c-7.83,0-4.51,11.62-3.89,15.41c0.03,0.18,0.63,26.25,0.76,32.24c1.19-0.31,2.37-0.61,3.52-0.89
				c0.82-0.2,1.61-0.4,2.37-0.59c0.12-5.76,0.7-30.64,0.72-30.81C224.13,11.31,228.23,0,220.19,0z"/>
		</g>
	</g>
	<g>
		<g>
			<g>
				<path class="st0" d="M12.19,171.75c6.35,0,7.5,5.65,7.5,9.87c0,4.49-1.67,6.88-3.99,8.1v0.05c1.87,0.61,5.17,2.77,5.18,9.92
					c0,9.37-4.96,10.87-9.3,10.87l-11.56,0L0,171.75L12.19,171.75z M5.74,187.05l5.28,0c2.29,0,2.85-2.49,2.85-3.99
					c0-1.61-0.55-3.77-3.09-3.77l-5.03,0L5.74,187.05z M5.74,203.02l5.94,0c1.01,0,3.16-0.83,3.16-4.38c0-3.66-1.81-4.43-3.89-4.43
					l-5.21,0L5.74,203.02z"/>
				<path class="st0" d="M42.06,199.9c-0.21,4.38-1.97,11.7-8.71,11.7c-5.76,0-9.41-5.32-9.41-15.07c0-6.71,1.87-15.19,9.72-15.19
					c6.04,0,7.92,5.93,8.23,11.08l-5.07,0c-0.38-4.54-1.81-5.43-3.37-5.43c-1.15,0-4.03,0.5-4.03,8.93c0,9.37,2.88,10.03,3.96,10.03
					c2.81,0,3.43-4.1,3.47-6.04H42.06z"/>
				<path class="st0" d="M63.23,202.39c-1.38,7.98-5.9,9.2-9.16,9.2c-2.33,0-9.48-0.83-9.48-15.19c-0.01-9.76,4.12-15.08,9.89-15.08
					c8.58,0,9.03,12.19,9.1,15.63l0.04,1.55l-13.54,0c0.04,2.72,0.8,7.43,4.24,7.43c1.53,0,3.12-1.05,3.58-3.55H63.23z M58.13,193.8
					c-0.07-6.04-2.43-6.82-3.72-6.82c-0.69,0-3.82-0.11-4.34,6.82L58.13,193.8z"/>
				<path class="st0" d="M72.36,191.13h-0.1l0.1,1.44l0.01,17.96l-5.28,0l-0.01-28.16l7.01,0l4.8,19.79h0.04l4.79-19.79h7.01
					l0.01,28.16l-5.28,0l-0.01-17.96l0.1-1.44h-0.1l-4.79,19.4l-3.51,0L72.36,191.13z"/>
				<path class="st0" d="M107.6,182.36h5.59l0.01,28.16l-5.28,0l0-18.29l-7.18,18.3l-5.62,0l-0.01-28.16h5.28l0,18.29L107.6,182.36z
					"/>
				<path class="st0" d="M122.53,182.36l-0.03,3.38h0.1c2.01-4.05,4.44-4.44,5.69-4.44c4.96,0,8.02,5.87,8.02,15.19
					c0.01,8.93-3.08,15.08-8.12,15.08c-0.69,0-3.58-0.28-5.34-3.93l0,13.14h-5.28l-0.01-38.41L122.53,182.36z M126.74,205.91
					c3.02,0,4.09-4.66,4.09-9.54c0-7.87-2.54-9.42-4.1-9.42c-1.6,0-4.13,1.55-4.13,9.42C122.6,201.26,123.65,205.91,126.74,205.91z"
					/>
				<path class="st0" d="M145.07,210.51l-5.28,0l-0.01-28.16l5.28,0l0,10.59l6.36,0l-0.01-10.59l5.28,0l0.01,28.16l-5.28,0l0-11.92
					l-6.35,0L145.07,210.51z"/>
				<path class="st0" d="M161.42,191.43c0.24-9.81,6.38-10.15,8.29-10.15c7.95,0,8.12,7.26,8.09,10.53l-0.1,12.86
					c-0.03,3.05,0.03,4.93,1.04,5.32v0.5l-5.55,0l-0.45-2.77h-0.1c-1.39,2.77-3.75,3.83-5.9,3.83c-5.62,0-6.15-5.82-6.15-8.15
					c0-6.43,3.37-7.99,6.56-8.82c3.89-0.94,5.28-0.39,5.38-3.16c0-0.28,0-0.5,0-0.77c-0.07-3.66-2.26-3.72-2.85-3.72
					c-0.94,0-3.23,0.33-3.23,4.49L161.42,191.43z M172.57,197.08c-1.59,1.11-1.42,0.94-3.47,1.5c-1.11,0.28-3.09,0.89-3.09,4.05
					c0,2.66,1.74,3.27,2.71,3.27c1.28,0,3.85-1.39,3.85-7.04V197.08z"/>
				<path class="st0" d="M187.57,210.5l-5.97,0l4.48-10.15c-3.89-1-4.76-5.32-4.76-8.76c0-9.31,5.45-9.26,6.52-9.26l10.31,0
					l0.01,28.16h-5.28l0-9.76h-1.81L187.57,210.5z M190.1,187.99c-1.21,0-3.3,0.33-3.3,3.55c0,2.66,1.32,3.55,3.2,3.55l2.88,0l0-7.1
					L190.1,187.99z"/>
			</g>
		</g>
		<path class="st0" d="M215.44,196.64c-0.03-11.09,4.68-15.09,9.61-15.11c5.52-0.01,9.66,4.8,9.69,15.05
			c0.03,10.37-4.13,15.2-9.61,15.21C219.64,211.82,215.46,207.01,215.44,196.64z M229.25,196.6c-0.02-8.98-2.87-9.42-4.19-9.41
			c-1.18,0-4.17,0.45-4.14,9.43c0.01,3.6,0.44,9.53,4.19,9.52C228.93,206.14,229.26,200.15,229.25,196.6z"/>
		<path class="st0" d="M242.83,182.4l-0.02,3.52h0.1c2-4.05,4.43-4.45,5.68-4.45c4.96-0.02,8.04,5.85,8.06,15.17
			c0.03,8.93-3.05,15.09-8.08,15.1c-0.69,0-3.58-0.26-5.36-3.92l0.03,13.14l-5.28,0.01l-0.1-38.56L242.83,182.4z M247.09,206.09
			c3.02-0.01,4.09-4.67,4.07-9.55c-0.02-7.87-2.56-9.42-4.12-9.41c-1.6,0-4.13,1.56-4.11,9.44
			C242.95,201.44,244,206.1,247.09,206.09z"/>
		<path class="st0" d="M265.12,210.64l-5.28,0.02l-0.08-28.18h13.44l0.02,5.63l-8.16,0.02L265.12,210.64z"/>
		<path class="st0" d="M275.87,191.54c0.22-9.81,6.36-10.16,8.27-10.17c7.95-0.02,8.14,7.24,8.12,10.51l-0.07,12.86
			c-0.03,3.05,0.05,4.93,1.05,5.32l0,0.5l-5.55,0.01l-0.46-2.77l-0.1,0c-1.38,2.77-3.74,3.83-5.89,3.84
			c-5.62,0.01-6.16-5.8-6.17-8.13c-0.02-6.43,3.35-7.99,6.54-8.83c3.89-0.95,5.28-0.4,5.37-3.18c0-0.28,0-0.5,0-0.77
			c-0.08-3.66-2.27-3.71-2.86-3.71c-0.94,0-3.23,0.34-3.22,4.5L275.87,191.54z M287.03,197.17c-1.59,1.11-1.42,0.95-3.47,1.51
			c-1.11,0.28-3.09,0.9-3.08,4.06c0.01,2.66,1.74,3.27,2.72,3.26c1.28,0,3.85-1.4,3.84-7.05L287.03,197.17z"/>
		<path class="st0" d="M301.61,210.54l-5.28,0.01l-0.07-28.16l5.27-0.01l0.03,10.59l6.35-0.02l-0.03-10.59l5.28-0.01l0.07,28.16
			l-5.28,0.02l-0.03-11.92l-6.35,0.02L301.61,210.54z"/>
		<path class="st0" d="M329.73,182.44h5.59l0.07,28.02l-5.28,0.01l-0.05-18.29l-7.14,18.31l-5.63,0.02l-0.07-28.11h5.32l0.01,18.23
			L329.73,182.44z"/>
		<path class="st0" d="M343.08,201.01c0.11,1.94,0.71,4.82,3.69,4.81c1.7,0,3.64-0.84,3.64-3.61c0-1.72-0.46-3.66-3.17-3.65
			l-2.05,0.01l-0.02-5.27l2.19,0c1.46,0,2.67-0.84,2.67-3c-0.01-2.66-1.71-3.43-3.42-3.43c-0.9,0-3.09,0.4-3.14,4.44l-4.86,0.01
			c-0.09-9.2,5.42-10.1,8.41-10.11c2.88-0.01,8.41,0.47,8.42,8.13c0.01,3.33-1.13,5.21-3.39,6.16v0.17c2.88,0.88,3.76,3.7,3.77,6.92
			c0.02,6.76-3.58,8.88-8.83,8.9c-4.93,0.01-8.69-2.64-8.92-10.46L343.08,201.01z"/>
		<path class="st0" d="M359.2,191.32c0.22-9.81,6.36-10.16,8.27-10.17c7.95-0.02,8.14,7.24,8.12,10.51l-0.07,12.86
			c-0.03,3.05,0.05,4.93,1.05,5.32v0.5l-5.55,0.02l-0.46-2.77l-0.11,0c-1.38,2.77-3.74,3.83-5.89,3.84
			c-5.62,0.02-6.16-5.8-6.17-8.13c-0.02-6.43,3.34-7.99,6.54-8.83c3.89-0.95,5.28-0.4,5.38-3.17c0-0.28,0-0.5,0-0.78
			c-0.08-3.66-2.27-3.71-2.86-3.71c-0.94,0-3.23,0.34-3.22,4.5L359.2,191.32z M370.36,196.94c-1.59,1.11-1.42,0.95-3.47,1.51
			c-1.11,0.28-3.09,0.89-3.08,4.05c0,2.66,1.74,3.27,2.71,3.26c1.29,0,3.85-1.4,3.84-7.05L370.36,196.94z"/>
		<path class="st0" d="M391.52,204.65l-0.06-22.22l5.28-0.02l0.06,22.22l2.88,0l-0.28,12.97l-4.48,0.01l-0.02-7.32l-15.24,0.04
			l-0.07-27.97l5.28-0.02l0.06,22.32L391.52,204.65z"/>
		<path class="st0" d="M414.27,182.45h5.59l0.08,27.78l-5.27,0.01l-0.05-18.29l-7.14,18.31l-5.63,0.02l-0.07-27.89h5.28l0.05,18
			L414.27,182.45z"/>
		<path class="st0" d="M429.42,210.2l-5.97,0.02l4.45-10.16c-3.89-0.99-4.78-5.31-4.78-8.75c0-8.17,5.51-8.92,6.59-8.92l10.23,0.09
			l0.07,27.69l-5.28,0.01l-0.03-9.76l-1.8,0L429.42,210.2z M431.89,187.69c-1.21,0-3.3,0.34-3.29,3.56c0.01,2.66,1.33,3.54,3.2,3.54
			l2.88-0.01l-0.02-7.1L431.89,187.69z"/>
	</g>
	<g>
		<path class="st0" d="M67.8,249.74c0.11,1.94,0.71,4.82,3.69,4.81c1.7,0,3.64-0.84,3.64-3.61c-0.01-1.72-0.46-3.66-3.17-3.65
			l-2.05,0.01l-0.01-5.27l2.19-0.01c1.46,0,2.67-0.84,2.67-3c-0.01-2.66-1.71-3.43-3.41-3.43c-0.91,0-3.09,0.4-3.15,4.44l-4.87,0.01
			c-0.09-9.2,5.43-10.1,8.42-10.11c2.88-0.01,8.4,0.48,8.42,8.13c0.01,3.33-1.13,5.21-3.38,6.16v0.17c2.88,0.88,3.76,3.7,3.77,6.92
			c0.02,6.76-3.59,8.88-8.83,8.89c-4.93,0.01-8.69-2.64-8.92-10.45L67.8,249.74z"/>
		<path class="st0" d="M83.81,253.46c1.83-4.44,2.72-9.82,2.7-17.3l-0.01-5.21l15.1-0.04l0.06,22.51l2.92-0.01l-0.24,12.97
			l-4.51,0.01l-0.02-7.32l-13.5,0.04l0.02,7.32l-4.51,0.01l-0.31-12.97L83.81,253.46z M91.37,236.59l0.01,2.94
			c0.02,6.65-1.12,11.09-2.08,13.92l7.08-0.02l-0.05-16.85L91.37,236.59z"/>
		<path class="st0" d="M130.37,239.98c0.22-9.81,6.36-10.16,8.28-10.17c7.95-0.02,8.14,7.24,8.12,10.51l-0.08,12.86
			c-0.02,3.05,0.05,4.94,1.06,5.32l0,0.5l-5.56,0.01l-0.46-2.77l-0.1,0c-1.38,2.77-3.74,3.84-5.89,3.84
			c-5.62,0.02-6.16-5.8-6.17-8.13c-0.02-6.43,3.35-7.99,6.54-8.83c3.88-0.95,5.27-0.4,5.37-3.17c0-0.28,0-0.5,0-0.77
			c-0.08-3.66-2.27-3.71-2.86-3.71c-0.94,0-3.23,0.34-3.22,4.5L130.37,239.98z M141.53,245.6c-1.59,1.11-1.42,0.95-3.46,1.51
			c-1.11,0.28-3.09,0.89-3.08,4.05c0.01,2.66,1.74,3.27,2.72,3.26c1.29,0,3.85-1.39,3.84-7.05L141.53,245.6z"/>
		<path class="st0" d="M161.28,230.81c1.63,0,5.8-0.01,5.82,6.8c0.01,3.83-1.65,6.1-3.56,6.61v0.17c2.92,0.99,4.21,2.93,4.22,7.36
			c0.02,5.77-2.62,7.21-6.44,7.22L150.83,259l-0.07-28.16L161.28,230.81z M156.07,241.85l2.75-0.01c0.86,0,2.88-0.06,2.87-2.61
			c0-2.33-1.29-2.77-2.78-2.77l-2.85,0.01L156.07,241.85z M156.1,253.33l3.3-0.01c2.61-0.01,2.95-1.67,2.94-2.89
			c-0.01-1.88-0.53-3.33-3.03-3.32l-3.23,0.01L156.1,253.33z"/>
		<path class="st0" d="M169.96,244.81c-0.03-11.09,4.68-15.09,9.61-15.1c5.52-0.02,9.66,4.8,9.69,15.05
			c0.03,10.36-4.12,15.2-9.61,15.21C174.17,259.99,169.99,255.18,169.96,244.81z M183.78,244.77c-0.02-8.98-2.87-9.42-4.19-9.41
			c-1.18,0.01-4.17,0.46-4.14,9.44c0.01,3.6,0.44,9.53,4.19,9.52C183.46,254.31,183.79,248.32,183.78,244.77z"/>
		<path class="st0" d="M191.59,244.75c-0.03-11.09,4.68-15.09,9.61-15.1c5.52-0.01,9.66,4.8,9.69,15.05
			c0.03,10.37-4.12,15.2-9.61,15.22C195.8,259.93,191.62,255.12,191.59,244.75z M205.41,244.71c-0.02-8.98-2.87-9.42-4.19-9.41
			c-1.18,0-4.17,0.46-4.14,9.44c0.01,3.6,0.44,9.54,4.19,9.52C205.09,254.25,205.42,248.26,205.41,244.71z"/>
		<path class="st0" d="M224.82,230.64l6.07-0.02l-6.21,13.6l6.6,14.56l-6.08,0.02l-3.6-9.2l-3.55,9.21l-6.08,0.02l6.56-14.6
			l-6.32-13.56l6.11-0.02l3.25,8.75L224.82,230.64z"/>
		<path class="st0" d="M237.97,230.6l-0.02,3.38h0.1c2-4.05,4.43-4.45,5.68-4.45c4.96-0.02,8.04,5.85,8.06,15.17
			c0.03,8.93-3.04,15.09-8.08,15.1c-0.69,0-3.58-0.27-5.35-3.92l0.03,13.14l-5.28,0.01l-0.1-38.42L237.97,230.6z M242.24,254.15
			c3.02-0.01,4.09-4.67,4.08-9.54c-0.02-7.87-2.56-9.42-4.12-9.41c-1.6,0-4.13,1.56-4.11,9.43
			C238.09,249.5,239.15,254.16,242.24,254.15z"/>
		<path class="st0" d="M113.36,230.6l-0.03,3.38h0.1c2-4.05,4.43-4.45,5.68-4.45c4.96-0.02,8.04,5.85,8.06,15.17
			c0.03,8.93-3.05,15.09-8.08,15.1c-0.69,0-3.58-0.27-5.36-3.92l0.03,13.14l-5.28,0.01l-0.1-38.42L113.36,230.6z M117.62,254.15
			c3.02-0.01,4.09-4.67,4.08-9.54c-0.02-7.87-2.56-9.42-4.12-9.41c-1.6,0-4.13,1.56-4.11,9.43
			C113.48,249.5,114.53,254.16,117.62,254.15z"/>
		<path class="st0" d="M255.29,239.65c0.22-9.81,6.37-10.17,8.27-10.17c7.95-0.02,8.14,7.24,8.12,10.51l-0.07,12.86
			c-0.03,3.05,0.05,4.93,1.05,5.32l0,0.5l-5.56,0.01l-0.46-2.77h-0.11c-1.38,2.78-3.74,3.84-5.89,3.84
			c-5.62,0.02-6.16-5.8-6.17-8.13c-0.02-6.43,3.35-7.99,6.54-8.83c3.88-0.95,5.28-0.4,5.37-3.17c0-0.28,0-0.5,0-0.78
			c-0.08-3.66-2.27-3.71-2.86-3.71c-0.94,0-3.23,0.34-3.22,4.5L255.29,239.65z M266.45,245.27c-1.59,1.11-1.42,0.95-3.47,1.51
			c-1.11,0.28-3.09,0.89-3.08,4.05c0.01,2.66,1.75,3.27,2.72,3.26c1.29-0.01,3.85-1.4,3.84-7.05L266.45,245.27z"/>
		<path class="st0" d="M281.03,258.64l-5.28,0.01l-0.08-28.16l5.28-0.01l0.03,10.59l6.36-0.02l-0.03-10.59l5.28-0.01l0.08,28.16
			l-5.28,0.01l-0.03-11.92l-6.35,0.02L281.03,258.64z"/>
		<path class="st0" d="M314.52,250.41c-1.37,7.99-5.88,9.22-9.15,9.23c-2.32,0.01-9.48-0.81-9.51-15.16
			c-0.03-9.76,4.09-15.09,9.86-15.1c8.57-0.03,9.06,12.17,9.14,15.61l0.04,1.55l-13.54,0.04c0.04,2.72,0.82,7.43,4.25,7.42
			c1.53-0.01,3.12-1.06,3.57-3.56L314.52,250.41z M309.39,241.83c-0.08-6.04-2.45-6.81-3.73-6.81c-0.69,0-3.82-0.1-4.32,6.83
			L309.39,241.83z"/>
		<path class="st0" d="M323.36,258.53l-5.28,0.01L318,230.39l5.28-0.01l0.03,10.59l6.35-0.02l-0.03-10.59l5.27-0.02l0.07,28.16
			l-5.28,0.01l-0.03-11.92l-6.35,0.02L323.36,258.53z"/>
		<path class="st0" d="M351.48,230.29l5.58-0.01l0.08,28.16l-5.28,0.01l-0.05-18.29l-7.14,18.31l-5.62,0.02l-0.07-28.17l5.28-0.01
			l0.05,18.29L351.48,230.29z"/>
		<path class="st0" d="M366.62,258.41l-5.97,0.02l4.45-10.16c-3.89-0.99-4.77-5.31-4.78-8.75c-0.03-9.31,5.43-9.27,6.5-9.27
			l10.31-0.03l0.07,28.16l-5.28,0.01l-0.02-9.76l-1.8,0L366.62,258.41z M369.09,235.9c-1.21,0-3.3,0.34-3.29,3.56
			c0,2.66,1.32,3.54,3.2,3.54l2.89-0.01l-0.02-7.1L369.09,235.9z"/>
	</g>
</g>
</svg>
