<?xml version="1.0" encoding="utf-8"?>
<!-- Generator: Adobe Illustrator 24.1.0, SVG Export Plug-In . SVG Version: 6.00 Build 0)  -->
<svg version="1.1" id="CHINESE" xmlns="http://www.w3.org/2000/svg" xmlns:xlink="http://www.w3.org/1999/xlink" x="0px" y="0px"
	 viewBox="0 0 673.2 178" style="enable-background:new 0 0 673.2 178;" xml:space="preserve">
<style type="text/css">
	.st0{fill:#0093D5;}
</style>
<path class="st0" d="M271.6,98.5c0,0,0-22.5,0-23.3c0.7,0,14.6,0,14.6,0v-6.7c0,0-14.1,0-14.8,0c0-0.7,0-18,0-18h-6.7
	c0,0,0,17.2,0,18h-12.3c0-0.7,0-17.7,0-17.7h-6.9c0,0,0,17,0,17.7h-10.2c0-0.7,0-13.6,0-13.6h-6.9c0,0,0,12.9,0,13.6
	c-0.7,0-11,0-11,0v6.7c0,0,10.3,0,11,0c0,0.7,0,44,0,44h6.9c0,0,0-4.5,0-5.1c0.7,0,46.8,0,46.8,0v-6.8c0,0-46.1,0-46.8,0V75.3h10.2
	c0,0.7,0,23.3,0,23.3H271.6z M264.7,75.3v16.6h-12.3V75.3H264.7z"/>
<path class="st0" d="M312.6,92l0,0.4c0.1,6.8-1.4,11.9-4.4,15.1c-3,3.2-8.1,5.2-15,5.9l-0.6,0.1l3.7,6.2l0.2,0
	c7.9-1.2,13.8-4.1,17.5-8.4c3.7-4.3,5.5-10.7,5.4-18.9l0-0.4H312.6z M358.9,96.3c-10.5-1.7-18.1-5.8-22.6-11.9c1.3,0,10.9,0,10.9,0
	v-32h-47.8v31.9c0,0,9.8,0,11.3,0c-5.2,5.7-12.8,9.6-22.7,11.4l-0.6,0.1l4,6.1l0.2-0.1c13.5-3.1,22.4-9,26.5-17.5h10.6
	c1.1,2.6,2.9,5.1,5.3,7.4c-1.2,0-4.5,0-4.5,0v27.8h6.7c0,0,0-24.2,0-25.8c3.9,3.5,10.1,6.5,18.6,8.9l0.3,0.1l4.4-6.3L358.9,96.3z
	 M326.6,58.8h13.9v6h-13.9V58.8z M319.9,77.9H306v-6.7h13.9V77.9z M319.9,64.8H306v-6h13.9V64.8z M326.6,77.9v-6.7h13.9v6.7H326.6z"
	/>
<path class="st0" d="M400.3,108.2V61.6H421c-0.5,7-1,13.3-1.6,18.7c-0.8,7.1-1.4,8.7-1.7,9c-0.5,0.5-1,0.8-1.7,0.8
	c-1,0-2.6-0.3-4.7-0.9l-5.2-1.4l0.1,0.6l1.3,6.8l0.2,0.1c3.8,0.9,6.7,1.4,8.8,1.4c3.9,0,6.5-1.7,8-4.9c1.4-3.2,2.5-15,3.2-36.2
	l0-0.4h-55v6.5c0,0,20,0,20.7,0v46.6c-0.7,0-25.1,0-25.1,0v6.4h67.1v-6.4C435.6,108.2,401,108.2,400.3,108.2z"/>
<path class="st0" d="M479.7,108.4V92.5c0.7,0,22,0,22,0v-6.5c0,0-21.2,0-22,0V72.2c0.7,0,25.6,0,25.6,0v-6.4c0,0-24.9,0-25.6,0
	c0-0.7,0-16.7,0-16.7H473c0,0,0,15.9,0,16.7h-12.3c1-4.1,1.5-7.1,1.5-9.1v-0.3l-6.6-2l0,0.5c-0.8,11.4-5.5,21.1-14.2,28.8l-0.4,0.4
	l6.7,3.6l0.2-0.2c5.4-5.8,8.9-10.9,10.5-15.2h14.6v13.8c-0.7,0-20.2,0-20.2,0v6.5c0,0,19.5,0,20.2,0v15.9c-0.7,0-27.9,0-27.9,0v6.4
	h65.2v-6.4C510.3,108.4,480.4,108.4,479.7,108.4z"/>
<path class="st0" d="M525.4,94.6l3.1,5.8l0.3-0.1c1.9-0.7,9.6-2.6,23-5.7l0.3-0.1v-6.1c0,0-14.4,3.1-16,3.5
	c5.5-5.2,10.9-13,15.8-23.2l0.2-0.3l-6.2-2.8l-0.2,0.3c-2,4-3.7,7.1-5.1,9.1c-0.3,0.1-6,1.2-7.2,1.5c2.8-5.1,6.5-12.8,11-23l0.2-0.3
	l-6-2.8l-0.1,0.4c-4.8,12.1-9.2,21.5-13.1,27.8l-0.1,0.2l3.2,5.9l5.3-1.6c1.3-0.3,2.1-0.6,2.6-0.7c-2.3,3.2-5.9,7.3-10.7,12.1
	L525.4,94.6z M553.8,99l-0.5,0.2c-2.8,1-12,4-27.3,8.7l-0.4,0.1l3.3,6.1l25-8.4L553.8,99L553.8,99z M584.8,108.9
	c0-0.7,0-55.7,0-55.7h-28.8c0,0,0,54.9,0,55.7c-0.7,0-8.9,0-8.9,0v6.5h46.7v-6.5C593.7,108.9,585.4,108.9,584.8,108.9z M578,108.9
	h-15.5V95.6H578V108.9z M578,89.4h-15.5V77.3H578V89.4z M578,71.2h-15.5V59.6H578V71.2z"/>
<path class="st0" d="M606.5,84.8c3-1.1,6.1-1.7,9.2-1.9c-4.7,6.3-8.8,10.9-12.1,13.8l-0.2,0.2l3,5.7l0.3-0.1c5.7-1.1,13.8-3,24-5.7
	l0.3-0.1v-6.4c0,0-15,3.2-16.8,3.6c5.7-4.8,11.4-13.2,17-25.3l0.2-0.3l-6.1-2.8l-0.2,0.3c-2.5,5.1-4.2,8.5-5.2,10
	c-0.3,0-6.6,0.8-7.9,1c5.2-7.5,9-15.3,11.2-23.3l0.1-0.3l-6.1-2.4l-0.1,0.4c-3.4,11.7-8,20.8-13.9,27.2l-0.2,0.2l3.1,6.3L606.5,84.8
	z M666.5,55.4H634V92h32.5V55.4z M659.8,85.5h-19.2V61.8h19.2V85.5z M631,107.5v-6.7l-0.5,0.2l-28.8,9.4l3.7,6.2l0.3-0.1
	c10.1-3.3,18.5-6.3,25.1-8.9L631,107.5z M642.9,96.3c-4.5,7.6-10.1,13-16.5,16.1l-0.5,0.2l5.1,4.9l0.2-0.2
	c8.7-5.5,14.3-11.4,16.6-17.6l0.1-0.3l-4.8-3.5L642.9,96.3z M673.1,113.3c-3.9-6.6-9.6-12.3-16.9-16.9l-0.3-0.2l-0.2,0.2L652,101
	l0.3,0.2c7.7,5.3,13,11.1,15.9,17.2l0.2,0.5l4.8-5.4L673.1,113.3z"/>
<g>
	<path class="st0" d="M164,32.6c3.9,4.6,10.6,7.3,14.6,11.9c-2.8-13.6-13.4-24.8-25.8-27.4C158.8,21.7,160.2,28,164,32.6z
		 M14.5,67.1C23,48.5,35.8,52.4,41.2,34.7c-3.1,5.4-17,7.8-23.5,21.7c3.3-8.3,1.7-21,7.2-27.8C8.2,40.9,15.4,60.9,14.5,67.1z
		 M30,111.9c1.5,7.3-3,17.7,4.2,27.8c-7.4-8.3-23.2-10.5-29.6-23.1c8,31,28.9,24.6,38.4,31.3C35.2,136.7,41.6,129.2,30,111.9z
		 M27.6,131.3C23,114,31.2,108,24.9,91.4c-0.7,9.4-6.9,13.9-2.7,31C14.8,107.9,3.3,102.5,0,92.6C0.2,119.8,22.1,123.8,27.6,131.3z
		 M61.1,160.3c-6.4-8.9-2-13.9-20.1-30.1c3.8,5.9-0.1,13.3,12.1,24.9c-11.9-7-28.4-4-36.3-13.4C30.4,167.8,54.3,157.1,61.1,160.3z
		 M148.5,155.1c12.2-11.5,8.2-19,12.1-24.9c-18.1,16.2-13.7,21.2-20.1,30.1c6.8-3.2,30.7,7.4,44.3-18.6
		C176.9,151.1,160.5,148.1,148.5,155.1z M167.4,139.6c7.2-10,2.7-20.5,4.2-27.8c-11.6,17.4-5.2,24.8-13,36
		c9.4-6.7,30.4-0.4,38.4-31.3C190.6,129.2,174.9,131.3,167.4,139.6z M138.6,161.6c-7.1-1.9-14.3-2.8-19.8-3
		c-6.8-0.2-12.8,1.1-18,3.1c-5.2-1.9-11.3-3.2-18-3.1c-5.4,0.1-12.7,1.1-19.8,3c-10.9,2.9-20.3,5.1-28.4,1c7.8,7,17,9.4,30.2,8
		c11-1.2,19.9-6.7,30.3-6.6c0.1,0,0.3,0,0.4,0c-10.9,5.5-17.1,13.3-17.1,13.3l5,0.7c0,0,5.3-10.6,17.4-13.4
		c12.1,2.8,17.4,13.4,17.4,13.4l5-0.7c0,0-6.2-7.8-17.1-13.3c0.1,0,0.3,0,0.4,0c10.4-0.1,19.3,5.4,30.3,6.6
		c13.2,1.4,22.4-1.1,30.2-8C158.8,166.7,149.4,164.5,138.6,161.6z M25.7,72.6C21.2,81.2,14.2,83.2,15,101
		C11.2,85.2,2.2,79.3,2.4,69.3c-6.2,26.3,10.4,29.4,14.7,40.4C16.4,93.9,26.5,90.7,25.7,72.6z M31.9,52.3c-1.6,2.2-2.7,3.1-6.8,6.5
		C19.4,63.5,14.9,69.7,13,78.6c0.4-9.6-5.5-23.5-1.6-33.6c-15.3,21.7,0.9,34.6,1.5,42.5C16.9,72.4,26,72.3,31.9,52.3z M188.6,78.6
		c-1.9-9-6.4-15.1-12.1-19.8c-4.2-3.4-5.3-4.3-6.8-6.5c5.9,20,15.1,20.1,19,35.2c0.6-7.8,16.8-20.8,1.4-42.5
		C194.2,55.2,188.2,69,188.6,78.6z M201.6,92.6c-3.3,10-14.8,15.3-22.2,29.8c4.2-17.1-2-21.7-2.7-31c-6.2,16.6,2,22.6-2.6,39.9
		C179.6,123.8,201.4,119.8,201.6,92.6z M176,72.6c-0.9,18.1,9.2,21.2,8.6,37c4.3-11,21-14.2,14.7-40.4c0.1,10.1-8.9,15.9-12.6,31.7
		C187.4,83.2,180.4,81.2,176,72.6z M37.6,32.6c3.9-4.6,5.2-10.9,11.2-15.5c-12.4,2.7-23,13.8-25.8,27.4C27,39.9,33.8,37.2,37.6,32.6
		z M160.4,34.7c5.4,17.8,18.2,13.8,26.8,32.5c-0.9-6.3,6.2-26.2-10.5-38.6c5.6,6.8,3.9,19.5,7.2,27.8
		C177.4,42.4,163.4,40.1,160.4,34.7z M117,44.8c-3.2-1.3-6.6-2.3-10.2-2.8c0,0.8,0,1.5-0.1,2.3c3.3,0.5,6.4,1.4,9.4,2.6
		C116.5,46.2,116.8,45.5,117,44.8z M114.4,22.8l0.7-0.6l-1.3-0.5l-3.4-0.1l-0.9,0.6l-2-0.2l0,0.5c1.3,0.1,2.5,0.2,3.5,0.4l1.7-0.2
		L114.4,22.8z M107.8,96.5c0-0.6-0.8-1.2-1.9-1.7h-0.2c0,0.5-0.1,2.8-0.1,3.9C107,98.1,107.8,97.4,107.8,96.5z M68.2,53.1
		c0.1-0.5,0.2-0.8,0.3-1.3c-0.4,0.1-0.9,0.2-1.4,0.1L68.2,53.1z M100.9,153.6c38.5,0,69.8-31.3,69.8-69.8
		c0-36.1-27.5-65.8-62.7-69.4c0,0.1-0.1,0.3-0.1,0.4c-0.1,0.7-0.3,1.3-0.4,1.8c15.8,1.5,29.9,8.5,40.6,19l-7.7,7.7l0.3-1.3l-1-0.4
		l-1.4-0.1l0.3-0.9l-0.9-3.2l-1.9-2.1l-6-3.2l-0.5,0.6l-1.1,0.3c2.1,3,3.2,6.6,3.2,10.1c0,0.5,0,0.9,0,1.4l3,3.8l-1.4,0.3l0.9,1.4
		l-2.6,2.6l-1.1-2c-0.5,1.4-1.2,2.7-2,3.9c0.2,0.2,0.4,0.4,0.6,0.6l-8.1,8.1c-0.5-0.5-1-0.9-1.5-1.3c-0.8,0.4-1.6,0.7-2.4,1
		c0.2,0.2,0.5,0.3,0.7,0.5l-0.4,0.4l-0.9,0.5l-0.4,0.9l-0.6-0.6l-1.7,0.6l0.5,0.8l1.2-0.3l0.8,0.1l0.1-0.4l0.6-0.3l0.2-0.3l1.1-0.3
		l0.8,0c0.2,0.2,0.3,0.3,0.5,0.4l-3.2,3.2l-0.2-0.3l-3.4,0.6l-0.8,0.8l-0.7,0.1l2.1-2l-0.8-0.4l-1.9,2.6l0.6-0.1l0,1l0.7,0.3l0.1,1
		l-1.2-0.2l-1.2,0.2l-2.9-1.5c0,0-0.2,7.9-0.2,11.9c7,2.3,14.4,5.7,14.4,14.6c0,3.9-1.7,7.1-5,9.4l0,0c-0.1,0-0.1,0.1-0.1,0.1l0,0
		c-0.1,0.1-0.1,0.1-0.2,0.1c-2.8,1.9-6.4,2.9-9.6,3.8c0,0-0.1,6.2-0.1,6.2c5,2.5,11.1,6.1,10.5,16.4c-0.1,2.5-1.1,3.2-1.9,3.5l0,0
		c-2.9,0.7-5.9,1.2-9,1.4c0,0.8,0,1.6,0,2.3c13.4-0.9,25.6-6.6,34.8-15.4l8.1,8.1c-12.1,11.7-28.6,18.9-46.8,18.9
		c-18,0-34.4-7.1-46.6-18.7l8.1-8.1c9.1,8.6,21.1,14.2,34.3,15.2c0-0.7,0-1.5,0-2.3c-12.6-1-24-6.3-32.6-14.5l2.2-2.2l3,0.3l1.6-1.7
		l4.1,0.1l0.6-1.4l-0.1-0.6c6,4.6,13.2,7.6,21.1,8.4c0-0.9,0-1.7,0-2.3c-8.7-1-16.6-4.7-22.7-10.4l8.1-8.1c2,1.8,4.2,3.2,6.6,4.4
		c0.2-0.8,0.4-1.5,0.8-2.1c-2.1-1-4.1-2.4-5.8-3.9l8.1-8.1c1.3,1,2.8,1.9,4.3,2.4c0-0.8,0-1.7-0.1-2.4c-1-0.4-1.9-0.9-2.7-1.6
		l2.3-2.3c-0.8-0.2-1.6-0.5-2.4-0.8l-1.5,1.5c-0.8-0.9-1.4-1.8-1.9-2.9c-1.4-0.6-2.8-1.3-4-2.2c-5-3.3-7.5-7.9-7.5-13.8
		c0-4.5,1.2-7.9,3.3-10.5L73.3,55c5.8-5.6,13.3-9.4,21.6-10.7c0-0.8,0-1.6,0-2.3c-8.9,1.3-17,5.4-23.2,11.3L70.3,52
		c-0.3,0.5-0.7,1.2-1.1,2.1l0.9,0.9c-7,7.4-11.3,17.3-11.5,28.2H47.1c0.2-14.1,5.8-26.8,14.8-36.3l3.6,3.6c0.2,0,0.3,0,0.5,0
		c0.6-0.1,1.4-0.2,2.1-0.6l-4.6-4.6c2.4-2.4,5.1-4.5,8-6.4c0.2-0.8,0.4-1.4,0.6-1.7c0.1-0.3,0.9-1.2,1.8-2.3
		c-4.3,2.4-8.3,5.4-11.9,8.8l-8.1-8.1C64.5,25.3,78.5,18.4,94,16.8c-0.1-0.3-0.1-0.5-0.1-0.5c-0.1-0.5-0.2-1.1-0.3-1.7
		c-35.1,3.7-62.5,33.4-62.5,69.4C31.1,122.4,62.4,153.6,100.9,153.6z M116,105.4L116,105.4L116,105.4C116,105.4,116,105.4,116,105.4
		z M149.7,37.3c11.4,12,18.5,28.1,18.7,45.8h-11.5c-0.1-8.8-2.2-17.1-6-24.5l0.1-0.2l0.8,0.4l0.2-0.6l-2.1-3.6l-2.4-3.4l-2.9-2.4
		c-1-1.2-2-2.4-3.1-3.5L149.7,37.3z M135.1,52l2.8,0.1l0.6,0.8l-0.3,1.2l3.8,2.4l0.8-0.1l4.9,5.6l2-0.7c3.1,6.7,4.9,14.1,5,21.9
		h-11.5c-0.1-3-0.4-5.9-1.1-8.7l0.5-0.7l0.7-3.6l-0.5-3.9l-1.4-4.4l-3.2-4.7l0.8,0.4l0.4-0.4l-2.6-1.7l-0.2,0.6l2.6,3.7l1.5,3l1,3
		l0.3,2l0.5,3.4l-1,0.1c0,0-1.1-2.1-1.4-2.9l0.5-0.8l-1-1.4v-1.4l-0.7-0.9l-0.9,0.1c-0.3-0.6-0.6-1.2-1-1.7l0.6,0.3l0.2-0.2
		l-0.3-0.7l0.8-0.4l-0.3-0.4l-1.1,0.4l0.4-1.7l-0.6-0.4l-0.6,1.4c-1.2-1.9-2.6-3.7-4.2-5.3L135.1,52z M132.8,78.9l2.1-1.1l2.1-0.3
		l0.5-1l1.2-0.7l0.4-1l0.4-1.7c0.2,0.6,0.3,1.2,0.5,1.8l-1.1,3.3l-0.1,1.1l1.6-2.2c0.3,2,0.5,4,0.6,6h-10.1l-0.2-0.9l1.2-0.9
		l0.2-0.6l0.5-0.4l1.4-0.1l0.1-0.6L132.8,78.9z M119.1,71l1-0.2l-0.1-0.2l-1-0.7l0.4-2.2l1.2-1.2c0.8,0.9,1.5,1.8,2.1,2.8l-0.4,1.3
		l-1.1-0.8l-0.9,0.2l0.4,0.8h0.4l-0.5,1.2l-0.3-0.5L119.1,71z M123.5,109.1l-2.5-0.7l-0.8,0.3l-1.4-1.1l-1.3-0.5
		c0.6-0.5,1.3-1,1.9-1.5l2,1.4l1.6,0.8l0.8,0.8L123.5,109.1z M122.2,64.9l8.1-8.1c1.9,2.1,3.6,4.3,5,6.7l-1,0.3l0.1,1.8l3,1.9
		c0.7,1.7,1.4,3.4,1.9,5.1l-0.5,0.8l-1.1,0.7l-0.3,1.7l-0.8,0.4l-0.6,0.7l-0.6-0.2l-1.1-0.1l0.6-0.9l0.5-2.3l0.8-0.5l-2.2-2.1
		l-1.6,0.6l-0.4,1.5l-1,1.1l-1.1-0.9l-0.4-0.9l0.6-0.4l0.3,0.6l0.5-0.2l-0.2-1l-0.7,0l-0.1,0.4l-0.5,0.1l-2.5-2.9l-0.9-0.7l0.3-0.3
		l0.8-0.3l-0.7-0.3c0,0-0.9,0.2-1,0.2l0.5,0.6l-1.3,0C124,67,123.1,65.9,122.2,64.9z M126.3,108l-1.1-1.1l0.8-1.1l1.1-2.1l-0.4-0.6
		l0.7-1.6l-0.1-1.4l-0.4-1.5l-1-0.4l-0.4,0.8l-0.6-0.2c0.9-1.4,1.8-2.7,2.4-4.2l1-0.4l0.6-0.8l0.3,0.3l0.7-0.8l-0.6-0.7l0.5-0.1
		l0.9,0.4l1.8,0.1l1.1-0.6l2.8-0.8l-0.5-0.9l-0.2-1.1l1.5,0.7l0.6-0.3l-0.3-1.2l-1.8,0.7l-2-0.4l-1.5-3.2h8.8
		c-0.4,10.1-4.5,19.2-11.1,26.1l-1.2-1.2l0.5-1.6l-0.9-3.5L126.3,108z M127.9,130.4l1.1-2.3l-0.4-1l1.6-1.4v-0.8l-1.4-0.8l1.1-2.2
		l1.7-2.2l-1.7-1.8h-1.3l-0.8-1.3c0.7-0.6,1.3-1.1,2-1.7l8.1,8.1C134.9,125.7,131.5,128.3,127.9,130.4z M138,119.7l0.9-1l-0.8-4.4
		l-0.6-0.2l0.4-0.8l-1.9-0.6l-0.4,1.6l-0.2,2l-0.4,0.4l-3.5-3.5c6.9-7.2,11.3-17,11.7-27.7h11.5c-0.4,13.9-6.1,26.5-15.1,35.8
		L138,119.7z M141.1,122.8c9.4-9.7,15.4-22.9,15.8-37.4h11.5c-0.4,17.7-7.6,33.7-19.1,45.5L141.1,122.8z M72.1,111.7
		c-0.8-0.9-1.6-1.8-2.4-2.7l0.3-2.9l-1.2-2.8L68.6,99l-1.4-2.6l0.3-1.6l-1.6-3.1l-1.4-0.7l0.6-1.7l-0.6-1.3l0.6-1.5h1.6l0.6-0.9h2.7
		l0.4,0.8L69.8,89l-0.3,0.5l1,2.2L69.8,92l-0.5-0.6l-0.2,0.2l0.5,1.3l0.8,1.5l0.4,0l0.2-1.4l-0.4-0.5l0-0.9l-0.1-1.9l0.6-3.4
		l-0.5-0.9h1.9c0.4,7,3.3,13.4,7.9,18.2L72.1,111.7z M64.6,89.3L63.5,91h-1.9l-0.1-0.1c-0.3-1.8-0.5-3.6-0.6-5.4h3.5l-0.8,2.8
		L64.6,89.3z M68.3,81.4l0.2-2.3l1.4-0.8l2.4,0.4l0.4,0.4c-0.2,1.3-0.3,2.6-0.4,3.9h-2.8L68.3,81.4z M80,90l0.6-0.3l1.5,1.1
		l-0.6,0.5l1.7,1.1L83,91.3l0.9-1.5l0.9,1l1,1.4L84,92.6l0.8,1.6l1.2-0.6L85.9,93l0.9-0.6l0.5-2.5c0.7,1.5,1.6,2.8,2.6,4l-8.1,8.1
		c-3.9-4.1-6.4-9.3-7.1-15.2l1.7,1.8l1.6,0L80,90z M71.7,56.6l8.1,8.1c-1.7,1.9-3.1,3.9-4.3,6.2l-0.6,0l-1.1,0.4l-0.4,0l-1.2,1.1
		l1.5-0.2l1.4-0.3c-0.1,0.2-0.2,0.3-0.2,0.5l-1.2,0.8H73l-1.8,1.4l-1.7-0.1L67,78.8l0.5,0.9l-1.4,1.5L66,83.2h-5.1
		C61,72.9,65.1,63.6,71.7,56.6z M61.2,117.7l2.6,1.5l0.5,0.4l-1.9,1.9c-0.9-0.9-1.7-1.8-2.5-2.8L61.2,117.7z M58.6,85.4
		c0,1.1,0.1,2.2,0.3,3.3l-1.4,0.3l-0.3,1.4l-2.9,3.7l0.1,5.1l-3,1l-1.6,0c-1.5-4.7-2.4-9.7-2.6-14.9L58.6,85.4L58.6,85.4z
		 M47.3,100.3l-0.7-0.1L46,99.4l-3.2-0.3l1,1.4l-3-0.6l0.8-0.7l-0.7-0.7l-2.2,0.9l-0.8,1.4l0.3,3.3l2.5,5.9l1.2,1.9l0.7,0.2
		l-1.9-3.6l-0.4-1.8l0.4-0.4l-0.3-1l1.1,0.1l1.7,2.6l0.4,0.2l-0.1-1.9l0.7,0.4l0.2,1l1.8,0.5l0.8-0.6l0.3,0.2l0,1.4l0.8,1l1,0.2
		l2.1,3.6l1.3,0.4l0.4-1.7c2.2,3.7,4.9,7.1,7.9,10.2l-8.1,8.1c-11.6-11.8-18.9-27.9-19.3-45.7h11.5C45,90.6,45.9,95.6,47.3,100.3z
		 M52.2,37.1l8.1,8.1C50.9,55.1,45,68.5,44.9,83.2H33.4C33.6,65.3,40.7,49.1,52.2,37.1z M135.2,32.9l-0.7-1.1l-1.5-0.8l-1.2,0.9
		l1.5,0.8L135,34L135.2,32.9z M128.3,65.3l0.1,0.9l2-0.6l0.6-1.2l-1.4-1.8l0.7-1.1l1.9,1.3l0.3-0.3l-0.4-0.3l-0.4-0.8l0.8-0.4
		l-0.8-1l-1.7,0.9l-0.6,1.1l-0.4,0.9l0.8,1.3l-0.3,0.6L128.3,65.3z M45.4,116.7l0.1-0.5l-1-2.2l-1.2-0.4L45.4,116.7z M92.3,73.6
		c0,1.9,1.2,3.3,3.3,4.4c0,0,0-0.3,0-0.8l-1.3-1.3l0.7-1.3l0.6-0.2c0-2.2-0.1-4.8-0.1-5.1l-0.1,0C93.3,70.4,92.3,71.8,92.3,73.6z"/>
	<g>
		<path class="st0" d="M105.1,123.3c3.6,1.8,6.9,4.3,8.3,9.1c0.6-7.9-3.8-11.3-8.2-13.6C105.2,118.8,105.1,123.3,105.1,123.3z"/>
		<path class="st0" d="M129,43.2c0-7.2-5.2-15.1-17.9-17.9c-0.9-0.2-2.4-0.3-3.9-0.5c0,1.1-0.1,3.6-0.1,3.6c0,0.8-0.1,3.7-0.1,4.3
			c1.2,0.1,2,0.2,2.4,0.3c7.4,1.8,10.1,6,10.1,10.2c0,6.8-5.8,9.4-13,11.3c-0.8,0.2-1.6,0.4-2.4,0.6c-2.2,0.5-4.4,1.1-6.6,1.7
			c-0.8,0.2-1.6,0.4-2.4,0.7l0,0c-7.9,2.4-14.8,6.2-14.8,16c0,9.7,7.8,13.3,15.4,15.7c-0.1-2.8-0.1-5.6-0.2-8.4
			c-3.4-1.6-5.7-3.6-5.7-7.1c0-3.4,2.1-5.4,5.4-6.9c0.7-0.3,1.5-0.6,2.3-0.9c1.9-0.7,4-1.2,6.2-1.7c0.8-0.2,1.6-0.4,2.4-0.6l0,0
			C117,60.9,129,57.6,129,43.2z"/>
		<path class="st0" d="M90.6,111.7c0,3.9,2.9,6.1,5.8,7.7c0-0.7-0.1-6.7-0.1-6.8c0.1-1.2,1.2-1.9,2.2-2.4c1.4-0.7,2.8-1.1,4.6-1.8
			c0.9-0.3,1.6-0.6,2.4-0.8l0,0c5.8-1.8,12.5-4,12.5-11c0-7.1-5.8-10-12-12.1c0,2.2-0.1,5.5-0.2,7.8c2.7,1,4.4,2.3,4.4,4.3
			c0,2.5-2.7,4-4.6,4.7c-0.8,0.3-2,0.7-2.3,0.8c-1.5,0.5-3.2,1-4.8,1.6c-0.8,0.3-1.6,0.6-2.4,1C93.4,106.1,90.5,108.1,90.6,111.7z"
			/>
		<path class="st0" d="M94.5,25.9c-3.9,1.1-6.1,2.6-7,2.8c-2.5,0.8-6,1-9.7,4.9c-0.6,0.7-2.2,2.7-3.3,4.3c-1.1,1.6-1.1,4.1-1.9,5.5
			c-1.2,2-0.9,3.1-0.9,3.1l0,0.1c0,0.2-0.3,1.3-1.3,2.5c-1.2,1.3-2.8,2.1-4.7,1.8c1.7,0.8,3.9-0.3,3.9-0.3s-0.4,1.2-0.9,3.3
			c1.9-4.2,3.6-5.8,4.1-6.2c0.8,0.2,2.5,0.1,5.5-1.7c3.5-2,8.7-5.3,10.2-7.3c1.6-2.2,3.8-3.7,6.2-4.7C94.6,31,94.5,28.3,94.5,25.9z
			 M79.8,39.1L78,39.5l2.1-3.5l2.5,0.1L79.8,39.1z"/>
	</g>
	<g>
		<path class="st0" d="M101.7,111.2c-0.3,0.1-1.2,0.5-1.8,0.7c-0.6,0.2-1.3,0.5-1.3,0.7c0,0.1,0.6,30.4,0.6,31.1
			c0,6.2,3.2,6.3,3.2,0c0-0.4,0.6-32.9,0.6-32.9S102.2,111,101.7,111.2z"/>
		<path class="st0" d="M98.4,101.2c1-0.4,2-0.6,2.9-0.9c0.7-0.2,1.3-0.4,1.9-0.6c0-1.9,0.6-28.3,0.7-33.1c-2.4,0.6-4.4,1.2-6.1,1.8
			C97.8,71.9,98.3,98.3,98.4,101.2z"/>
		<path class="st0" d="M101,0c-8.9,0-5.1,13.3-4.4,17.6c0,0.2,0.7,30,0.9,36.8c1.4-0.4,2.7-0.7,4-1c0.9-0.2,1.8-0.4,2.7-0.7
			c0.1-6.6,0.8-35,0.8-35.2C105.5,12.9,110.2,0,101,0z"/>
	</g>
</g>
</svg>
