<?xml version="1.0" encoding="utf-8"?>
<!-- Generator: Adobe Illustrator 24.1.0, SVG Export Plug-In . SVG Version: 6.00 Build 0)  -->
<svg version="1.1" id="SPANISH" xmlns="http://www.w3.org/2000/svg" xmlns:xlink="http://www.w3.org/1999/xlink" x="0px" y="0px"
	 viewBox="0 0 390.04 258.36" style="enable-background:new 0 0 390.04 258.36;" xml:space="preserve">
<style type="text/css">
	.st0{fill:#0093D5;}
</style>
<g>
	<g>
		<path class="st0" d="M248.62,27.98c3.32,3.95,9.1,6.28,12.5,10.24c-2.43-11.7-11.47-21.27-22.15-23.54
			C244.18,18.59,245.31,24.03,248.62,27.98z M120.21,57.65c7.35-16.01,18.34-12.62,22.99-27.88c-2.62,4.68-14.62,6.65-20.19,18.65
			c2.84-7.13,1.42-18.03,6.22-23.92C114.86,35.11,120.98,52.27,120.21,57.65z M133.54,96.06c1.32,6.24-2.56,15.24,3.61,23.84
			c-6.39-7.16-19.91-8.98-25.44-19.87c6.9,26.61,24.86,21.12,32.97,26.91C138.01,117.36,143.46,111,133.54,96.06z M131.46,112.77
			c-3.98-14.87,3.09-20-2.28-34.27c-0.56,8.04-5.92,11.96-2.3,26.65c-6.38-12.45-16.25-17.09-19.11-25.63
			C107.97,102.87,126.73,106.32,131.46,112.77z M160.27,137.7c-5.52-7.64-1.75-11.96-17.26-25.84c3.29,5.07-0.1,11.44,10.36,21.35
			c-10.23-6.04-24.36-3.46-31.16-11.52C133.89,144.05,154.45,134.92,160.27,137.7z M235.34,133.21
			c10.46-9.91,7.08-16.28,10.36-21.35c-15.51,13.88-11.75,18.2-17.27,25.84c5.83-2.78,26.38,6.36,38.07-16.01
			C259.7,129.75,245.58,127.17,235.34,133.21z M251.57,119.9c6.16-8.6,2.29-17.6,3.61-23.84c-9.92,14.93-4.47,21.3-11.14,30.88
			c8.11-5.78,26.07-0.3,32.97-26.91C271.47,110.92,257.95,112.74,251.57,119.9z M226.79,138.75c-6.07-1.62-12.31-2.42-16.96-2.54
			c-5.8-0.14-10.98,0.95-15.47,2.63c-4.49-1.67-9.67-2.77-15.47-2.63c-4.65,0.12-10.9,0.92-16.96,2.54
			c-9.33,2.49-17.4,4.41-24.43,0.85c6.74,5.98,14.6,8.11,25.96,6.89c9.46-1.02,17.09-5.75,26.01-5.68c0.12,0,0.23,0.01,0.35,0.01
			c-9.4,4.74-14.7,11.43-14.7,11.43l4.3,0.58c0,0,4.53-9.1,14.94-11.46c10.41,2.36,14.94,11.46,14.94,11.46l4.3-0.58
			c0,0-5.3-6.69-14.7-11.43c0.12,0,0.23-0.01,0.35-0.01c8.92-0.06,16.55,4.66,26.01,5.68c11.36,1.22,19.23-0.91,25.96-6.89
			C244.18,143.16,236.11,141.24,226.79,138.75z M129.82,62.38c-3.85,7.38-9.83,9.07-9.19,24.32c-3.22-13.54-10.94-18.58-10.83-27.24
			c-5.37,22.58,8.96,25.26,12.64,34.73C121.89,80.62,130.55,77.89,129.82,62.38z M135.2,44.94c-1.34,1.87-2.28,2.67-5.85,5.61
			c-4.87,4.01-8.76,9.29-10.4,16.98c0.37-8.28-4.74-20.17-1.34-28.85c-13.17,18.6,0.75,29.73,1.24,36.46
			C122.25,62.19,130.1,62.09,135.2,44.94z M269.77,67.53c-1.64-7.69-5.53-12.97-10.4-16.98c-3.57-2.94-4.51-3.74-5.85-5.61
			c5.1,17.15,12.95,17.25,16.35,30.21c0.49-6.73,14.41-17.87,1.24-36.46C274.51,47.36,269.4,59.25,269.77,67.53z M280.94,79.52
			c-2.86,8.54-12.73,13.17-19.11,25.63c3.61-14.7-1.74-18.62-2.3-26.65c-5.37,14.28,1.7,19.4-2.28,34.27
			C261.98,106.32,280.74,102.87,280.94,79.52z M258.89,62.38c-0.73,15.51,7.93,18.24,7.39,31.81c3.68-9.46,18.01-12.15,12.64-34.73
			c0.1,8.66-7.61,13.69-10.83,27.24C268.72,71.45,262.74,69.76,258.89,62.38z M140.08,27.98c3.32-3.95,4.44-9.39,9.65-13.31
			c-10.68,2.28-19.72,11.84-22.15,23.54C130.98,34.26,136.77,31.93,140.08,27.98z M245.51,29.77c4.65,15.26,15.64,11.87,22.99,27.88
			c-0.77-5.38,5.35-22.54-9.02-33.15c4.81,5.89,3.38,16.79,6.22,23.92C260.13,36.42,248.13,34.45,245.51,29.77z M208.22,38.43
			c-2.76-1.14-5.7-1.96-8.75-2.38c-0.01,0.65-0.03,1.31-0.04,1.96c2.82,0.41,5.52,1.17,8.08,2.22
			C207.84,39.69,208.08,39.1,208.22,38.43z M205.99,19.55l0.59-0.53l-1.12-0.47l-2.94-0.06l-0.76,0.53l-1.73-0.14L200,19.3
			c1.1,0.07,2.18,0.18,3.03,0.32l1.43-0.13L205.99,19.55z M200.33,82.88c0-0.5-0.66-0.99-1.64-1.45l-0.18,0
			c-0.01,0.41-0.04,2.39-0.06,3.37C199.66,84.24,200.33,83.66,200.33,82.88z M166.31,45.55c0.07-0.4,0.14-0.72,0.25-1.08
			c-0.37,0.09-0.79,0.13-1.2,0.12L166.31,45.55z M194.42,131.95c33.03,0,59.91-26.88,59.91-59.91c0-30.99-23.65-56.55-53.84-59.61
			c-0.02,0.11-0.05,0.23-0.07,0.34c-0.12,0.58-0.23,1.11-0.32,1.57c13.52,1.32,25.7,7.31,34.89,16.33l-6.61,6.61l0.25-1.16
			l-0.86-0.39l-1.19-0.07l0.25-0.76l-0.8-2.71l-1.64-1.8l-5.17-2.73l-0.44,0.47l-0.94,0.27c1.78,2.61,2.73,5.63,2.73,8.69
			c0,0.4-0.01,0.79-0.03,1.17l2.56,3.22l-1.2,0.28l0.79,1.2l-2.26,2.26l-0.91-1.73c-0.43,1.21-1.01,2.33-1.71,3.37
			c0.17,0.16,0.34,0.31,0.51,0.47l-6.96,6.96c-0.42-0.4-0.86-0.79-1.31-1.16c-0.67,0.31-1.35,0.6-2.04,0.87
			c0.2,0.15,0.4,0.3,0.59,0.46l-0.35,0.35l-0.81,0.46l-0.3,0.81l-0.51-0.51l-1.47,0.49l0.4,0.64l1.01-0.27l0.66,0.05l0.05-0.36
			l0.51-0.25l0.15-0.3l0.91-0.25l0.71-0.03c0.14,0.12,0.28,0.25,0.42,0.38l-2.76,2.76l-0.21-0.3l-2.88,0.48l-0.64,0.64l-0.63,0.08
			l1.79-1.72l-0.64-0.32l-1.67,2.24l0.49-0.05l-0.03,0.82l0.61,0.23l0.12,0.88l-1-0.2l-1.05,0.2l-2.53-1.3c0,0-0.14,6.8-0.21,10.22
			c5.98,2.01,12.32,4.91,12.32,12.54c0,3.35-1.45,6.06-4.3,8.05l0.02,0.01c-0.04,0.03-0.09,0.06-0.13,0.09l-0.01-0.01
			c-0.06,0.04-0.12,0.09-0.19,0.13c-2.42,1.6-5.53,2.45-8.22,3.29c-0.01,0.01-0.08,5.34-0.08,5.34c4.29,2.13,9.49,5.23,9.01,14.1
			c-0.06,2.18-0.91,2.78-1.64,2.98v0c-2.51,0.62-5.1,1.03-7.75,1.22c-0.01,0.69-0.03,1.35-0.04,1.95
			c11.54-0.79,21.98-5.67,29.87-13.19l6.96,6.96c-10.42,10.02-24.58,16.2-40.15,16.2c-15.49,0-29.57-6.1-39.98-16.03l6.96-6.96
			c7.81,7.38,18.09,12.18,29.44,13.02c-0.01-0.6-0.02-1.26-0.03-1.95c-10.81-0.84-20.58-5.42-28.03-12.44l1.86-1.86l2.55,0.29
			l1.36-1.46l3.56,0.12l0.53-1.23l-0.12-0.52c5.15,3.91,11.37,6.48,18.14,7.19c-0.01-0.76-0.03-1.42-0.04-1.96
			c-7.47-0.83-14.23-4.06-19.48-8.91l6.96-6.96c1.69,1.51,3.59,2.79,5.64,3.79c0.16-0.66,0.39-1.28,0.7-1.83
			c-1.8-0.89-3.48-2.01-4.97-3.34l6.98-6.98c1.11,0.89,2.37,1.59,3.73,2.08c-0.01-0.69-0.03-1.42-0.04-2.1
			c-0.83-0.36-1.6-0.82-2.3-1.36l1.97-1.97c-0.69-0.21-1.39-0.43-2.08-0.67l-1.31,1.32c-0.67-0.74-1.23-1.57-1.67-2.48
			c-1.2-0.53-2.36-1.13-3.45-1.85c-4.29-2.82-6.46-6.8-6.46-11.83c0-3.84,1.07-6.75,2.82-9l-6.94-6.94c5-4.78,11.43-8.07,18.58-9.15
			c-0.01-0.67-0.03-1.33-0.04-1.96c-7.67,1.1-14.57,4.61-19.92,9.73l-1.17-1.17c-0.27,0.47-0.58,1.06-0.93,1.81l0.74,0.74
			c-5.98,6.37-9.69,14.87-9.84,24.24h-9.85c0.16-12.08,4.97-23.05,12.73-31.21l3.13,3.13c0.14,0,0.29,0,0.44-0.01
			c0.55-0.04,1.17-0.21,1.78-0.52l-3.98-3.98c2.1-2.03,4.4-3.87,6.85-5.47c0.2-0.66,0.38-1.24,0.49-1.45
			c0.12-0.24,0.75-1.07,1.51-2.02c-3.74,2.07-7.17,4.62-10.22,7.57l-6.96-6.96c9.13-8.88,21.16-14.79,34.52-16.15
			c-0.04-0.24-0.08-0.42-0.08-0.42c-0.09-0.46-0.19-0.97-0.29-1.5c-30.11,3.14-53.65,28.66-53.65,59.59
			C134.51,105.07,161.38,131.95,194.42,131.95z M207.35,90.56l-0.01-0.05l0.02,0.04C207.36,90.55,207.36,90.55,207.35,90.56z
			 M236.36,32.05c9.79,10.27,15.86,24.13,16.02,39.37h-9.84c-0.09-7.55-1.94-14.68-5.14-21.02l0.09-0.18l0.68,0.36l0.16-0.52
			l-1.76-3.08l-2.08-2.89l-2.45-2.04c-0.84-1.05-1.72-2.07-2.64-3.04L236.36,32.05z M223.82,44.67l2.37,0.11l0.56,0.68l-0.28,1
			l3.29,2.04l0.64-0.08l4.2,4.81l1.72-0.6c2.66,5.73,4.19,12.09,4.27,18.79h-9.85c-0.04-2.57-0.36-5.07-0.91-7.49l0.45-0.61
			l0.61-3.08l-0.46-3.31l-1.19-3.81l-2.75-4.02l0.66,0.35l0.34-0.34l-2.2-1.49l-0.15,0.49l2.2,3.15l1.25,2.59l0.89,2.56l0.28,1.72
			l0.46,2.9l-0.83,0.06c0,0-0.95-1.77-1.24-2.51l0.44-0.66l-0.84-1.2v-1.2l-0.6-0.76l-0.74,0.1c-0.27-0.5-0.55-0.99-0.84-1.47
			l0.53,0.27l0.14-0.14l-0.28-0.62l0.64-0.36l-0.29-0.36l-0.95,0.36l0.35-1.5l-0.56-0.32l-0.51,1.19c-1.08-1.61-2.27-3.13-3.58-4.55
			L223.82,44.67z M221.85,67.75l1.76-0.96l1.8-0.28l0.4-0.88l1-0.6l0.39-0.84l0.31-1.46c0.14,0.51,0.28,1.03,0.4,1.55l-0.96,2.85
			l-0.04,0.96l1.39-1.85c0.29,1.69,0.46,3.42,0.49,5.18h-8.63l-0.2-0.75l1-0.8l0.2-0.48l0.44-0.32l1.16-0.12l0.12-0.52L221.85,67.75
			z M210.03,60.98l0.88-0.2l-0.04-0.21l-0.88-0.59l0.3-1.86l1.05-1.05c0.66,0.75,1.27,1.54,1.83,2.37l-0.37,1.14l-0.96-0.68
			l-0.73,0.2l0.36,0.68h0.36l-0.4,1l-0.28-0.4L210.03,60.98z M213.8,93.68l-2.13-0.61l-0.64,0.24l-1.2-0.92l-1.13-0.41
			c0.56-0.4,1.1-0.82,1.62-1.27l1.75,1.24l1.34,0.71l0.66,0.66L213.8,93.68z M212.72,55.69l6.97-6.96c1.63,1.77,3.07,3.71,4.31,5.79
			l-0.87,0.24l0.05,1.56l2.61,1.65c0.64,1.42,1.18,2.89,1.63,4.4l-0.46,0.67l-0.94,0.6l-0.24,1.45l-0.64,0.36l-0.53,0.64l-0.55-0.2
			l-0.96-0.04l0.56-0.76l0.4-1.96l0.64-0.4l-1.88-1.8l-1.4,0.48l-0.32,1.32l-0.88,0.96l-0.92-0.76l-0.33-0.81l0.52-0.33l0.29,0.53
			l0.43-0.16l-0.19-0.89l-0.62-0.04l-0.04,0.36l-0.4,0.08l-2.16-2.52l-0.73-0.56l0.28-0.3l0.66-0.23l-0.61-0.24
			c0,0-0.76,0.17-0.85,0.17l0.43,0.55l-1.1-0.02C214.23,57.52,213.51,56.58,212.72,55.69z M216.26,92.76l-0.94-0.94l0.72-0.94
			l0.91-1.85l-0.36-0.52l0.61-1.37l-0.07-1.24l-0.36-1.28l-0.86-0.31l-0.32,0.72l-0.51-0.14c0.74-1.18,1.52-2.29,2.06-3.6l0.89-0.38
			l0.5-0.67l0.24,0.28l0.6-0.72l-0.48-0.6l0.44-0.12l0.8,0.32l1.52,0.04l0.92-0.48l2.4-0.64l-0.45-0.8l-0.15-0.97l1.29,0.57
			l0.48-0.28l-0.24-1l-1.58,0.59l-1.74-0.35l-1.33-2.71h7.54c-0.33,8.67-3.89,16.52-9.5,22.39l-1.04-1.03l0.44-1.38l-0.8-3.04
			L216.26,92.76z M217.6,111.97l0.93-1.99l-0.36-0.88l1.36-1.2v-0.72l-1.16-0.72l0.96-1.92l1.44-1.88l-1.44-1.56h-1.08l-0.67-1.09
			c0.58-0.48,1.15-0.97,1.7-1.49l6.97,6.97C223.62,107.96,220.73,110.14,217.6,111.97z M226.27,102.77l0.77-0.86l-0.72-3.81
			l-0.51-0.2l0.31-0.64l-1.64-0.52l-0.32,1.36l-0.16,1.72l-0.35,0.32l-3-3c5.97-6.23,9.74-14.57,10.07-23.77h9.86
			c-0.34,11.92-5.22,22.72-12.97,30.73L226.27,102.77z M228.98,105.48c8.1-8.37,13.2-19.65,13.54-32.11h9.85
			c-0.34,15.17-6.55,28.91-16.42,39.06L228.98,105.48z M169.73,95.94c-0.71-0.74-1.4-1.51-2.04-2.3l0.3-2.49l-1.04-2.39l-0.24-3.74
			l-1.17-2.27l0.25-1.41l-1.41-2.7l-1.23-0.61l0.5-1.43l-0.51-1.14l0.51-1.29h1.35l0.47-0.79h2.3l0.36,0.68l-0.43,2.34l-0.28,0.4
			l0.86,1.88l-0.57,0.31l-0.4-0.5l-0.17,0.19l0.39,1.12l0.67,1.3l0.32-0.03l0.18-1.17l-0.33-0.43l-0.04-0.79l-0.1-1.63l0.48-2.89
			l-0.47-0.78h1.65c0.33,6.04,2.85,11.5,6.77,15.61L169.73,95.94z M163.22,76.69l-0.93,1.46h-1.6l-0.12-0.09
			c-0.27-1.53-0.44-3.09-0.5-4.68h2.97l-0.71,2.37L163.22,76.69z M166.45,69.93l0.18-1.96l1.16-0.67l2.09,0.37l0.31,0.38
			c-0.18,1.11-0.29,2.24-0.32,3.38h-2.36L166.45,69.93z M176.45,77.29l0.49-0.25l1.29,0.97l-0.56,0.46l1.45,0.96l-0.09-1.03
			l0.77-1.28l0.81,0.85l0.83,1.19l-1.49,0.33l0.68,1.35l1.04-0.55l-0.13-0.43l0.77-0.53l0.46-2.14c0.56,1.27,1.33,2.44,2.26,3.46
			l-6.96,6.96c-3.32-3.49-5.54-8.03-6.1-13.07l1.42,1.52l1.34-0.03L176.45,77.29z M169.32,48.56l6.96,6.96
			c-1.45,1.59-2.7,3.38-3.69,5.32l-0.49-0.03l-0.98,0.31l-0.34-0.03l-1.05,0.97l1.32-0.21l1.18-0.3c-0.07,0.15-0.14,0.3-0.21,0.45
			l-1.04,0.64h-0.49l-1.53,1.16l-1.47-0.12l-2.14,3.99l0.43,0.8l-1.17,1.29l-0.18,1.68h-4.4C160.2,62.6,163.69,54.57,169.32,48.56z
			 M160.32,101.07l2.21,1.29l0.46,0.31l-1.6,1.6c-0.75-0.77-1.47-1.58-2.17-2.4L160.32,101.07z M158.12,73.37
			c0.04,0.96,0.12,1.91,0.22,2.84l-1.21,0.27l-0.25,1.23l-2.51,3.19l0.06,4.39l-2.58,0.86l-1.41,0.01
			c-1.31-4.05-2.07-8.34-2.2-12.79H158.12z M148.4,86.1l-0.58-0.11l-0.55-0.61l-2.76-0.25l0.86,1.17l-2.56-0.49l0.67-0.62
			l-0.62-0.61l-1.85,0.8l-0.66,1.23l0.25,2.8l2.12,5.09l1.03,1.6l0.59,0.22l-1.61-3.05l-0.35-1.55l0.36-0.38l-0.22-0.86l0.96,0.13
			l1.49,2.25l0.37,0.15l-0.04-1.64l0.6,0.35l0.13,0.89l1.56,0.41l0.65-0.47l0.23,0.16l-0.03,1.2l0.69,0.85l0.83,0.19l1.83,3.09
			l1.1,0.31l0.34-1.44c1.92,3.18,4.21,6.11,6.79,8.76l-6.96,6.96c-9.97-10.17-16.24-23.98-16.59-39.23h9.85
			C146.43,77.79,147.16,82.06,148.4,86.1z M152.64,31.89l6.96,6.96c-8.11,8.5-13.14,19.97-13.3,32.58h-9.84
			C136.62,56.1,142.75,42.18,152.64,31.89z M223.91,28.3l-0.6-0.96l-1.28-0.64l-1,0.76l1.28,0.68l1.44,1.04L223.91,28.3z
			 M217.94,56.08l0.04,0.76l1.71-0.51l0.52-1.04l-1.18-1.54l0.63-0.94l1.59,1.13l0.29-0.23l-0.32-0.22l-0.36-0.68l0.65-0.38
			l-0.64-0.84l-1.49,0.76l-0.52,0.9l-0.3,0.82l0.66,1.11l-0.24,0.52L217.94,56.08z M146.76,100.24l0.12-0.44l-0.89-1.93l-1.05-0.39
			L146.76,100.24z M187.01,63.24c0,1.65,1.01,2.82,2.84,3.82c0,0-0.01-0.28-0.02-0.73l-1.15-1.15l0.61-1.11l0.5-0.14
			c-0.04-1.93-0.08-4.08-0.08-4.39l-0.09,0.01C187.93,60.48,187.01,61.62,187.01,63.24z"/>
		<g>
			<path class="st0" d="M198.01,105.91c3.09,1.56,5.94,3.72,7.13,7.82c0.52-6.78-3.28-9.72-7.05-11.71
				C198.09,102.03,198.01,105.91,198.01,105.91z"/>
			<path class="st0" d="M218.54,37.1c0-6.16-4.47-12.99-15.42-15.41c-0.81-0.18-2.05-0.3-3.34-0.39c-0.02,0.93-0.07,3.05-0.07,3.05
				c-0.01,0.67-0.07,3.13-0.08,3.66c1.01,0.09,1.76,0.21,2.1,0.3c6.36,1.52,8.64,5.17,8.64,8.78c0,5.84-5,8.05-11.14,9.72
				c-0.67,0.18-1.35,0.36-2.04,0.53c-1.86,0.46-3.79,0.91-5.68,1.42c-0.68,0.18-1.35,0.38-2.02,0.58l0,0
				c-6.81,2.08-12.67,5.36-12.67,13.77c0,8.34,6.68,11.45,13.2,13.46c-0.05-2.4-0.09-4.81-0.14-7.23c-2.88-1.35-4.91-3.13-4.91-6.12
				c0-2.92,1.85-4.68,4.67-5.96c0.63-0.28,1.3-0.54,2.01-0.78c1.62-0.55,3.45-1.02,5.36-1.48c0.67-0.16,1.35-0.33,2.04-0.49l0,0
				C208.25,52.29,218.54,49.42,218.54,37.1z"/>
			<path class="st0" d="M185.55,95.9c0.02,3.37,2.49,5.2,4.97,6.59c-0.01-0.57-0.11-5.78-0.11-5.87c0.05-1.04,1.06-1.66,1.87-2.05
				c1.2-0.56,2.41-0.97,3.95-1.51c0.73-0.25,1.37-0.5,2.07-0.72l0,0c4.98-1.5,10.74-3.41,10.74-9.47c0-6.07-4.94-8.55-10.34-10.42
				c-0.04,1.93-0.09,4.75-0.13,6.7c2.28,0.9,3.79,1.99,3.79,3.72c0,2.17-2.32,3.42-3.96,4.05c-0.68,0.27-1.73,0.61-2.01,0.7
				c-1.33,0.41-2.75,0.89-4.08,1.38c-0.7,0.26-1.38,0.55-2.02,0.87C187.95,91.08,185.53,92.83,185.55,95.9z"/>
			<path class="st0" d="M188.92,22.27c-3.31,0.95-5.27,2.2-6,2.45c-2.15,0.71-5.18,0.84-8.3,4.24c-0.56,0.61-1.91,2.31-2.88,3.71
				c-0.94,1.36-0.98,3.55-1.68,4.72c-1,1.7-0.76,2.67-0.76,2.67l0.03,0.05c-0.04,0.21-0.24,1.11-1.15,2.13
				c-1.05,1.16-2.42,1.8-4.06,1.54c1.42,0.71,3.39-0.28,3.39-0.28s-0.38,1.08-0.75,2.83c1.6-3.62,3.06-4.94,3.52-5.31
				c0.69,0.16,2.11,0.09,4.75-1.42c2.99-1.71,7.48-4.51,8.75-6.28c1.37-1.91,3.26-3.17,5.29-3.99
				C189.03,26.65,188.97,24.27,188.92,22.27z M176.31,33.57l-1.54,0.33l1.84-3.02l2.16,0.07L176.31,33.57z"/>
		</g>
		<g>
			<path class="st0" d="M195.09,95.48c-0.29,0.1-1.04,0.42-1.51,0.58c-0.5,0.18-1.14,0.44-1.13,0.61c0,0.05,0.48,26.11,0.48,26.69
				c0,5.37,2.74,5.4,2.74,0c0-0.38,0.55-28.25,0.55-28.25S195.55,95.31,195.09,95.48z"/>
			<path class="st0" d="M192.26,86.88c0.85-0.3,1.7-0.56,2.49-0.8c0.59-0.18,1.14-0.35,1.65-0.52c0.03-1.64,0.5-24.33,0.58-28.45
				c-2.04,0.51-3.81,0.99-5.27,1.52C191.78,61.72,192.21,84.4,192.26,86.88z"/>
			<path class="st0" d="M194.54,0c-7.68,0-4.42,11.39-3.81,15.1c0.03,0.17,0.62,25.73,0.74,31.59c1.17-0.31,2.32-0.59,3.45-0.87
				c0.8-0.2,1.58-0.39,2.32-0.58c0.12-5.65,0.68-30.03,0.7-30.19C198.4,11.08,202.42,0,194.54,0z"/>
		</g>
	</g>
	<path class="st0" d="M293.34,165.54h-6.09l-3.21,8.32h4.18L293.34,165.54z M81.17,205.47c6.46,0,13.36-5.19,13.36-19.75
		c0-14.56-6.9-19.75-13.36-19.75c-6.46,0-13.36,5.19-13.36,19.75C67.81,200.28,74.71,205.47,81.17,205.47z M81.17,171.8
		c4.28,0,6.64,4.95,6.64,13.92s-2.36,13.92-6.64,13.92c-4.28,0-6.63-4.95-6.63-13.92S76.89,171.8,81.17,171.8z M158.15,199.73
		v-12.22c0-6.9-1.62-11.49-9.54-11.49c-3.83,0-6.22,1.26-7.8,2.09l-0.14,0.08l0.37,6.13l0.39-0.37c1.02-0.98,3.54-2.65,6.47-2.65
		c3.86,0,4.28,3.55,4.28,5.07c0,0,0,0.49,0,0.78c-0.31,0-0.93,0-0.93,0c-6.07,0-13.03,1.11-13.03,9.75c0,5.55,3.78,8.45,7.51,8.45
		c3.41,0,5.3-1.86,6.65-3.84c0.02,1.13,0.07,2.26,0.32,3.22l0.05,0.19h5.76l-0.04-0.28C158.35,203.7,158.15,201.8,158.15,199.73z
		 M152.18,192.56c0,5.28-1.43,7.73-4.51,7.73c-2.11,0-3.48-1.59-3.48-4.04c0-3.56,2.24-5.02,7.72-5.02c0,0,0.13,0,0.27,0
		C152.18,191.59,152.18,192.56,152.18,192.56z M176.7,187.9v17.03h6.35v-18.28c0-7.05-2.5-10.62-7.42-10.62
		c-3.67,0-5.45,2.57-6.34,4.19c-0.03-0.76-0.07-1.81-0.07-1.81l-0.1-1.95l-0.24,0h-5.75l0.03,0.28c0.13,1.12,0.19,2.62,0.19,4.59
		v23.6h6.35v-16.54c0-2.36,0.51-6.32,3.9-6.32C175.83,182.06,176.7,183.7,176.7,187.9z M134.39,201.74v-20.64l0.2-4.6l-0.26-0.05
		h-5.52l-0.1,1.99c0,0-0.05,1.29-0.08,2c-1.21-2.26-2.95-4.43-6.37-4.43c-5.73,0-9.02,5.38-9.02,14.75
		c0,13.13,6.69,14.15,8.74,14.15c3.54,0,5.27-2.12,6.25-4.05c0,0.79,0,1.74,0,1.74c0,3.98-0.7,8.55-6.16,8.55
		c-2.18,0-4.62-0.81-7.03-2.35l-0.36-0.23l-0.36,6.58l0.16,0.07c2.77,1.17,5.61,1.76,8.44,1.76
		C133.08,216.98,134.39,208.84,134.39,201.74z M123.34,199.48c-1.65,0-3.57-2.38-3.57-9.09c0-5.93,1.27-8.72,4-8.76
		c0.87-0.02,1.64,0.3,2.3,0.94c1.39,1.37,2.16,4.12,2.16,7.77C128.23,196.75,126.76,199.48,123.34,199.48z M110.01,176.02
		c-3.5,0-5.29,2.99-6.06,4.78c-0.03-0.91-0.07-2.07-0.07-2.07l-0.1-2.27l-0.24,0h-5.56l0.03,0.28c0.13,1.12,0.19,2.62,0.19,4.59
		v23.6h6.35v-15.56c0-6.17,3.67-6.65,4.79-6.65c0.52,0,1.01,0.08,1.58,0.26l0.33,0.1v-6.84l-0.51-0.11L110.01,176.02z
		 M216.38,199.32c0,0-9.51,0-10.32,0c0.43-0.72,9.99-16.79,9.99-16.79v-6.08h-16.39v5.6c0,0,9.04,0,9.85,0
		c-0.44,0.73-10.18,16.73-10.18,16.73v6.13h17.05V199.32z M188.67,204.93h6.35v-28.47h-6.35V204.93z M302.5,181.32v23.6h6.35v-16.54
		c0-2.36,0.51-6.32,3.9-6.32c1.86,0,3.1,0.99,3.1,5.83v17.03h6.35v-18.28c0-7.05-2.5-10.62-7.42-10.62c-3.67,0-5.45,2.56-6.33,4.19
		c-0.03-0.76-0.07-1.8-0.07-1.8l-0.1-1.95l-0.24,0h-5.75l0.03,0.28C302.44,177.86,302.5,179.36,302.5,181.32z M298.09,190.67
		c0-13.22-7.63-14.64-10.91-14.64c-3.29,0-10.95,1.43-10.95,14.64c0,12.79,6.86,14.7,10.95,14.7
		C291.26,205.36,298.09,203.45,298.09,190.67z M282.77,190.67c0-4.27,0.77-9.36,4.41-9.36c2.9,0,4.37,3.15,4.37,9.36
		c0,6.25-1.47,9.42-4.37,9.42C283.54,200.08,282.77,194.96,282.77,190.67z M254.98,205.36c2.78,0,4.86-0.73,5.85-1.16l0.16-0.07
		l-0.37-5.96l-0.37,0.28c-0.73,0.55-2.61,1.31-4,1.31c-4.01,0-6.4-3.36-6.4-8.98c0-6.15,2-9.14,6.12-9.14
		c1.48,0,2.84,0.67,3.98,1.32l0.35,0.2l0.36-5.9l-0.16-0.07c-1.04-0.47-3.28-1.16-5.19-1.16c-7.51,0-11.99,5.49-11.99,14.7
		C243.32,199.89,247.68,205.36,254.98,205.36z M264.92,204.93h6.35v-28.47h-6.35V204.93z M264.83,171.69h6.53v-7.12h-6.53V171.69z
		 M188.58,171.69h6.54v-7.12h-6.54V171.69z M239.11,204.64c-0.12-0.94-0.33-2.83-0.33-4.91v-12.22c0-6.9-1.62-11.49-9.54-11.49
		c-3.83,0-6.22,1.26-7.8,2.09l-0.14,0.08l0.38,6.13l0.39-0.37c1.02-0.98,3.53-2.65,6.47-2.65c3.86,0,4.28,3.55,4.28,5.07
		c0,0,0,0.49,0,0.78c-0.31,0-0.93,0-0.93,0c-6.07,0-13.03,1.11-13.03,9.75c0,5.55,3.78,8.45,7.51,8.45c3.41,0,5.3-1.86,6.65-3.84
		c0.02,1.1,0.07,2.26,0.32,3.22l0.05,0.19h5.76L239.11,204.64z M232.81,192.56c0,5.28-1.43,7.73-4.51,7.73
		c-2.11,0-3.47-1.59-3.47-4.04c0-3.56,2.23-5.02,7.72-5.02c0,0,0.14,0,0.27,0C232.81,191.59,232.81,192.56,232.81,192.56z
		 M73.84,228.91c-3.67,0-5.45,2.56-6.33,4.19c-0.03-0.76-0.07-1.82-0.07-1.82l-0.1-1.94l-0.24,0h-5.75l0.03,0.28
		c0.13,1.1,0.19,2.6,0.19,4.59v23.6h6.35v-16.54c0-2.36,0.51-6.32,3.9-6.32c1.86,0,3.1,0.99,3.1,5.83v17.03h6.35v-18.28
		C81.26,232.48,78.76,228.91,73.84,228.91z M193.85,252.78v-36.2h-6.35c0,0,0,14.47,0,16.11c-0.81-1.55-2.58-3.78-6.12-3.78
		c-5.41,0-8.64,5.49-8.64,14.7c0,9.17,3.28,14.64,8.79,14.64c2.96,0,5.03-1.46,6.36-4.31c0.02,1.65,0.1,2.98,0.18,3.66l0.03,0.22
		h5.98l-0.04-0.28C193.91,256.62,193.85,255.07,193.85,252.78z M183.14,252.8c-2.95,0-4.04-2.57-4.04-9.47
		c0-6.04,1.35-8.98,4.13-8.98c3.72,0,4.28,5.73,4.28,9.14C187.51,247.74,186.75,252.8,183.14,252.8z M16.1,247.08
		c-0.37-1.53-6.64-27.68-6.64-27.68H0v38.41h5.97c0,0,0-27.22,0-30.2c0.72,2.88,7.52,30.2,7.52,30.2h4.68c0,0,7.19-27.52,7.9-30.27
		c0,2.85,0,30.27,0,30.27h5.97v-38.41h-9.17C22.87,219.41,16.47,245.56,16.1,247.08z M390,257.53c-0.13-0.92-0.19-2.47-0.19-4.75
		v-36.2h-6.35c0,0,0,14.46,0,16.11c-0.81-1.55-2.58-3.78-6.11-3.78c-5.41,0-8.64,5.49-8.64,14.7c0,9.17,3.28,14.64,8.78,14.64
		c2.96,0,5.03-1.45,6.36-4.31c0.02,1.66,0.11,2.98,0.19,3.65l0.03,0.22h5.98L390,257.53z M379.09,252.8c-2.94,0-4.04-2.57-4.04-9.47
		c0-6.04,1.35-8.98,4.13-8.98c3.72,0,4.28,5.73,4.28,9.14C383.46,247.74,382.7,252.8,379.09,252.8z M364.3,252.95v-23.6h-6.34v16.27
		c0,3.01-0.65,6.59-3.76,6.59c-2.3,0-3.23-1.69-3.23-5.83v-17.03h-6.35v18.28c0,7.05,2.49,10.62,7.42,10.62
		c3.61,0,5.26-2.35,6.33-4.23c0.03,0.76,0.07,1.89,0.07,1.89l0.1,1.9l0.24,0h5.75l-0.03-0.28
		C364.36,256.42,364.3,254.92,364.3,252.95z M332.64,257.81h6.34v-41.23h-6.34V257.81z M326.87,252.62V240.4
		c0-6.9-1.62-11.49-9.54-11.49c-3.83,0-6.22,1.26-7.8,2.09l-0.14,0.08l0.37,6.13l0.39-0.38c1.02-0.98,3.54-2.65,6.47-2.65
		c3.86,0,4.27,3.55,4.27,5.07c0,0,0,0.5,0,0.78c-0.31,0-0.93,0-0.93,0c-6.07,0-13.03,1.11-13.03,9.75c0,5.55,3.78,8.45,7.51,8.45
		c3.41,0,5.3-1.86,6.65-3.83c0.02,1.13,0.07,2.26,0.33,3.21l0.05,0.19h5.75l-0.04-0.28C327.04,256.36,326.87,254.56,326.87,252.62z
		 M320.89,245.45c0,5.28-1.43,7.73-4.51,7.73c-2.11,0-3.47-1.59-3.47-4.04c0-3.56,2.24-5.02,7.72-5.02c0,0,0.13,0,0.27,0
		C320.89,244.48,320.89,245.45,320.89,245.45z M297.66,236.28l-3.54-2.28c-1.81-1.18-3.37-2.19-3.37-4.89c0-2.63,1.62-4.2,4.32-4.2
		c2.51,0,4.29,0.8,5.72,1.45l0.69,0.31l0.31-6.36l-0.5-0.18c-1.12-0.41-3.46-1.25-6.64-1.25c-5.29,0-10.62,3.27-10.62,10.57
		c0,4.55,1.74,7.77,5.49,10.15l3.06,1.96c2.84,1.79,4.18,2.92,4.18,5.54c0,3.86-2.45,5.24-4.75,5.24c-3.46,0-6.1-1.75-6.83-2.29
		l-0.37-0.28l-0.36,6.79l0.12,0.08c1.66,1.15,4.23,1.73,7.64,1.73c7.06,0,11.28-4.36,11.28-11.66
		C303.48,241.1,301.43,238.72,297.66,236.28z M56.5,252.95v-23.6h-6.35v16.27c0,3.01-0.65,6.59-3.76,6.59
		c-2.3,0-3.24-1.69-3.24-5.83v-17.03h-6.35v18.28c0,7.05,2.5,10.62,7.42,10.62c3.61,0,5.27-2.36,6.33-4.24
		c0.03,0.76,0.07,1.87,0.07,1.87l0.1,1.93l0.24,0h5.75l-0.03-0.28C56.56,256.43,56.5,254.93,56.5,252.95z M148.89,257.81h6.35
		v-41.23h-6.35V257.81z M235.98,257.87h6.34v-41.76h-6.34V257.87z M143.12,252.62V240.4c0-6.9-1.62-11.49-9.54-11.49
		c-3.83,0-6.22,1.26-7.8,2.09l-0.14,0.08l0.38,6.13l0.39-0.38c1.02-0.98,3.53-2.64,6.47-2.64c3.86,0,4.28,3.55,4.28,5.07
		c0,0,0,0.5,0,0.78c-0.31,0-0.93,0-0.93,0c-6.07,0-13.03,1.11-13.03,9.75c0,5.55,3.78,8.45,7.51,8.45c3.42,0,5.3-1.87,6.65-3.84
		c0.02,1.13,0.07,2.27,0.32,3.22l0.05,0.19h5.76l-0.04-0.28C143.33,256.59,143.12,254.7,143.12,252.62z M137.15,245.45
		c0,5.28-1.43,7.73-4.51,7.73c-2.11,0-3.47-1.59-3.47-4.04c0-3.56,2.24-5.02,7.72-5.02c0,0,0.13,0,0.27,0
		C137.15,244.48,137.15,245.45,137.15,245.45z M208.6,228.91c-6.03,0-10.25,6.2-10.25,15.08c0,6.89,3.01,14.26,11.47,14.26
		c3.64,0,6.25-1.27,7.37-1.82l0.15-0.07l-0.32-5.99l-0.39,0.33c-1.28,1.1-2.92,2.11-6.2,2.11c-3.97,0-5.85-2.29-5.92-7.16
		c0.5,0,14.04,0,14.04,0v-1.55C218.56,231.54,213.14,228.91,208.6,228.91z M204.52,240.91c0.05-3.26,1.14-6.94,4.08-6.94
		c2.48,0,3.75,2.34,3.79,6.94H204.52z M112.39,224.58h6.54v-7.12h-6.54V224.58z M112.49,257.81h6.34v-28.47h-6.34V257.81z
		 M106.76,252.78v-36.2h-6.35c0,0,0,14.46,0,16.11c-0.81-1.55-2.58-3.78-6.12-3.78c-5.41,0-8.64,5.49-8.64,14.7
		c0,9.17,3.28,14.64,8.78,14.64c2.96,0,5.02-1.45,6.36-4.31c0.02,1.66,0.11,2.99,0.18,3.65l0.03,0.22h5.98l-0.04-0.28
		C106.83,256.61,106.76,255.06,106.76,252.78z M96.05,252.8c-2.95,0-4.04-2.57-4.04-9.47c0-6.04,1.35-8.98,4.13-8.98
		c3.72,0,4.28,5.73,4.28,9.14C100.42,247.74,99.66,252.8,96.05,252.8z M266.61,252.62V240.4c0-6.9-1.62-11.49-9.54-11.49
		c-3.84,0-6.22,1.26-7.8,2.09l-0.14,0.08l0.37,6.13l0.39-0.38c1.02-0.98,3.53-2.64,6.47-2.64c3.86,0,4.27,3.55,4.27,5.07
		c0,0,0,0.5,0,0.78c-0.31,0-0.93,0-0.93,0c-6.07,0-13.03,1.11-13.03,9.75c0,5.55,3.78,8.45,7.51,8.45c3.41,0,5.3-1.86,6.65-3.83
		c0.02,1.13,0.07,2.26,0.32,3.21l0.05,0.19h5.75l-0.04-0.28C266.81,256.58,266.61,254.69,266.61,252.62z M260.63,245.45
		c0,5.28-1.43,7.73-4.51,7.73c-2.11,0-3.48-1.59-3.48-4.04c0-3.56,2.24-5.02,7.72-5.02c0,0,0.13,0,0.27,0
		C260.63,244.48,260.63,245.45,260.63,245.45z"/>
</g>
</svg>
