<?xml version="1.0" encoding="utf-8"?>
<!-- Generator: Adobe Illustrator 24.1.0, SVG Export Plug-In . SVG Version: 6.00 Build 0)  -->
<svg version="1.1" id="SPANISH" xmlns="http://www.w3.org/2000/svg" xmlns:xlink="http://www.w3.org/1999/xlink" x="0px" y="0px"
	 viewBox="0 0 701.86 177.96" style="enable-background:new 0 0 701.86 177.96;" xml:space="preserve">
<style type="text/css">
	.st0{fill:#0093D5;}
</style>
<g>
	<g>
		<path class="st0" d="M164.01,32.58c3.86,4.6,10.6,7.31,14.56,11.92c-2.83-13.63-13.35-24.76-25.79-27.42
			C158.84,21.65,160.15,27.98,164.01,32.58z M14.48,67.13c8.56-18.65,21.36-14.7,26.77-32.47c-3.06,5.45-17.03,7.75-23.51,21.72
			c3.31-8.3,1.65-21,7.25-27.85C8.25,40.88,15.38,60.86,14.48,67.13z M30,111.86c1.54,7.27-2.98,17.74,4.2,27.76
			c-7.44-8.34-23.18-10.46-29.62-23.13c8.03,30.98,28.95,24.6,38.39,31.33C35.21,136.66,41.56,129.25,30,111.86z M27.59,131.31
			c-4.63-17.32,3.6-23.29-2.65-39.91c-0.65,9.36-6.89,13.92-2.68,31.04C14.82,107.94,3.33,102.54,0,92.6
			C0.23,119.78,22.07,123.81,27.59,131.31z M61.13,160.34c-6.43-8.9-2.04-13.93-20.1-30.09c3.83,5.9-0.12,13.32,12.06,24.86
			c-11.92-7.03-28.36-4.02-36.29-13.42C30.42,167.74,54.35,157.1,61.13,160.34z M148.55,155.11c12.18-11.54,8.24-18.96,12.07-24.86
			c-18.06,16.16-13.68,21.19-20.1,30.09c6.78-3.24,30.72,7.4,44.33-18.64C176.91,151.09,160.47,148.08,148.55,155.11z
			 M167.44,139.62c7.18-10.02,2.66-20.49,4.2-27.76c-11.55,17.39-5.2,24.8-12.97,35.96c9.45-6.73,30.36-0.35,38.39-31.33
			C190.62,129.16,174.88,131.28,167.44,139.62z M138.58,161.57c-7.06-1.89-14.34-2.82-19.75-2.96c-6.75-0.17-12.79,1.11-18.01,3.06
			c-5.23-1.95-11.26-3.23-18.01-3.06c-5.42,0.14-12.69,1.07-19.75,2.96c-10.86,2.89-20.26,5.13-28.44,0.99
			c7.84,6.96,17,9.45,30.23,8.02c11.02-1.19,19.9-6.69,30.29-6.62c0.14,0,0.27,0.01,0.41,0.01c-10.94,5.52-17.12,13.31-17.12,13.31
			l5.01,0.68c0,0,5.27-10.6,17.39-13.35c12.12,2.75,17.39,13.35,17.39,13.35l5.01-0.68c0,0-6.18-7.79-17.12-13.31
			c0.14,0,0.27-0.01,0.4-0.01c10.39-0.07,19.27,5.43,30.29,6.62c13.23,1.42,22.39-1.06,30.23-8.02
			C158.84,166.7,149.45,164.46,138.58,161.57z M25.67,72.63c-4.48,8.6-11.44,10.56-10.7,28.32C11.22,85.18,2.24,79.32,2.35,69.23
			c-6.25,26.29,10.43,29.42,14.72,40.44C16.44,93.88,26.52,90.69,25.67,72.63z M31.93,52.33c-1.56,2.18-2.66,3.11-6.82,6.54
			c-5.67,4.67-10.2,10.82-12.11,19.77c0.43-9.64-5.52-23.49-1.56-33.59c-15.34,21.65,0.87,34.62,1.45,42.46
			C16.86,72.42,25.99,72.3,31.93,52.33z M188.63,78.64c-1.91-8.96-6.44-15.1-12.11-19.77c-4.16-3.42-5.26-4.35-6.82-6.54
			c5.94,19.97,15.08,20.09,19.04,35.18c0.58-7.84,16.79-20.81,1.45-42.46C194.15,55.15,188.2,69,188.63,78.64z M201.64,92.6
			c-3.33,9.95-14.82,15.34-22.25,29.84c4.21-17.11-2.03-21.68-2.68-31.04c-6.25,16.62,1.98,22.59-2.65,39.91
			C179.57,123.81,201.41,119.78,201.64,92.6z M175.96,72.63c-0.85,18.06,9.23,21.24,8.6,37.04c4.29-11.02,20.97-14.15,14.72-40.44
			c0.12,10.08-8.86,15.95-12.62,31.71C187.41,83.2,180.45,81.23,175.96,72.63z M37.62,32.58c3.86-4.6,5.17-10.93,11.23-15.5
			C36.42,19.74,25.9,30.87,23.07,44.5C27.02,39.89,33.76,37.18,37.62,32.58z M160.39,34.66c5.41,17.77,18.21,13.82,26.77,32.47
			c-0.9-6.27,6.23-26.25-10.51-38.6c5.6,6.85,3.94,19.55,7.25,27.85C177.41,42.41,163.44,40.11,160.39,34.66z M116.96,44.75
			c-3.22-1.33-6.63-2.28-10.19-2.78c-0.02,0.75-0.03,1.52-0.05,2.28c3.28,0.48,6.43,1.36,9.4,2.59
			C116.52,46.22,116.8,45.53,116.96,44.75z M114.37,22.76l0.69-0.61l-1.3-0.55l-3.42-0.07l-0.89,0.62l-2.02-0.17l-0.02,0.49
			c1.28,0.08,2.54,0.2,3.52,0.37l1.67-0.15L114.37,22.76z M107.78,96.5c0-0.58-0.77-1.15-1.91-1.69l-0.2,0
			c-0.01,0.47-0.05,2.79-0.08,3.92C107,98.1,107.78,97.42,107.78,96.5z M68.16,53.04c0.08-0.47,0.17-0.84,0.29-1.26
			c-0.43,0.11-0.92,0.15-1.4,0.14L68.16,53.04z M100.89,153.64c38.47,0,69.76-31.3,69.76-69.77c0-36.08-27.53-65.85-62.69-69.41
			c-0.03,0.13-0.06,0.27-0.08,0.4c-0.14,0.68-0.27,1.29-0.37,1.83c15.75,1.54,29.92,8.51,40.62,19.01l-7.7,7.7l0.29-1.35l-1.01-0.45
			l-1.39-0.08l0.3-0.89l-0.93-3.15l-1.91-2.1l-6.02-3.17l-0.51,0.55l-1.09,0.32c2.07,3.04,3.18,6.56,3.18,10.12
			c0,0.46-0.01,0.92-0.04,1.36l2.98,3.75l-1.4,0.33l0.92,1.39l-2.63,2.63l-1.06-2.01c-0.5,1.41-1.17,2.71-1.99,3.93
			c0.2,0.18,0.4,0.36,0.59,0.55l-8.1,8.1c-0.49-0.47-1.01-0.92-1.53-1.35c-0.78,0.36-1.57,0.7-2.37,1.01
			c0.23,0.18,0.46,0.35,0.69,0.54L117,63.83l-0.95,0.53l-0.35,0.95l-0.59-0.59l-1.71,0.57l0.47,0.75l1.18-0.32l0.77,0.06l0.06-0.41
			l0.59-0.3l0.18-0.35l1.06-0.3l0.83-0.04c0.16,0.15,0.33,0.29,0.48,0.44l-3.21,3.22l-0.24-0.35l-3.36,0.56L111.46,69l-0.74,0.09
			l2.09-2l-0.75-0.37l-1.94,2.61l0.57-0.06l-0.03,0.96l0.71,0.27l0.14,1.03l-1.17-0.23l-1.23,0.23L106.17,70
			c0,0-0.16,7.92-0.25,11.9c6.96,2.34,14.35,5.72,14.35,14.6c0,3.9-1.69,7.05-5.01,9.38l0.03,0.01c-0.05,0.03-0.1,0.07-0.15,0.1
			l-0.02-0.01c-0.07,0.05-0.15,0.1-0.22,0.15c-2.82,1.86-6.44,2.85-9.57,3.84c-0.02,0.01-0.09,6.22-0.09,6.22
			c4.99,2.48,11.05,6.09,10.49,16.42c-0.07,2.54-1.06,3.24-1.91,3.47v0c-2.92,0.72-5.94,1.2-9.02,1.43
			c-0.02,0.8-0.03,1.57-0.04,2.28c13.44-0.92,25.59-6.6,34.78-15.36l8.1,8.1c-12.14,11.67-28.62,18.86-46.75,18.86
			c-18.03,0-34.44-7.11-46.56-18.67l8.11-8.11c9.1,8.59,21.06,14.18,34.28,15.16c-0.01-0.7-0.03-1.46-0.04-2.27
			c-12.59-0.98-23.97-6.31-32.64-14.48l2.17-2.17l2.97,0.34l1.58-1.7l4.14,0.14l0.61-1.44l-0.14-0.6c6,4.56,13.24,7.55,21.12,8.37
			c-0.02-0.88-0.03-1.66-0.04-2.28c-8.7-0.97-16.57-4.73-22.68-10.37l8.11-8.11c1.97,1.76,4.18,3.25,6.57,4.41
			c0.18-0.77,0.45-1.48,0.82-2.13c-2.1-1.04-4.05-2.35-5.79-3.88l8.13-8.13c1.29,1.04,2.76,1.86,4.34,2.42
			c-0.02-0.81-0.03-1.65-0.05-2.44c-0.96-0.42-1.86-0.95-2.68-1.58l2.29-2.29c-0.81-0.24-1.62-0.5-2.43-0.78l-1.53,1.53
			c-0.78-0.86-1.43-1.83-1.95-2.88c-1.4-0.62-2.75-1.32-4.01-2.15c-5-3.28-7.53-7.92-7.53-13.77c0-4.47,1.25-7.86,3.28-10.48
			l-8.08-8.08c5.82-5.56,13.31-9.4,21.64-10.66c-0.02-0.79-0.03-1.55-0.04-2.28c-8.93,1.29-16.97,5.37-23.2,11.34l-1.37-1.37
			c-0.31,0.54-0.67,1.24-1.09,2.11l0.86,0.86C63.1,62.36,58.78,72.27,58.6,83.17H47.13c0.18-14.06,5.79-26.85,14.82-36.34l3.64,3.64
			c0.17,0,0.34,0,0.52-0.01c0.64-0.05,1.37-0.25,2.07-0.6l-4.63-4.63c2.45-2.37,5.12-4.5,7.98-6.37c0.23-0.77,0.44-1.44,0.57-1.69
			c0.14-0.28,0.87-1.24,1.75-2.35c-4.35,2.41-8.35,5.38-11.9,8.81l-8.1-8.1c10.63-10.34,24.64-17.22,40.19-18.8
			c-0.05-0.28-0.09-0.49-0.09-0.49c-0.11-0.54-0.22-1.13-0.34-1.74c-35.06,3.66-62.48,33.38-62.48,69.38
			C31.13,122.35,62.42,153.64,100.89,153.64z M115.95,105.45l-0.01-0.06l0.02,0.05C115.96,105.44,115.96,105.45,115.95,105.45z
			 M149.73,37.33c11.41,11.96,18.47,28.09,18.66,45.85h-11.46c-0.11-8.79-2.25-17.1-5.98-24.48l0.1-0.21l0.79,0.42l0.19-0.61
			l-2.05-3.59l-2.42-3.36l-2.85-2.38c-0.98-1.22-2-2.4-3.07-3.54L149.73,37.33z M135.13,52.02l2.76,0.12l0.65,0.79l-0.33,1.17
			l3.82,2.38l0.75-0.09l4.9,5.6l2-0.7c3.1,6.67,4.88,14.08,4.98,21.89h-11.47c-0.05-2.99-0.42-5.91-1.06-8.72l0.52-0.71l0.71-3.59
			l-0.53-3.86l-1.38-4.44l-3.2-4.68l0.77,0.41l0.39-0.39l-2.56-1.74l-0.17,0.57l2.57,3.67l1.46,3.01l1.03,2.98l0.33,2.01l0.53,3.37
			l-0.96,0.07c0,0-1.11-2.06-1.45-2.92l0.51-0.76l-0.98-1.4v-1.4l-0.7-0.89l-0.87,0.11c-0.31-0.58-0.64-1.15-0.98-1.71l0.61,0.32
			l0.17-0.17l-0.33-0.72l0.75-0.42l-0.34-0.42l-1.11,0.42l0.4-1.74l-0.65-0.37l-0.59,1.39c-1.25-1.87-2.64-3.65-4.17-5.3
			L135.13,52.02z M132.83,78.89l2.05-1.12l2.1-0.33l0.46-1.02l1.17-0.7l0.45-0.98l0.36-1.69c0.17,0.6,0.32,1.2,0.46,1.81l-1.11,3.32
			l-0.05,1.12l1.62-2.15c0.33,1.97,0.53,3.98,0.57,6.03h-10.05l-0.23-0.87l1.17-0.93l0.23-0.56l0.51-0.37l1.35-0.14l0.14-0.61
			L132.83,78.89z M119.07,71.01l1.03-0.24l-0.05-0.25l-1.02-0.68l0.35-2.16l1.22-1.22c0.77,0.87,1.48,1.8,2.14,2.76l-0.43,1.33
			l-1.12-0.8l-0.85,0.23l0.42,0.79h0.42l-0.47,1.17l-0.33-0.46L119.07,71.01z M123.46,109.08l-2.48-0.71l-0.75,0.28l-1.4-1.07
			l-1.32-0.47c0.65-0.47,1.28-0.96,1.89-1.48l2.04,1.44l1.56,0.82l0.77,0.77L123.46,109.08z M122.2,64.85l8.11-8.11
			c1.9,2.06,3.58,4.32,5.02,6.74l-1.01,0.28l0.05,1.81l3.04,1.92c0.74,1.65,1.38,3.36,1.9,5.12l-0.53,0.78l-1.1,0.7l-0.28,1.68
			l-0.75,0.42l-0.62,0.74l-0.64-0.23l-1.12-0.05l0.65-0.88l0.46-2.29l0.75-0.47l-2.19-2.1l-1.63,0.56l-0.37,1.54l-1.03,1.12
			l-1.07-0.89l-0.38-0.94l0.61-0.38l0.34,0.62l0.5-0.18l-0.22-1.03l-0.72-0.04l-0.05,0.42l-0.47,0.1l-2.52-2.94l-0.85-0.66
			l0.32-0.35l0.77-0.27l-0.71-0.28c0,0-0.89,0.2-0.99,0.2l0.51,0.64l-1.28-0.02C123.96,66.97,123.12,65.88,122.2,64.85z
			 M126.33,108.01l-1.1-1.1l0.84-1.1l1.06-2.15l-0.41-0.61l0.71-1.59l-0.08-1.44l-0.42-1.49l-1-0.36l-0.37,0.84l-0.6-0.16
			c0.86-1.38,1.77-2.67,2.4-4.19l1.03-0.44l0.58-0.78l0.28,0.33l0.7-0.84l-0.56-0.7l0.51-0.14l0.93,0.37l1.77,0.05l1.07-0.56
			l2.8-0.75l-0.53-0.93l-0.18-1.13l1.5,0.66l0.56-0.33l-0.28-1.17l-1.84,0.69l-2.03-0.41l-1.54-3.16h8.77
			c-0.39,10.09-4.53,19.24-11.07,26.08l-1.21-1.21l0.52-1.61l-0.93-3.54L126.33,108.01z M127.88,130.38l1.08-2.31l-0.42-1.03
			l1.59-1.4v-0.84l-1.35-0.84l1.12-2.24l1.68-2.19l-1.68-1.82h-1.26l-0.78-1.26c0.68-0.56,1.34-1.13,1.98-1.73l8.11,8.11
			C134.9,125.71,131.53,128.25,127.88,130.38z M137.98,119.67l0.89-1l-0.84-4.43l-0.59-0.23l0.36-0.75l-1.91-0.61l-0.37,1.59
			l-0.19,2.01l-0.4,0.37l-3.49-3.49c6.95-7.25,11.34-16.96,11.73-27.68h11.48c-0.4,13.88-6.08,26.46-15.1,35.79L137.98,119.67z
			 M141.14,122.82c9.43-9.74,15.37-22.89,15.76-37.39h11.46c-0.4,17.66-7.62,33.67-19.13,45.49L141.14,122.82z M72.14,111.71
			c-0.83-0.86-1.62-1.75-2.38-2.68l0.35-2.9l-1.21-2.78l-0.29-4.35l-1.36-2.64l0.29-1.64l-1.64-3.14l-1.43-0.71l0.58-1.67l-0.6-1.32
			l0.59-1.51h1.57l0.55-0.92h2.68l0.42,0.79l-0.5,2.72l-0.33,0.47l1.01,2.19l-0.66,0.36l-0.46-0.58l-0.19,0.22l0.46,1.3l0.79,1.52
			l0.37-0.04l0.22-1.36l-0.38-0.5l-0.04-0.92l-0.11-1.9l0.56-3.36l-0.54-0.91h1.92c0.38,7.03,3.31,13.39,7.89,18.17L72.14,111.71z
			 M64.56,89.3L63.48,91h-1.86l-0.14-0.11c-0.32-1.78-0.52-3.6-0.59-5.45h3.46l-0.83,2.77L64.56,89.3z M68.33,81.43l0.21-2.28
			l1.36-0.79l2.43,0.43l0.37,0.44c-0.21,1.29-0.34,2.6-0.37,3.94h-2.75L68.33,81.43z M79.97,90l0.57-0.29l1.51,1.13l-0.65,0.53
			l1.68,1.12l-0.1-1.2l0.9-1.49l0.94,1l0.96,1.38l-1.74,0.39l0.79,1.57l1.21-0.64l-0.16-0.5l0.9-0.61l0.53-2.49
			c0.66,1.48,1.55,2.84,2.63,4.02l-8.1,8.1c-3.87-4.06-6.45-9.35-7.1-15.21l1.66,1.77l1.56-0.03L79.97,90z M71.66,56.54l8.1,8.1
			c-1.69,1.86-3.14,3.94-4.3,6.2l-0.57-0.04l-1.14,0.36l-0.39-0.04l-1.22,1.13l1.54-0.25l1.38-0.35c-0.08,0.18-0.16,0.35-0.24,0.53
			l-1.21,0.75h-0.57l-1.79,1.36l-1.71-0.14l-2.5,4.64l0.5,0.93l-1.36,1.5l-0.21,1.95h-5.12C61.04,72.89,65.11,63.55,71.66,56.54z
			 M61.19,117.69l2.57,1.5l0.53,0.36l-1.86,1.86c-0.88-0.9-1.71-1.83-2.52-2.79L61.19,117.69z M58.62,85.44
			c0.04,1.12,0.14,2.22,0.26,3.31l-1.4,0.32l-0.29,1.43l-2.93,3.71l0.07,5.11l-3,1l-1.64,0.01c-1.52-4.72-2.41-9.72-2.56-14.9H58.62
			z M47.3,100.26l-0.68-0.13l-0.64-0.71l-3.21-0.28l1,1.36l-2.98-0.57l0.78-0.72l-0.73-0.72l-2.15,0.93l-0.77,1.43l0.3,3.26
			l2.47,5.92l1.2,1.86l0.68,0.25l-1.88-3.55l-0.41-1.81l0.42-0.45l-0.26-1l1.12,0.15l1.73,2.62l0.43,0.18l-0.05-1.91l0.7,0.41
			l0.15,1.04l1.82,0.48l0.76-0.55l0.26,0.18l-0.03,1.39l0.8,0.99l0.97,0.22l2.13,3.6l1.29,0.36l0.4-1.68c2.24,3.7,4.9,7.12,7.9,10.2
			l-8.1,8.1c-11.61-11.84-18.91-27.93-19.32-45.69h11.47C45.02,90.58,45.86,95.55,47.3,100.26z M52.25,37.13l8.1,8.1
			c-9.44,9.9-15.3,23.25-15.49,37.94H33.4C33.59,65.32,40.73,49.11,52.25,37.13z M135.23,32.95l-0.7-1.12l-1.49-0.75l-1.17,0.89
			l1.49,0.79l1.68,1.21L135.23,32.95z M128.29,65.3l0.05,0.89l1.99-0.6l0.61-1.21l-1.37-1.8l0.73-1.1l1.86,1.32l0.34-0.27
			l-0.37-0.26l-0.42-0.79l0.76-0.44l-0.75-0.98l-1.73,0.88l-0.61,1.05l-0.35,0.95l0.77,1.29l-0.28,0.61L128.29,65.3z M45.39,116.72
			l0.14-0.52l-1.03-2.24l-1.22-0.45L45.39,116.72z M92.27,73.64c0,1.93,1.17,3.28,3.31,4.45c0,0-0.01-0.33-0.02-0.85l-1.34-1.34
			l0.71-1.29l0.58-0.16c-0.04-2.24-0.09-4.75-0.1-5.11l-0.1,0.01C93.34,70.43,92.27,71.75,92.27,73.64z"/>
		<g>
			<path class="st0" d="M105.07,123.32c3.59,1.82,6.92,4.33,8.3,9.1c0.61-7.89-3.82-11.32-8.21-13.63
				C105.17,118.81,105.07,123.33,105.07,123.32z"/>
			<path class="st0" d="M128.98,43.2c0-7.18-5.21-15.13-17.95-17.94c-0.94-0.21-2.38-0.35-3.89-0.45c-0.03,1.08-0.08,3.56-0.08,3.56
				c-0.02,0.78-0.08,3.65-0.09,4.27c1.18,0.1,2.04,0.25,2.45,0.34c7.41,1.77,10.06,6.02,10.06,10.22c0,6.81-5.83,9.37-12.98,11.31
				c-0.78,0.21-1.57,0.41-2.37,0.62c-2.17,0.54-4.41,1.06-6.61,1.66c-0.79,0.21-1.58,0.44-2.35,0.67l0,0
				c-7.93,2.42-14.75,6.24-14.75,16.04c0,9.71,7.78,13.33,15.37,15.67c-0.05-2.79-0.11-5.6-0.16-8.41
				c-3.35-1.57-5.72-3.64-5.72-7.12c0-3.4,2.15-5.45,5.44-6.94c0.73-0.33,1.51-0.63,2.34-0.91c1.89-0.65,4.02-1.19,6.24-1.73
				c0.78-0.19,1.57-0.38,2.37-0.57l0,0C117,60.89,128.98,57.54,128.98,43.2z"/>
			<path class="st0" d="M90.56,111.67c0.02,3.92,2.9,6.06,5.79,7.67c-0.01-0.66-0.12-6.73-0.13-6.83c0.06-1.21,1.24-1.94,2.18-2.38
				c1.39-0.66,2.8-1.13,4.59-1.75c0.85-0.3,1.59-0.59,2.41-0.83l0,0c5.8-1.75,12.51-3.98,12.51-11.03c0-7.07-5.75-9.96-12.04-12.13
				c-0.04,2.25-0.11,5.53-0.16,7.8c2.66,1.04,4.42,2.31,4.42,4.33c0,2.52-2.7,3.98-4.61,4.72c-0.79,0.31-2.01,0.71-2.34,0.82
				c-1.54,0.48-3.2,1.03-4.75,1.6c-0.82,0.3-1.61,0.64-2.35,1.02C93.36,106.06,90.55,108.09,90.56,111.67z"/>
			<path class="st0" d="M94.49,25.93c-3.86,1.1-6.13,2.56-6.99,2.85c-2.5,0.83-6.03,0.97-9.67,4.94c-0.65,0.71-2.23,2.69-3.35,4.32
				c-1.1,1.58-1.15,4.13-1.95,5.49c-1.17,1.98-0.89,3.11-0.89,3.11l0.03,0.06c-0.04,0.25-0.27,1.3-1.34,2.48
				c-1.22,1.35-2.82,2.1-4.73,1.79c1.66,0.83,3.95-0.33,3.95-0.33s-0.44,1.25-0.88,3.3c1.86-4.22,3.57-5.75,4.1-6.18
				c0.8,0.18,2.46,0.11,5.54-1.66c3.48-2,8.71-5.26,10.19-7.32c1.6-2.22,3.79-3.69,6.16-4.65C94.61,31.03,94.55,28.26,94.49,25.93z
				 M79.81,39.08l-1.79,0.39l2.15-3.51l2.52,0.08L79.81,39.08z"/>
		</g>
		<g>
			<path class="st0" d="M101.68,111.18c-0.33,0.12-1.21,0.49-1.76,0.68c-0.58,0.21-1.32,0.51-1.32,0.71
				c0,0.05,0.56,30.41,0.56,31.07c0,6.25,3.19,6.29,3.19,0c0-0.45,0.64-32.9,0.64-32.9S102.22,110.98,101.68,111.18z"/>
			<path class="st0" d="M98.38,101.16c0.99-0.35,1.98-0.65,2.9-0.93c0.69-0.21,1.33-0.41,1.93-0.61c0.04-1.91,0.58-28.33,0.68-33.13
				c-2.37,0.59-4.44,1.15-6.14,1.77C97.81,71.87,98.33,98.28,98.38,101.16z"/>
			<path class="st0" d="M101.03,0c-8.94,0-5.14,13.26-4.43,17.58c0.03,0.2,0.72,29.96,0.86,36.79c1.36-0.36,2.71-0.69,4.01-1.01
				c0.94-0.23,1.84-0.45,2.7-0.67c0.14-6.57,0.8-34.97,0.82-35.16C105.53,12.91,110.21,0,101.03,0z"/>
		</g>
	</g>
	<path class="st0" d="M327.86,76.34V61.22c0-8.52-2-14.19-11.77-14.19c-4.74,0-7.69,1.56-9.64,2.59l-0.16,0.08l0.46,7.51l0.44-0.42
		c1.27-1.22,4.39-3.28,8.03-3.28c4.8,0,5.32,4.41,5.32,6.3c0,0,0,0.65,0,0.99c-0.37,0-1.18,0-1.18,0c-7.49,0-16.09,1.37-16.09,12.04
		c0,6.85,4.66,10.43,9.27,10.43c4.25,0,6.58-2.34,8.26-4.8c0.02,1.42,0.08,2.85,0.4,4.05l0.06,0.21h7.08l-0.04-0.32
		C328.11,81.25,327.86,78.9,327.86,76.34z M320.52,67.47c0,6.55-1.78,9.59-5.61,9.59c-2.63,0-4.33-1.97-4.33-5.02
		c0-4.43,2.77-6.23,9.57-6.23c0,0,0.18,0,0.36,0C320.52,66.22,320.52,67.47,320.52,67.47z M291.6,47.57L291.48,50
		c0,0-0.07,1.74-0.1,2.57c-1.5-2.82-3.64-5.55-7.91-5.55c-7.08,0-11.14,6.64-11.14,18.23c0,16.23,8.26,17.49,10.79,17.49
		c4.43,0,6.56-2.69,7.77-5.1c0,0.97,0,2.27,0,2.27c0,4.94-0.87,10.6-7.65,10.6c-2.7,0-5.72-1.01-8.72-2.91l-0.41-0.26l-0.45,8.07
		l0.18,0.08c3.42,1.44,6.93,2.17,10.44,2.17c12.56,0,14.17-10.06,14.17-18.83V53.29l0.25-5.71l-0.29-0.02H291.6z M284.81,76.06
		c-2.05,0-4.44-2.95-4.44-11.27c0-7.36,1.58-10.81,4.97-10.87c1.08-0.02,2.05,0.37,2.86,1.17c1.73,1.69,2.68,5.11,2.68,9.63
		C290.89,72.66,289.07,76.06,284.81,76.06z M349.51,47.03c-4.59,0-6.78,3.25-7.86,5.26c-0.04-0.93-0.09-2.34-0.09-2.34l-0.12-2.37
		l-0.27,0h-7.09l0.04,0.31c0.16,1.38,0.23,3.24,0.23,5.68v29.18h7.8V62.29c0-2.93,0.63-7.85,4.85-7.85c2.78,0,3.86,2.03,3.86,7.24
		v21.05h7.8V60.15C358.66,51.44,355.58,47.03,349.51,47.03z M495.11,34.06h-7.47l-3.95,10.24h5.12L495.11,34.06z M232.64,34.6
		c-7.98,0-16.5,6.41-16.5,24.41c0,18,8.52,24.41,16.5,24.41c7.98,0,16.5-6.41,16.5-24.41C249.14,41.01,240.61,34.6,232.64,34.6z
		 M232.64,76.26c-5.31,0-8.23-6.13-8.23-17.25c0-11.13,2.92-17.25,8.23-17.25c5.31,0,8.24,6.13,8.24,17.25
		C240.87,70.13,237.95,76.26,232.64,76.26z M268.33,47.03c-4.39,0-6.6,3.81-7.51,6c-0.04-1.12-0.09-2.68-0.09-2.68l-0.12-2.78
		l-0.27,0h-6.85l0.04,0.32c0.16,1.38,0.23,3.23,0.23,5.68v29.18h7.8V63.5c0-7.66,4.56-8.25,5.96-8.25c0.64,0,1.25,0.1,1.96,0.32
		l0.37,0.12v-8.41l-0.61-0.13L268.33,47.03z M459.91,41.61h8.03v-8.76h-8.03V41.61z M454.24,74.77c-0.91,0.68-3.24,1.62-4.96,1.62
		c-4.98,0-7.95-4.16-7.95-11.14c0-7.63,2.49-11.34,7.6-11.34c1.84,0,3.53,0.83,4.94,1.64l0.4,0.23l0.45-7.24l-0.18-0.08
		c-1.28-0.58-4.05-1.44-6.41-1.44c-9.28,0-14.81,6.79-14.81,18.16c0,11.33,5.38,18.09,14.4,18.09c3.43,0,6-0.9,7.23-1.44l0.18-0.08
		l-0.45-7.31L454.24,74.77z M460.02,82.74h7.8V47.57h-7.8V82.74z M487.55,47.03c-4.07,0-13.53,1.76-13.53,18.09
		c0,15.8,8.47,18.16,13.53,18.16c5.03,0,13.47-2.36,13.47-18.16C501.02,48.79,491.6,47.03,487.55,47.03z M487.55,76.79
		c-4.54,0-5.49-6.35-5.49-11.68c0-5.3,0.95-11.61,5.49-11.61c3.61,0,5.43,3.91,5.43,11.61C492.98,72.87,491.15,76.79,487.55,76.79z
		 M365.68,82.74h7.81V47.57h-7.81V82.74z M365.56,41.61h8.04v-8.76h-8.04V41.61z M427.62,76.34V61.22c0-8.52-2-14.19-11.78-14.19
		c-4.73,0-7.69,1.56-9.64,2.59l-0.16,0.09l0.46,7.51l0.44-0.42c1.27-1.22,4.39-3.28,8.03-3.28c4.8,0,5.32,4.41,5.32,6.3
		c0,0,0,0.65,0,0.99c-0.37,0-1.17,0-1.17,0c-7.49,0-16.09,1.37-16.09,12.04c0,6.85,4.66,10.43,9.27,10.43c4.25,0,6.58-2.34,8.26-4.8
		c0.02,1.38,0.08,2.84,0.39,4.05l0.05,0.21h7.08l-0.04-0.32C427.88,81.25,427.62,78.91,427.62,76.34z M420.29,67.47
		c0,6.55-1.78,9.59-5.61,9.59c-2.63,0-4.32-1.97-4.32-5.02c0-4.43,2.77-6.23,9.57-6.23c0,0,0.18,0,0.36,0
		C420.29,66.22,420.29,67.47,420.29,67.47z M399.51,55.05v-7.48h-20.23v6.88c0,0,11.28,0,12.21,0c-0.5,0.83-12.61,20.74-12.61,20.74
		v7.55h21.04v-6.88c0,0-11.87,0-12.79,0C387.61,75.03,399.51,55.05,399.51,55.05z M521.68,47.03c-4.58,0-6.78,3.25-7.86,5.25
		c-0.04-0.92-0.09-2.33-0.09-2.33l-0.12-2.38l-0.27,0h-7.09l0.04,0.32c0.16,1.38,0.24,3.24,0.24,5.68v29.18h7.8V62.29
		c0-2.93,0.63-7.85,4.85-7.85c2.78,0,3.86,2.03,3.86,7.24v21.05h7.8V60.15C530.83,51.44,527.75,47.03,521.68,47.03z"/>
	<path class="st0" d="M396.35,141.78v-15.12c0-8.52-2-14.19-11.78-14.19c-4.72,0-7.68,1.56-9.64,2.59l-0.16,0.09l0.46,7.52
		l0.44-0.43c1.27-1.22,4.38-3.28,8.03-3.28c4.8,0,5.32,4.41,5.32,6.3c0,0,0,0.65,0,0.99c-0.37,0-1.17,0-1.17,0
		c-7.49,0-16.09,1.37-16.09,12.04c0,6.85,4.66,10.43,9.27,10.43c4.25,0,6.58-2.35,8.26-4.81c0.02,1.42,0.08,2.86,0.39,4.06
		l0.05,0.21h7.08l-0.04-0.32C396.6,146.69,396.35,144.35,396.35,141.78z M389.01,132.91c0,6.55-1.78,9.59-5.61,9.59
		c-2.63,0-4.33-1.97-4.33-5.03c0-4.43,2.77-6.24,9.57-6.24c0,0,0.18,0,0.36,0C389.01,131.65,389.01,132.91,389.01,132.91z
		 M310.65,112.46c-4.59,0-6.78,3.25-7.86,5.26c-0.04-0.93-0.09-2.34-0.09-2.34l-0.12-2.37L302.3,113h-7.08l0.04,0.32
		c0.15,1.37,0.23,3.22,0.23,5.68v29.18h7.8v-20.44c0-2.93,0.63-7.85,4.85-7.85c2.78,0,3.86,2.03,3.86,7.24v21.05h7.8v-22.59
		C319.8,116.88,316.72,112.46,310.65,112.46z M239.2,135.04c-0.41-1.7-8.24-34.33-8.24-34.33h-11.65v47.47h7.33c0,0,0-34.19,0-37.54
		c0.81,3.24,9.35,37.54,9.35,37.54h5.75c0,0,9.02-34.55,9.83-37.63c0,3.2,0,37.63,0,37.63h7.33V100.7h-11.3
		C247.61,100.7,239.61,133.34,239.2,135.04z M289.17,142.18V113h-7.8v20.11c0,3.73-0.81,8.18-4.67,8.18c-2.87,0-4.03-2.1-4.03-7.24
		V113h-7.8v22.59c0,8.7,3.08,13.12,9.15,13.12c4.51,0,6.54-2.97,7.86-5.31c0.04,0.91,0.1,2.41,0.1,2.41l0.12,2.36l0.27,0h7.08
		l-0.04-0.32C289.25,146.49,289.17,144.63,289.17,142.18z M358.38,107.05h8.04v-8.76h-8.04V107.05z M351.36,141.98V97.21h-7.8
		c0,0,0,18.13,0,20.01c-0.98-1.91-3.16-4.75-7.59-4.75c-6.68,0-10.67,6.79-10.67,18.16c0,11.33,4.05,18.09,10.84,18.09
		c3.69,0,6.25-1.82,7.89-5.4c0.02,2.11,0.13,3.79,0.23,4.62l0.03,0.25h7.34l-0.04-0.32C351.44,146.72,351.36,144.8,351.36,141.98z
		 M338.13,142.03c-3.66,0-5.03-3.18-5.03-11.74c0-7.5,1.68-11.14,5.14-11.14c4.63,0,5.32,7.11,5.32,11.34
		C343.56,135.75,342.62,142.03,338.13,142.03z M403.54,148.17h7.8V97.21h-7.8V148.17z M358.5,148.17h7.8V113h-7.8V148.17z
		 M623.7,141.78v-15.12c0-8.52-2-14.19-11.78-14.19c-4.72,0-7.68,1.56-9.64,2.59l-0.16,0.09l0.46,7.52l0.44-0.43
		c1.27-1.22,4.38-3.28,8.03-3.28c4.8,0,5.31,4.41,5.31,6.3c0,0,0,0.65,0,0.99c-0.37,0-1.17,0-1.17,0c-7.49,0-16.09,1.37-16.09,12.04
		c0,6.85,4.66,10.43,9.26,10.43c4.25,0,6.58-2.34,8.25-4.8c0.02,1.42,0.08,2.85,0.4,4.05l0.06,0.21h7.07l-0.04-0.32
		C623.92,146.41,623.7,144.18,623.7,141.78z M616.36,132.91c0,6.55-1.78,9.59-5.61,9.59c-2.63,0-4.33-1.97-4.33-5.03
		c0-4.43,2.78-6.24,9.58-6.24c0,0,0.18,0,0.36,0C616.36,131.65,616.36,132.91,616.36,132.91z M670.02,142.18V113h-7.8v20.11
		c0,3.73-0.81,8.18-4.68,8.18c-2.86,0-4.03-2.1-4.03-7.24V113h-7.8v22.59c0,8.7,3.08,13.12,9.15,13.12c4.5,0,6.54-2.97,7.86-5.3
		c0.04,0.92,0.09,2.42,0.09,2.42l0.12,2.34l0.27,0h7.09l-0.04-0.32C670.1,146.48,670.02,144.63,670.02,142.18z M630.89,148.17h7.8
		V97.21h-7.8V148.17z M701.82,147.85c-0.16-1.14-0.23-3.06-0.23-5.87V97.21h-7.8c0,0,0,18.12,0,20c-0.98-1.91-3.17-4.75-7.59-4.75
		c-6.68,0-10.67,6.79-10.67,18.16c0,11.33,4.05,18.09,10.84,18.09c3.69,0,6.25-1.82,7.89-5.4c0.02,2.1,0.13,3.78,0.23,4.62
		l0.03,0.25h7.34L701.82,147.85z M688.35,142.03c-3.66,0-5.02-3.18-5.02-11.74c0-7.5,1.68-11.14,5.14-11.14
		c4.63,0,5.32,7.11,5.32,11.34C693.78,135.75,692.84,142.03,688.35,142.03z M477.39,112.46c-7.45,0-12.65,7.66-12.65,18.63
		c0,8.52,3.72,17.62,14.17,17.62c4.49,0,7.73-1.57,9.11-2.24l0.17-0.08l-0.39-7.35l-0.44,0.37c-1.6,1.36-3.63,2.62-7.69,2.62
		c-4.94,0-7.27-2.84-7.35-8.91c0.58,0,17.38,0,17.38,0v-1.9C489.69,115.72,483,112.46,477.39,112.46z M472.31,127.31
		c0.06-4.05,1.41-8.64,5.08-8.64c3.82,0,4.69,4.63,4.72,8.64H472.31z M511.29,148.25h7.8V96.63h-7.8V148.25z M459.12,141.98V97.21
		h-7.8c0,0,0,18.14,0,20.01c-0.98-1.91-3.16-4.76-7.59-4.76c-6.68,0-10.67,6.79-10.67,18.16c0,11.33,4.05,18.09,10.85,18.09
		c3.69,0,6.25-1.82,7.89-5.41c0.02,2.09,0.13,3.78,0.22,4.62l0.03,0.25h7.35l-0.04-0.32C459.2,146.73,459.12,144.8,459.12,141.98z
		 M445.88,142.03c-3.66,0-5.03-3.18-5.03-11.74c0-7.5,1.68-11.14,5.14-11.14c4.63,0,5.32,7.11,5.32,11.34
		C451.32,135.75,450.38,142.03,445.88,142.03z M587.57,121.58c0,0-4.38-2.82-4.38-2.82c-2.25-1.46-4.19-2.72-4.19-6.08
		c0-3.27,2.01-5.23,5.38-5.23c3.11,0,5.32,1,7.09,1.8l0.82,0.37l0.38-7.81l-0.6-0.22c-1.39-0.5-4.27-1.55-8.2-1.55
		c-6.53,0-13.12,4.04-13.12,13.05c0,5.62,2.15,9.6,6.78,12.54l3.79,2.42c3.52,2.23,5.18,3.63,5.18,6.88c0,4.8-3.05,6.5-5.9,6.5
		c-4.29,0-7.57-2.17-8.47-2.84l-0.42-0.31l-0.44,8.34l0.13,0.09c2.05,1.42,5.23,2.13,9.44,2.13c8.72,0,13.93-5.38,13.93-14.4
		C594.76,127.54,592.23,124.59,587.57,121.58z M549.14,141.78v-15.12c0-8.52-2-14.19-11.78-14.19c-4.73,0-7.68,1.56-9.64,2.59
		l-0.16,0.09l0.46,7.52l0.44-0.43c1.27-1.22,4.38-3.28,8.03-3.28c4.8,0,5.31,4.41,5.31,6.3c0,0,0,0.65,0,0.99c-0.37,0-1.17,0-1.17,0
		c-7.49,0-16.09,1.37-16.09,12.04c0,6.85,4.66,10.43,9.27,10.43c4.25,0,6.58-2.34,8.26-4.8c0.02,1.42,0.08,2.85,0.4,4.05l0.06,0.21
		h7.07l-0.04-0.32C549.39,146.69,549.14,144.35,549.14,141.78z M541.8,132.91c0,6.55-1.78,9.59-5.6,9.59
		c-2.63,0-4.33-1.97-4.33-5.03c0-4.43,2.78-6.24,9.58-6.24c0,0,0.18,0,0.36,0C541.8,131.65,541.8,132.91,541.8,132.91z"/>
</g>
</svg>
