<?xml version="1.0" encoding="utf-8"?>
<!-- Generator: Adobe Illustrator 24.1.0, SVG Export Plug-In . SVG Version: 6.00 Build 0)  -->
<svg version="1.1" id="CHINESE" xmlns="http://www.w3.org/2000/svg" xmlns:xlink="http://www.w3.org/1999/xlink" x="0px" y="0px"
	 viewBox="0 0 316.3 215.7" style="enable-background:new 0 0 316.3 215.7;" xml:space="preserve">
<style type="text/css">
	.st0{fill:#0093D5;}
</style>
<g>
	<path class="st0" d="M183.8,208.3v-11c1.8,0,14.9,0,14.9,0V192c0,0-13.1,0-14.9,0v-7.7c1.8,0,18.2,0,18.2,0V181l-0.7-0.2
		c-4.4-1.6-11.5-1.8-17.5-1.7c0-1.7,0-13,0-13h-5.3c0,0,0,11.3,0,13h-10.8c0.4-1.2,0.8-1.8,1.2-2.5c0.6-1,1.2-2,1.8-4.4l0.3-1.2
		h-7.2l0,1c-0.2,7.1-2.1,11.3-6.1,13.8L157,186v6.5h3.3l1.4-2.8c0.8-1.6,1.5-3,2.1-5.4h14.7v7.7c-1.8,0-14.9,0-14.9,0v5.3
		c0,0,13.1,0,14.9,0v11c-1.9,0-23.1,0-23.1,0v5.3h48.2v-5.3C203.6,208.3,185.7,208.3,183.8,208.3z"/>
	<path class="st0" d="M125.1,208.3v-33.7h12.8V192c-0.3,0-1.6,0-1.6,0s0,1.3,0,1.6c-1.3,0-5.4,0-5.4,0l2.4,7l0.8-0.1
		c3.8-0.5,4.9-1,6.5-2.1l2.7-1.6l0-0.6l-0.2-4.9c-0.4-7-1-17.5,1.6-20.3l0.3-0.3v-3h-38.3v6.9c0,0,11.5,0,13.2,0v33.7
		c-1.8,0-18.2,0-18.2,0v5.3h48.2v-5.3C149.9,208.3,127,208.3,125.1,208.3z"/>
	<path class="st0" d="M99.7,197c0,0-11.4-4.2-12.5-4.6v-1.5c2.4,0,6.6,0,6.6,0v-24.7h-35v24.7c0,0,6.7,0,8.2,0l0,0
		c-0.9,0.5-3.8,2-3.8,2c-3,1.7-5.9,3.3-10.3,4.1l-0.8,0.1v3.5c0,0,1.4,0,1.6,0c0,0.3,0,1.3,0,1.3l0.7,0.2c1.5,0.5,4.3-0.5,8.9-3.2
		l0.7-0.4c0,0,0-0.9,0-1.2H67v6.6c-1.1,0.9-1.9,1.8-2.5,2.5c-1.4,1.6-2.2,2.6-6.6,3.5l-0.8,0.2v3.5c0,0,1.4,0,1.6,0
		c0,0.3,0,2.1,0,2.1l1.4-0.6c2.8-1.2,8.7-4.4,10.4-6.9l0.2-0.3c0,0,0-1.6,0-2.5c0.3,0,1.6,0,1.6,0s0-6.6,0-8.1c0.3,0,1.6,0,1.6,0
		v-3.6c0,0-2.6,0-4,0c0.3-0.5,1.5-2.3,1.9-2.8c6.3,0.1,8,0.9,11.6,2.8c-1,5.5-1.6,12.1-1.6,18.8c0,0.6,0,1.1,0,1.7l0,1h5.3
		c0,0,0-14,0-16.1c2.4,0.4,3.8,0.9,5.2,1.5c1.4,0.5,2.8,1.1,5.1,1.6l1,0.2l0.2-0.9c0,0,0.4-1.7,0.5-2c0.1-0.1,2.2-2,2.2-2L99.7,197z
		 M88.4,181.1v4.5h-9.5v-4.5H88.4z M88.4,171.3v4.5h-9.5v-4.5H88.4z M73.6,181.1v4.5H64v-4.5H73.6z M73.6,171.3v4.5H64v-4.5H73.6z"
		/>
	<path class="st0" d="M40,202.2c0,0,0-16,0-17.9c1.6,0,9.9,0,9.9,0v-5.3c0,0-8.3,0-9.9,0c0-1.7,0-13,0-13h-5.3c0,0,0,11.3,0,13h-9.5
		v-9.3c0.3,0,1.6,0,1.6,0v-3.6h-7c0,0,0,11.3,0,13h-6.2c0-1.6,0-9.7,0-9.7s-1.4,0-1.6,0c0-0.3,0-1.6,0-1.6H8.2c0,0,0,9.7,0,11.4
		c-1.6,0-8.2,0-8.2,0v5.3c0,0,6.7,0,8.2,0c0,1.9,0,29.2,0,29.2h38.3v-5.3c0,0-31.1,0-33,0v-23.9h6.2c0,1.8,0,17.9,0,17.9L40,202.2
		L40,202.2z M25.1,196.9v-12.6h9.5v12.6H25.1z"/>
	<path class="st0" d="M255.5,209.9c0-1.9,0-42.2,0-42.2h-21.8c0,0,0,40.3,0,42.2c-1.5,0-6.6,0-6.6,0v5.3h33.4v-5.3
		C260.5,209.9,256.8,209.9,255.5,209.9z M250.2,200.5v9.3h-12.8v-9.3H250.2z M250.2,185.9v9.3h-12.8v-9.3H250.2z M250.2,173v7.7
		h-12.8V173H250.2z"/>
	<path class="st0" d="M229.5,175.8c-4.6,1.2-5.4,2.6-6.8,6c0,0-0.1,0.2-0.2,0.5h-4.6c1.3-4.8,4-9,7.4-11.1l0.5-0.3v-3l-0.7-0.2
		c0,0-1.7-0.4-2-0.5c-0.1-0.1-1.2-1.2-1.2-1.2l-0.4,0h-2.7c0,0,0,5.1,0,5.6c-0.8,1.5-1.9,3-3,4.7c-2.2,3.1-4.4,6.3-5.2,10l-0.3,1.5
		c0,0,6.8-1.3,8.4-1.6c-0.4,2.1-0.8,3-1.3,3.8c-0.5,0.8-1,1.8-1.5,3.6c-0.9,0-3.5,0-3.5,0v6.9h15.2c0,0,0-1.3,0-1.6
		c0.3,0,1.6,0,1.6,0v-5.7l-1.4,0.5c-2.4,0.9-4.5,1.4-8.1,1.5c1.1-2.9,3-5.2,4.9-7.6c2.5-3,5-6.1,6.1-10.5l0.4-1.7L229.5,175.8z
		 M227.5,205c0-0.3,0-2.1,0-2.1l-1.4,0.5c-4.2,1.7-8.1,2.8-14.5,3.2l-1,0.1v5.3l1.1-0.1c0.4,0,10.3-0.8,13.5-3.3
		c0.1,0,1.8-0.4,1.8-0.4l1.1-0.6l2.4-2.5l-2.3,0C228.1,205,227.8,205,227.5,205z"/>
	<path class="st0" d="M312.6,169.3h-21.8v26.4h21.8V169.3z M307.3,190.4h-11.2v-15.8h11.2V190.4z M277.2,185.9
		c-0.6,1.6-1.2,2.4-1.9,3.2c-0.8,1-1.7,2.1-2.4,4.5c-0.9,0-3.6,0-3.6,0v7l18.5-1.8v-5.2l-1,0c-4.1,0.1-6.3,0.5-8.8,1.1
		c0,0-0.6,0.1-1.2,0.2c0.8-2.1,1.7-3.3,3.1-4.9c0,0,0.5-0.5,0.8-0.9c0.5,0,2.2,0,2.2,0s0-2.3,0-3.2c0.3,0,1.1,0,1.1,0l6.1-8
		l-7.2-2.4c0,0-1.4,4.2-1.7,5.1h-6.6c0-0.5-0.1-0.9-0.1-1.2h1.4l0.3-0.6c1.6-3.5,2.8-5.8,6.2-7.7l0.5-0.3v-3.2h-6.8l-0.2,0.8
		c-0.8,3.5-1,4.3-3,5.9l-0.4,0.3v1.9c-0.9,0.1-1.4,1-1.5,1.4l-0.1,0.2c0,0,0,0.8,0,1.3c-0.3,0.2-0.6,0.4-0.6,0.4
		c-1.7,1.1-1.8,1.4-2.5,3.8l-0.6,2.3h1.3C268.7,185.9,275.1,185.9,277.2,185.9z M294.3,198.9c0,0-4.1,5.6-6.4,8.8v-4.6l-1.2,0.2
		c-4,0.7-10.1,1.7-18,1.6l-1,0v7.4l1.4-0.5c5.6-2.1,11.4-3.2,17.8-3.2h0.4c-0.5,0.6-0.8,1.1-0.9,1.2c-0.5,0-2.1,0-2.1,0v3.7l1.1-0.1
		c6.3-0.5,7.5-2.3,9.2-5.9l1.5-2.8c0.1-0.2,0.5-0.4,1-0.5c0.9-0.3,2.5-0.9,2.5-3.2l0-0.6l-4.6-2.3L294.3,198.9z M316.3,209l-0.9-0.6
		c-2.2-1.2-3.5-3-5-4.8c-1.4-1.7-2.8-3.5-4.9-4.9l-1.8-1.2l0.3,2.1c0.5,4.3,1.8,6.2,3.1,8.2c0.6,1,1.3,2,2,3.4l0.2,0.3l5.1,2.5
		c0,0,0-2.2,0-2.7c0.2-0.1,0.5-0.4,0.5-0.4l0.1,0l0.4-0.7l-0.1,0.3L316.3,209z"/>
	<g>
		<path class="st0" d="M212.2,28c3.3,3.9,9.1,6.3,12.5,10.2c-2.4-11.7-11.5-21.3-22.1-23.5C207.8,18.6,208.9,24,212.2,28z
			 M83.8,57.7c7.4-16,18.3-12.6,23-27.9c-2.6,4.7-14.6,6.6-20.2,18.6c2.8-7.1,1.4-18,6.2-23.9C78.5,35.1,84.6,52.3,83.8,57.7z
			 M97.1,96.1c1.3,6.2-2.6,15.2,3.6,23.8c-6.4-7.2-19.9-9-25.4-19.9c6.9,26.6,24.9,21.1,33,26.9C101.6,117.4,107.1,111,97.1,96.1z
			 M95.1,112.8c-4-14.9,3.1-20-2.3-34.3c-0.6,8-5.9,12-2.3,26.6c-6.4-12.5-16.2-17.1-19.1-25.6C71.6,102.9,90.3,106.3,95.1,112.8z
			 M123.9,137.7c-5.5-7.6-1.8-12-17.3-25.8c3.3,5.1-0.1,11.4,10.4,21.4c-10.2-6-24.4-3.5-31.2-11.5
			C97.5,144.1,118.1,134.9,123.9,137.7z M198.9,133.2c10.5-9.9,7.1-16.3,10.4-21.4c-15.5,13.9-11.7,18.2-17.3,25.8
			c5.8-2.8,26.4,6.4,38.1-16C223.3,129.8,209.2,127.2,198.9,133.2z M215.2,119.9c6.2-8.6,2.3-17.6,3.6-23.8
			c-9.9,14.9-4.5,21.3-11.1,30.9c8.1-5.8,26.1-0.3,33-26.9C235.1,110.9,221.6,112.7,215.2,119.9z M190.4,138.8
			c-6.1-1.6-12.3-2.4-17-2.5c-5.8-0.1-11,1-15.5,2.6c-4.5-1.7-9.7-2.8-15.5-2.6c-4.6,0.1-10.9,0.9-17,2.5
			c-9.3,2.5-17.4,4.4-24.4,0.9c6.7,6,14.6,8.1,26,6.9c9.5-1,17.1-5.8,26-5.7c0.1,0,0.2,0,0.4,0c-9.4,4.7-14.7,11.4-14.7,11.4
			l4.3,0.6c0,0,4.5-9.1,14.9-11.5c10.4,2.4,14.9,11.5,14.9,11.5l4.3-0.6c0,0-5.3-6.7-14.7-11.4c0.1,0,0.2,0,0.4,0
			c8.9-0.1,16.5,4.7,26,5.7c11.4,1.2,19.2-0.9,26-6.9C207.8,143.2,199.7,141.2,190.4,138.8z M93.4,62.4c-3.9,7.4-9.8,9.1-9.2,24.3
			C81,73.2,73.3,68.1,73.4,59.5C68,82,82.4,84.7,86,94.2C85.5,80.6,94.2,77.9,93.4,62.4z M98.8,44.9c-1.3,1.9-2.3,2.7-5.9,5.6
			c-4.9,4-8.8,9.3-10.4,17c0.4-8.3-4.7-20.2-1.3-28.9C68,57.3,82,68.4,82.5,75.1C85.9,62.2,93.7,62.1,98.8,44.9z M233.4,67.5
			c-1.6-7.7-5.5-13-10.4-17c-3.6-2.9-4.5-3.7-5.9-5.6c5.1,17.1,13,17.2,16.4,30.2c0.5-6.7,14.4-17.9,1.2-36.5
			C238.1,47.4,233,59.2,233.4,67.5z M244.5,79.5c-2.9,8.5-12.7,13.2-19.1,25.6c3.6-14.7-1.7-18.6-2.3-26.6
			c-5.4,14.3,1.7,19.4-2.3,34.3C225.6,106.3,244.3,102.9,244.5,79.5z M222.5,62.4c-0.7,15.5,7.9,18.2,7.4,31.8
			c3.7-9.5,18-12.1,12.6-34.7c0.1,8.7-7.6,13.7-10.8,27.2C232.3,71.4,226.3,69.8,222.5,62.4z M103.7,28c3.3-3.9,4.4-9.4,9.6-13.3
			c-10.7,2.3-19.7,11.8-22.1,23.5C94.6,34.2,100.4,31.9,103.7,28z M209.1,29.8c4.6,15.3,15.6,11.9,23,27.9c-0.8-5.4,5.4-22.5-9-33.2
			c4.8,5.9,3.4,16.8,6.2,23.9C223.7,36.4,211.7,34.4,209.1,29.8z M171.8,38.4c-2.8-1.1-5.7-2-8.8-2.4c0,0.6,0,1.3,0,2
			c2.8,0.4,5.5,1.2,8.1,2.2C171.4,39.7,171.7,39.1,171.8,38.4z M169.6,19.5l0.6-0.5l-1.1-0.5l-2.9-0.1l-0.8,0.5l-1.7-0.1l0,0.4
			c1.1,0.1,2.2,0.2,3,0.3l1.4-0.1L169.6,19.5z M163.9,82.9c0-0.5-0.7-1-1.6-1.5h-0.2c0,0.4,0,2.4-0.1,3.4
			C163.3,84.2,163.9,83.7,163.9,82.9z M129.9,45.6c0.1-0.4,0.1-0.7,0.2-1.1c-0.4,0.1-0.8,0.1-1.2,0.1L129.9,45.6z M158,131.9
			c33,0,59.9-26.9,59.9-59.9c0-31-23.6-56.6-53.8-59.6c0,0.1,0,0.2-0.1,0.3c-0.1,0.6-0.2,1.1-0.3,1.6c13.5,1.3,25.7,7.3,34.9,16.3
			l-6.6,6.6l0.2-1.2l-0.9-0.4l-1.2-0.1l0.2-0.8l-0.8-2.7l-1.6-1.8l-5.2-2.7l-0.4,0.5l-0.9,0.3c1.8,2.6,2.7,5.6,2.7,8.7
			c0,0.4,0,0.8,0,1.2l2.6,3.2l-1.2,0.3l0.8,1.2l-2.3,2.3l-0.9-1.7c-0.4,1.2-1,2.3-1.7,3.4c0.2,0.2,0.3,0.3,0.5,0.5l-7,7
			c-0.4-0.4-0.9-0.8-1.3-1.2c-0.7,0.3-1.4,0.6-2,0.9c0.2,0.1,0.4,0.3,0.6,0.5l-0.4,0.4l-0.8,0.5l-0.3,0.8l-0.5-0.5l-1.5,0.5l0.4,0.6
			l1-0.3l0.7,0.1l0-0.4l0.5-0.2l0.1-0.3l0.9-0.2l0.7,0c0.1,0.1,0.3,0.2,0.4,0.4l-2.8,2.8l-0.2-0.3l-2.9,0.5l-0.6,0.6l-0.6,0.1
			l1.8-1.7l-0.6-0.3l-1.7,2.2l0.5-0.1l0,0.8l0.6,0.2l0.1,0.9l-1-0.2l-1,0.2l-2.5-1.3c0,0-0.1,6.8-0.2,10.2c6,2,12.3,4.9,12.3,12.5
			c0,3.4-1.5,6.1-4.3,8l0,0c0,0-0.1,0.1-0.1,0.1l0,0c-0.1,0-0.1,0.1-0.2,0.1c-2.4,1.6-5.5,2.5-8.2,3.3c0,0-0.1,5.3-0.1,5.3
			c4.3,2.1,9.5,5.2,9,14.1c-0.1,2.2-0.9,2.8-1.6,3l0,0c-2.5,0.6-5.1,1-7.8,1.2c0,0.7,0,1.4,0,2c11.5-0.8,22-5.7,29.9-13.2l7,7
			c-10.4,10-24.6,16.2-40.1,16.2c-15.5,0-29.6-6.1-40-16l7-7c7.8,7.4,18.1,12.2,29.4,13c0-0.6,0-1.3,0-2c-10.8-0.8-20.6-5.4-28-12.4
			l1.9-1.9l2.5,0.3l1.4-1.5l3.6,0.1l0.5-1.2l-0.1-0.5c5.1,3.9,11.4,6.5,18.1,7.2c0-0.8,0-1.4,0-2c-7.5-0.8-14.2-4.1-19.5-8.9l7-7
			c1.7,1.5,3.6,2.8,5.6,3.8c0.2-0.7,0.4-1.3,0.7-1.8c-1.8-0.9-3.5-2-5-3.3l7-7c1.1,0.9,2.4,1.6,3.7,2.1c0-0.7,0-1.4,0-2.1
			c-0.8-0.4-1.6-0.8-2.3-1.4l2-2c-0.7-0.2-1.4-0.4-2.1-0.7l-1.3,1.3c-0.7-0.7-1.2-1.6-1.7-2.5c-1.2-0.5-2.4-1.1-3.5-1.9
			c-4.3-2.8-6.5-6.8-6.5-11.8c0-3.8,1.1-6.8,2.8-9l-6.9-6.9c5-4.8,11.4-8.1,18.6-9.1c0-0.7,0-1.3,0-2c-7.7,1.1-14.6,4.6-19.9,9.7
			l-1.2-1.2c-0.3,0.5-0.6,1.1-0.9,1.8l0.7,0.7c-6,6.4-9.7,14.9-9.8,24.2h-9.9c0.2-12.1,5-23.1,12.7-31.2l3.1,3.1c0.1,0,0.3,0,0.4,0
			c0.5,0,1.2-0.2,1.8-0.5l-4-4c2.1-2,4.4-3.9,6.9-5.5c0.2-0.7,0.4-1.2,0.5-1.4c0.1-0.2,0.8-1.1,1.5-2c-3.7,2.1-7.2,4.6-10.2,7.6
			l-7-7c9.1-8.9,21.2-14.8,34.5-16.1c0-0.2-0.1-0.4-0.1-0.4c-0.1-0.5-0.2-1-0.3-1.5C121.7,15.6,98.2,41.1,98.2,72
			C98.1,105.1,125,131.9,158,131.9z M171,90.6L171,90.6L171,90.6C171,90.6,171,90.6,171,90.6z M200,32.1c9.8,10.3,15.9,24.1,16,39.4
			h-9.8c-0.1-7.6-1.9-14.7-5.1-21l0.1-0.2l0.7,0.4l0.2-0.5l-1.8-3.1l-2.1-2.9l-2.5-2c-0.8-1.1-1.7-2.1-2.6-3L200,32.1z M187.4,44.7
			l2.4,0.1l0.6,0.7l-0.3,1l3.3,2l0.6-0.1l4.2,4.8l1.7-0.6c2.7,5.7,4.2,12.1,4.3,18.8h-9.9c0-2.6-0.4-5.1-0.9-7.5l0.5-0.6l0.6-3.1
			l-0.5-3.3l-1.2-3.8l-2.8-4l0.7,0.4l0.3-0.3l-2.2-1.5l-0.1,0.5l2.2,3.1l1.2,2.6l0.9,2.6l0.3,1.7l0.5,2.9l-0.8,0.1
			c0,0-1-1.8-1.2-2.5l0.4-0.7l-0.8-1.2v-1.2l-0.6-0.8l-0.7,0.1c-0.3-0.5-0.5-1-0.8-1.5l0.5,0.3l0.1-0.1l-0.3-0.6l0.6-0.4l-0.3-0.4
			l-1,0.4l0.4-1.5l-0.6-0.3l-0.5,1.2c-1.1-1.6-2.3-3.1-3.6-4.6L187.4,44.7z M185.5,67.8l1.8-1l1.8-0.3l0.4-0.9l1-0.6l0.4-0.8
			l0.3-1.5c0.1,0.5,0.3,1,0.4,1.6l-1,2.9l0,1l1.4-1.9c0.3,1.7,0.5,3.4,0.5,5.2h-8.6l-0.2-0.8l1-0.8l0.2-0.5l0.4-0.3l1.2-0.1l0.1-0.5
			L185.5,67.8z M173.6,61l0.9-0.2l0-0.2l-0.9-0.6l0.3-1.9l1-1.1c0.7,0.8,1.3,1.5,1.8,2.4l-0.4,1.1l-1-0.7l-0.7,0.2l0.4,0.7h0.4
			l-0.4,1l-0.3-0.4L173.6,61z M177.4,93.7l-2.1-0.6l-0.6,0.2l-1.2-0.9l-1.1-0.4c0.6-0.4,1.1-0.8,1.6-1.3l1.8,1.2l1.3,0.7l0.7,0.7
			L177.4,93.7z M176.3,55.7l7-7c1.6,1.8,3.1,3.7,4.3,5.8l-0.9,0.2l0,1.6l2.6,1.6c0.6,1.4,1.2,2.9,1.6,4.4l-0.5,0.7l-0.9,0.6
			l-0.2,1.4l-0.6,0.4l-0.5,0.6l-0.5-0.2l-1,0l0.6-0.8l0.4-2l0.6-0.4l-1.9-1.8l-1.4,0.5l-0.3,1.3l-0.9,1l-0.9-0.8l-0.3-0.8l0.5-0.3
			l0.3,0.5l0.4-0.2l-0.2-0.9l-0.6,0l0,0.4l-0.4,0.1l-2.2-2.5l-0.7-0.6l0.3-0.3l0.7-0.2l-0.6-0.2c0,0-0.8,0.2-0.9,0.2l0.4,0.6l-1.1,0
			C177.8,57.5,177.1,56.6,176.3,55.7z M179.9,92.8l-1-0.9l0.7-0.9l0.9-1.9l-0.4-0.5l0.6-1.4l-0.1-1.2l-0.4-1.3l-0.9-0.3l-0.3,0.7
			l-0.5-0.1c0.7-1.2,1.5-2.3,2.1-3.6l0.9-0.4l0.5-0.7l0.2,0.3l0.6-0.7l-0.5-0.6l0.4-0.1l0.8,0.3l1.5,0l0.9-0.5l2.4-0.6l-0.5-0.8
			l-0.1-1l1.3,0.6l0.5-0.3l-0.2-1l-1.6,0.6l-1.7-0.4l-1.3-2.7h7.5c-0.3,8.7-3.9,16.5-9.5,22.4l-1-1l0.5-1.4l-0.8-3L179.9,92.8z
			 M181.2,112l0.9-2l-0.4-0.9l1.4-1.2v-0.7l-1.2-0.7l1-1.9l1.4-1.9l-1.4-1.6h-1.1l-0.7-1.1c0.6-0.5,1.1-1,1.7-1.5l7,7
			C187.2,107.9,184.3,110.1,181.2,112z M189.9,102.8l0.8-0.9l-0.7-3.8l-0.5-0.2l0.3-0.6l-1.6-0.5l-0.3,1.4l-0.2,1.7l-0.3,0.3l-3-3
			c6-6.2,9.7-14.6,10.1-23.8h9.9c-0.3,11.9-5.2,22.7-13,30.7L189.9,102.8z M192.6,105.5c8.1-8.4,13.2-19.6,13.5-32.1h9.9
			c-0.3,15.2-6.5,28.9-16.4,39.1L192.6,105.5z M133.3,95.9c-0.7-0.7-1.4-1.5-2-2.3l0.3-2.5l-1-2.4l-0.2-3.7l-1.2-2.3l0.2-1.4
			l-1.4-2.7l-1.2-0.6l0.5-1.4l-0.5-1.1l0.5-1.3h1.4l0.5-0.8h2.3l0.4,0.7l-0.4,2.3l-0.3,0.4l0.9,1.9l-0.6,0.3l-0.4-0.5l-0.2,0.2
			l0.4,1.1l0.7,1.3l0.3,0l0.2-1.2l-0.3-0.4l0-0.8l-0.1-1.6l0.5-2.9l-0.5-0.8h1.6c0.3,6,2.9,11.5,6.8,15.6L133.3,95.9z M126.8,76.7
			l-0.9,1.5h-1.6l-0.1-0.1c-0.3-1.5-0.4-3.1-0.5-4.7h3l-0.7,2.4L126.8,76.7z M130.1,69.9l0.2-2l1.2-0.7l2.1,0.4l0.3,0.4
			c-0.2,1.1-0.3,2.2-0.3,3.4h-2.4L130.1,69.9z M140.1,77.3l0.5-0.2l1.3,1l-0.6,0.5l1.5,1l-0.1-1l0.8-1.3l0.8,0.9l0.8,1.2l-1.5,0.3
			l0.7,1.4l1-0.5l-0.1-0.4l0.8-0.5l0.5-2.1c0.6,1.3,1.3,2.4,2.3,3.5l-7,7c-3.3-3.5-5.5-8-6.1-13.1L137,76l1.3,0L140.1,77.3z
			 M132.9,48.6l7,7c-1.5,1.6-2.7,3.4-3.7,5.3l-0.5,0l-1,0.3l-0.3,0l-1,1l1.3-0.2l1.2-0.3c-0.1,0.1-0.1,0.3-0.2,0.4l-1,0.6h-0.5
			l-1.5,1.2l-1.5-0.1l-2.1,4l0.4,0.8l-1.2,1.3l-0.2,1.7h-4.4C123.8,62.6,127.3,54.6,132.9,48.6z M123.9,101.1l2.2,1.3l0.5,0.3
			l-1.6,1.6c-0.8-0.8-1.5-1.6-2.2-2.4L123.9,101.1z M121.7,73.4c0,1,0.1,1.9,0.2,2.8l-1.2,0.3l-0.2,1.2l-2.5,3.2l0.1,4.4l-2.6,0.9
			l-1.4,0c-1.3-4-2.1-8.3-2.2-12.8H121.7z M112,86.1l-0.6-0.1l-0.5-0.6l-2.8-0.2l0.9,1.2l-2.6-0.5l0.7-0.6l-0.6-0.6l-1.9,0.8
			l-0.7,1.2l0.2,2.8l2.1,5.1l1,1.6l0.6,0.2l-1.6-3l-0.4-1.5l0.4-0.4l-0.2-0.9l1,0.1l1.5,2.2l0.4,0.1l0-1.6l0.6,0.4l0.1,0.9l1.6,0.4
			l0.6-0.5l0.2,0.2l0,1.2l0.7,0.9l0.8,0.2l1.8,3.1l1.1,0.3l0.3-1.4c1.9,3.2,4.2,6.1,6.8,8.8l-7,7c-10-10.2-16.2-24-16.6-39.2h9.9
			C110,77.8,110.8,82.1,112,86.1z M116.2,31.9l7,7c-8.1,8.5-13.1,20-13.3,32.6h-9.8C100.2,56.1,106.4,42.2,116.2,31.9z M187.5,28.3
			l-0.6-1l-1.3-0.6l-1,0.8l1.3,0.7l1.4,1L187.5,28.3z M181.6,56.1l0,0.8l1.7-0.5l0.5-1l-1.2-1.5l0.6-0.9l1.6,1.1l0.3-0.2l-0.3-0.2
			l-0.4-0.7l0.6-0.4l-0.6-0.8l-1.5,0.8l-0.5,0.9l-0.3,0.8l0.7,1.1l-0.2,0.5L181.6,56.1z M110.4,100.2l0.1-0.4l-0.9-1.9l-1-0.4
			L110.4,100.2z M150.6,63.2c0,1.6,1,2.8,2.8,3.8c0,0,0-0.3,0-0.7l-1.1-1.1l0.6-1.1l0.5-0.1c0-1.9-0.1-4.1-0.1-4.4l-0.1,0
			C151.5,60.5,150.6,61.6,150.6,63.2z"/>
		<g>
			<path class="st0" d="M161.6,105.9c3.1,1.6,5.9,3.7,7.1,7.8c0.5-6.8-3.3-9.7-7-11.7C161.7,102,161.6,105.9,161.6,105.9z"/>
			<path class="st0" d="M182.2,37.1c0-6.2-4.5-13-15.4-15.4c-0.8-0.2-2-0.3-3.3-0.4c0,0.9-0.1,3.1-0.1,3.1c0,0.7-0.1,3.1-0.1,3.7
				c1,0.1,1.8,0.2,2.1,0.3c6.4,1.5,8.6,5.2,8.6,8.8c0,5.8-5,8.1-11.1,9.7c-0.7,0.2-1.4,0.4-2,0.5c-1.9,0.5-3.8,0.9-5.7,1.4
				c-0.7,0.2-1.4,0.4-2,0.6l0,0c-6.8,2.1-12.7,5.4-12.7,13.8c0,8.3,6.7,11.5,13.2,13.5c0-2.4-0.1-4.8-0.1-7.2
				c-2.9-1.4-4.9-3.1-4.9-6.1c0-2.9,1.9-4.7,4.7-6c0.6-0.3,1.3-0.5,2-0.8c1.6-0.6,3.5-1,5.4-1.5c0.7-0.2,1.4-0.3,2-0.5l0,0
				C171.9,52.3,182.2,49.4,182.2,37.1z"/>
			<path class="st0" d="M149.2,95.9c0,3.4,2.5,5.2,5,6.6c0-0.6-0.1-5.8-0.1-5.9c0-1,1.1-1.7,1.9-2c1.2-0.6,2.4-1,4-1.5
				c0.7-0.2,1.4-0.5,2.1-0.7l0,0c5-1.5,10.7-3.4,10.7-9.5c0-6.1-4.9-8.5-10.3-10.4c0,1.9-0.1,4.8-0.1,6.7c2.3,0.9,3.8,2,3.8,3.7
				c0,2.2-2.3,3.4-4,4c-0.7,0.3-1.7,0.6-2,0.7c-1.3,0.4-2.8,0.9-4.1,1.4c-0.7,0.3-1.4,0.5-2,0.9C151.6,91.1,149.1,92.8,149.2,95.9z"
				/>
			<path class="st0" d="M152.5,22.3c-3.3,0.9-5.3,2.2-6,2.4c-2.1,0.7-5.2,0.8-8.3,4.2c-0.6,0.6-1.9,2.3-2.9,3.7
				c-0.9,1.4-1,3.6-1.7,4.7c-1,1.7-0.8,2.7-0.8,2.7l0,0.1c0,0.2-0.2,1.1-1.1,2.1c-1,1.2-2.4,1.8-4.1,1.5c1.4,0.7,3.4-0.3,3.4-0.3
				s-0.4,1.1-0.8,2.8c1.6-3.6,3.1-4.9,3.5-5.3c0.7,0.2,2.1,0.1,4.8-1.4c3-1.7,7.5-4.5,8.8-6.3c1.4-1.9,3.3-3.2,5.3-4
				C152.6,26.6,152.6,24.3,152.5,22.3z M139.9,33.6l-1.5,0.3l1.8-3l2.2,0.1L139.9,33.6z"/>
		</g>
		<g>
			<path class="st0" d="M158.7,95.5c-0.3,0.1-1,0.4-1.5,0.6c-0.5,0.2-1.1,0.4-1.1,0.6c0,0,0.5,26.1,0.5,26.7c0,5.4,2.7,5.4,2.7,0
				c0-0.4,0.5-28.2,0.5-28.2S159.2,95.3,158.7,95.5z"/>
			<path class="st0" d="M155.9,86.9c0.9-0.3,1.7-0.6,2.5-0.8c0.6-0.2,1.1-0.4,1.6-0.5c0-1.6,0.5-24.3,0.6-28.4c-2,0.5-3.8,1-5.3,1.5
				C155.4,61.7,155.8,84.4,155.9,86.9z"/>
			<path class="st0" d="M158.1,0c-7.7,0-4.4,11.4-3.8,15.1c0,0.2,0.6,25.7,0.7,31.6c1.2-0.3,2.3-0.6,3.5-0.9
				c0.8-0.2,1.6-0.4,2.3-0.6c0.1-5.6,0.7-30,0.7-30.2C162,11.1,166,0,158.1,0z"/>
		</g>
	</g>
</g>
</svg>
